/* XPM */
static char *d873c6cd9c8a4649d46dc64da18232d6i0mD0a5A5EaEkede[] = {
/* columns rows colors chars-per-pixel */
"128 128 50 1 ",
"  c #C51F26",
". c #CA1F27",
"X c #CC1F27",
"o c #D21F26",
"O c #D91F26",
"+ c #DF1F26",
"@ c #E21E26",
"# c #E41E25",
"$ c #EC1B23",
"% c #ED1D23",
"& c #EA1B25",
"* c #EE1B24",
"= c #EA1C24",
"- c #EC1C24",
"; c #C52026",
": c #C92026",
"> c #CE2027",
", c #D22027",
"< c #D42027",
"1 c #D82027",
"2 c #D22028",
"3 c #D42028",
"4 c #E72025",
"5 c #E92224",
"6 c #EC2225",
"7 c #EA2525",
"8 c #ED2625",
"9 c #ED2728",
"0 c #EB282A",
"q c #EE2829",
"w c #EB2A2C",
"e c #ED2B2D",
"r c #EE2C2C",
"t c #EB2E31",
"y c #EE2F30",
"u c #EB3031",
"i c #EC3232",
"p c #EB3135",
"a c #EE3336",
"s c #EB3536",
"d c #ED3437",
"f c #ED3639",
"g c #EB383B",
"h c #EE3A3B",
"j c #EE3B3C",
"k c #EC3E3E",
"l c #EE3F40",
"z c #FB8500",
"x c #FFB703",
"c c #0310FF",
/* pixels */
"zzzzzzzzzzzzzzzzzzzzzzzzzzzzzzzzzzzzzzzzzzzzzzzzzzzzzzzzzzzzzzcccczzzzzzzzzzzzzzzzzzzzzzzzzzzzzzzzzzzzzzzzzzzzzzzzzzzzzzzzzzzzzz",
"zzzzzzzzzzzzzzzzzzzzzzzzzzzzzzzzzzzzzzzzzzzzzzzzzzzzzzzzzzzzzzcccczzzzzzzzzzzzzzzzzzzzzzzzzzzzzzzzzzzzzzzzzzzzzzzzzzzzzzzzzzzzzz",
"zzzzzzzzzzzzzzzzzzzzzzzzzzzzzzzzzzzzzzzzzzzzzzzzzzzzzzzzzzzzzzcccczzzzzzzzzzzzzzzzzzzzzzzzzzzzzzzzzzzzzzzzzzzzzzzzzzzzzzzzzzzzzz",
"zzzzzzzzzzzzzzzzzzzzzzzzzzzzzzzzzzzzzzzzzzzzzzzzzzzzzzzzzzzzzzcccczzzzzzzzzzzzzzzzzzzzzzzzzzzzzzzzzzzzzzzzzzzzzzzzzzzzzzzzzzzzzz",
"zzzzzzzzzzzzzzzzzzzzzzzzzzzzzzzzzzzzzzzzzzzzzzzzzzzzzzzzzzzzzzcccczzzzzzzzzzzzzzzzzzzzzzzzzzzzzzzzzzzzzzzzzzzzzzzzzzzzzzzzzzzzzz",
"zzzzzzzzzzzzzzzzzzzzzzzzzzzzzzzzzzzzzzzzzzzzzzzzzzzzzzzzzzzzzzcccczzzzzzzzzzzzzzzzzzzzzzzzzzzzzzzzzzzzzzzzzzzzzzzzzzzzzzzzzzzzzz",
"zzzzzzxxxxxxxxxxxxxxxxxxxxxxxxxxxxxxxxxxxxxxxxxxxxxxxxxxxxxxxxccccxxxxxxxxxxxxxxxxxxxxxxxxxxxxxxxxxxxxxxxxxxxxxxxxxxxxxxxxzzzzzz",
"zzzzzzxxxxxxxxxxxxxxxxxxxxxxxxxxxxxxxxxxxxxxxxxxxxxxxxxxxxxxxxccccxxxxxxxxxxxxxxxxxxxxxxxxxxxxxxxxxxxxxxxxxxxxxxxxxxxxxxxxzzzzzz",
"zzzzzzxxxxxxxxxxxxxxxxxxxxxxxxxxxxxxxxxxxxxxxxxxxxxxxxxxxxxxxxccccxxxxxxxxxxxxxxxxxxxxxxxxxxxxxxxxxxxxxxxxxxxxxxxxxxxxxxxxzzzzzz",
"zzzzzzxxxxxxxxxxxxxxxxxxxxxxxxxxxxxxxxxxxxxxxxxxxxxxxxxxxxxxxxccccxxxxxxxxxxxxxxxxxxxxxxxxxxxxxxxxxxxxxxxxxxxxxxxxxxxxxxxxzzzzzz",
"zzzzzzxxxxxxxxxxxxxxxxxxxxxxxxxxxxxxxxxxxxxxxxxxxxxxxxxxxxxxxxccccxxxxxxxxxxxxxxxxxxxxxxxxxxxxxxxxxxxxxxxxxxxxxxxxxxxxxxxxzzzzzz",
"zzzzzzxxxxxxxxxxxxxxxxxxxxxxxxxxxxxxxxxxxxxxxxxxxxxxxxxxxxxxxxccccxxxxxxxxxxxxxxxxxxxxxxxxxxxxxxxxxxxxxxxxxxxxxxxxxxxxxxxxzzzzzz",
"zzzzzzxxxxxxxxxxxxxxxxxxxxxxxxxxxxxxxxxxxxxxxxxxxxxxxxxxxxxxxxccccxxxxxxxxxxxxxxxxxxxxxxxxxxxxxxxxxxxxxxxxxxxxxxxxxxxxxxxxzzzzzz",
"zzzzzzxxxxxxxxxxxxxxxxxxxxxxxxxxxxxxxxxxxxxxxxxxxxxxxxxxxxxxxxccccxxxxxxxxxxxxxxxxxxxxxxxxxxxxxxxxxxxxxxxxxxxxxxxxxxxxxxxxzzzzzz",
"zzzzzzxxxxxxxxxxxxxxxxxxxxxxxxxxxxxxxxxxxxxxxxxxxxxxxxxxxxxxxxccccxxxxxxxxxxxxxxxxxxxxxxxxxxxxxxxxxxxxxxxxxxxxxxxxxxxxxxxxzzzzzz",
"zzzzzzxxxxxxxxxxxxxxxxxxxxxxxxxxxxxxxxxxxxxxxxxxxxxxxxxxxxxxxxccccxxxxxxxxxxxxxxxxxxxxxxxxxxxxxxxxxxxxxxxxxxxxxxxxxxxxxxxxzzzzzz",
"zzzzzzxxxxxxxxxxxxxxxxxxxxxxxxxxxxxxxxxxxxxxxxxxxxxxxxxxxxxxxxccccxxxxxxxxxxxxxxxxxxxxxxxxxxxxxxxxxxxxxxxxxxxxxxxxxxxxxxxxzzzzzz",
"zzzzzzxxxxxxxxxxxxxxxxxxxxxxxxxxxxxxxxxxxxxxxxxxxxxxxxxxxxxxxxccccxxxxxxxxxxxxxxxxxxxxxxxxxxxxxxxxxxxxxxxxxxxxxxxxxxxxxxxxzzzzzz",
"zzzzzzxxxxxxxxxxxxxxxxxxxxxxxxxxxxxxxxxxxxxxxxxxxxxxxxxxxxxxxxccccxxxxxxxxxxxxxxxxxxxxxxxxxxxxxxxxxxxxxxxxxxxxxxxxxxxxxxxxzzzzzz",
"zzzzzzxxxxxxxxxxxxxxxxxxxxxxxxxxxxxxxxxxxxxxxxxxxxxxxxxxxxxxxxccccxxxxxxxxxxxxxxxxxxxxxxxxxxxxxxxxxxxxxxxxxxxxxxxxxxxxxxxxzzzzzz",
"zzzzzzxxxxxxxxxxxxxxxxxxxxxxxxxxxxxxxxxxxxxxxxxxxxxxxxxxxxxxxxccccxxxxxxxxxxxxxxxxxxxxxxxxxxxxxxxxxxxxxxxxxxxxxxxxxxxxxxxxzzzzzz",
"zzzzzzxxxxxxxxxxxxxxxxxxxxxxxxxxxxxxxxxxxxxxxxxxxxxxxxxxxxxxxxccccxxxxxxxxxxxxxxxxxxxxxxxxxxxxxxxxxxxxxxxxxxxxxxxxxxxxxxxxzzzzzz",
"zzzzzzxxxxxxxxxxxxxxxxxxxxxxxxxxxxxxxxxxxxxxxxxxxxxxxxxxxxxxxxccccxxxxxxxxxxxxxxxxxxxxxxxxxxxxxxxxxxxxxxxxxxxxxxxxxxxxxxxxzzzzzz",
"zzzzzzxxxxxxxxxxxxxxxxxxxxxxxxxxxxxxxxxxxxxxxxxxxxxxxxxxxxxxxxccccxxxxxxxxxxxxxxxxxxxxxxxxxxxxxxxxxxxxxxxxxxxxxxxxxxxxxxxxzzzzzz",
"zzzzzzxxxxxxxxxxxxxxxxxxxxxxxxxxxxxxxxxxxxxxxxxxxxxxxxxxxxxxxxccccxxxxxxxxxxxxxxxxxxxxxxxxxxxxxxxxxxxxxxxxxxxxxxxxxxxxxxxxzzzzzz",
"zzzzzzxxxxxxxxxxxxxxxxxxxxxxxxxxxxxxxxxxxxxxxxxxxxxxxxxxxxxxxxccccxxxxxxxxxxxxxxxxxxxxxxxxxxxxxxxxxxxxxxxxxxxxxxxxxxxxxxxxzzzzzz",
"zzzzzzxxxxxxxxxxxxxxxxxxxxxxxxxxxxxxxxxxxxxxxxxxxxxxxxxxxxxxxxccccxxxxxxxxxxxxxxxxxxxxxxxxxxxxxxxxxxxxxxxxxxxxxxxxxxxxxxxxzzzzzz",
"zzzzzzxxxxxxxxxxxxxxxxxxxxxxxxxxxxxxxxxxxxxxxxxxxxxxxxxxxxxxxxccccxxxxxxxxxxxxxxxxxxxxxxxxxxxxxxxxxxxxxxxxxxxxxxxxxxxxxxxxzzzzzz",
"zzzzzzxxxxxxxxxxxxxxxxxxxxxxxxxxxxxxxxxxxxxxxxxxxxxxxxxxxxxxxxccccxxxxxxxxxxxxxxxxxxxxxxxxxxxxxxxxxxxxxxxxxxxxxxxxxxxxxxxxzzzzzz",
"zzzzzzxxxxxxxxxxxxxxxxxxxxxxxxxxxxxxxxxxxxxxxxxxxxxxxxxx:;;;;;cccc;;;;:xxxxxxxxxxxxxxxxxxxxxxxxxxxxxxxxxxxxxxxxxxxxxxxxxxxzzzzzz",
"zzzzzzxxxxxxxxxxxxxxxxxxxxxxxxxxxxxxxxxxxxxxxxxxxxxx:;;>>>>>,,cccc,>>>>>;;:xxxxxxxxxxxxxxxxxxxxxxxxxxxxxxxxxxxxxxxxxxxxxxxzzzzzz",
"zzzzzzxxxxxxxxxxxxxxxxxxxxxxxxxxxxxxxxxxxxxxxxxxx>;;:,,<1O++@@cccc@++O1<,,:;;>xxxxxxxxxxxxxxxxxxxxxxxxxxxxxxxxxxxxxxxxxxxxzzzzzz",
"zzzzzzxxxxxxxxxxxxxxxxxxxxxxxxxxxxxxxxxxxxxxxxxX;::,<1+@4wpgklcccckgpw4@+1<,::;Xxxxxxxxxxxxxxxxxxxxxxxxxxxxxxxxxxxxxxxxxxxzzzzzz",
"zzzzzzxxxxxxxxxxxxxxxxxxxxxxxxxxxxxxxxxxxxxxxx :>,1+@0skklkkkkcccckkklkks0@+1,>: xxxxxxxxxxxxxxxxxxxxxxxxxxxxxxxxxxxxxxxxxzzzzzz",
"zzzzzzxxxxxxxxxxxxxxxxxxxxxxxxxxxxxxxxxxxxxx:;>,1@4tjjjhhhfhhhcccchhfhhhjjjt4@1,>;:xxxxxxxxxxxxxxxxxxxxxxxxxxxxxxxxxxxxxxxzzzzzz",
"zzzzzzxxxxxxxxxxxxxxxxxxxxxxxxxxxxxxxxxxxxx;>,1+4ufddaddddddddccccdddddddaddfu4+1,>;xxxxxxxxxxxxxxxxxxxxxxxxxxxxxxxxxxxxxxzzzzzz",
"zzzzzzxxxxxxxxxxxxxxxxxxxxxxxxxxxxxxxxxxx:;><O#0iiyyiiiiiiiiiicccciiiiiiiiiyyii0#O<>;:xxxxxxxxxxxxxxxxxxxxxxxxxxxxxxxxxxxxzzzzzz",
"zzzzzzxxxxxxxxxxxxxxxxxxxxxxxxxxxxxxxxxx::><+4weerrrrrrrrrrrrrccccrrrrrrrrrrrreew4+<>::xxxxxxxxxxxxxxxxxxxxxxxxxxxxxxxxxxxzzzzzz",
"zzzzzzxxxxxxxxxxxxxxxxxxxxxxxxxxxxxxxxx;:,1@5089qqqqqqqqqqqqqqccccqqqqqqqqqqqqq9805@1,:;xxxxxxxxxxxxxxxxxxxxxxxxxxxxxxxxxxzzzzzz",
"zzzzzzxxxxxxxxxxxxxxxxxxxxxxxxxxxxxxxx:>,O@57888888888888qqq88cccc8qqq88888888888875@O,>;xxxxxxxxxxxxxxxxxxxxxxxxxxxxxxxxxzzzzzz",
"zzzzzzxxxxxxxxxxxxxxxxxxxxxxxxxxxxxxx;>,+#=66666666666696666xxccccx66669666666666666=#O,>:xxxxxxxxxxxxxxxxxxxxxxxxxxxxxxxxzzzzzz",
"zzzzzzxxxxxxxxxxxxxxxxxxxxxxxxxxxxxx>:,+#==----------6%-xxxxxxccccxxxxx-%6----------==#+,:>xxxxxxxxxxxxxxxxxxxxxxxxxxxxxxxzzzzzz",
"zzzzzzxxxxxxxxxxxxxxxxxxxxxxxxxxxxxx;,O@==--------66--xxxxxxxxccccxxxxxxx6666--------==@O,;xxxxxxxxxxxxxxxxxxxxxxxxxxxxxxxzzzzzz",
"zzzzzzxxxxxxxxxxxxxxxxxxxxxxxxxxxxx;>1@==-----------xxxxxxxxxxccccxxxxxxxxx*----------==@1>;xxxxxxxxxxxxxxxxxxxxxxxxxxxxxxzzzzzz",
"zzzzzzxxxxxxxxxxxxxxxxxxxxxxxxxxxx:><+#=----------xxxxxxxxxxxxccccxxxxxxxxxxx----------=#+<>:xxxxxxxxxxxxxxxxxxxxxxxxxxxxxzzzzzz",
"zzzzzzxxxxxxxxxxxxxxxxxxxxxxxxxxxx;,+#=---------*xxxxxxxxxxxxxccccxxxxxxxxxxxx*---------=#+,;xxxxxxxxxxxxxxxxxxxxxxxxxxxxxzzzzzz",
"zzzzzzxxxxxxxxxxxxxxxxxxxxxxxxxxx;,O@==---------xxxxxxxxxxxxxxccccxxxxxxxxxxxxx---------==@O,;xxxxxxxxxxxxxxxxxxxxxxxxxxxxzzzzzz",
"zzzzzzxxxxxxxxxxxxxxxxxxxxxxxxxx2><+#=---------xxxxxxxxxxxxxxxccccxxxxxxxxxxxxxx---------=#+<>2xxxxxxxxxxxxxxxxxxxxxxxxxxxzzzzzz",
"zzzzzzxxxxxxxxxxxxxxxxxxxxxxxxxx:,O#==--------xxxxxxxxxxxxxxxxccccxxxxxxxxxxxxxxx--------==#O,:xxxxxxxxxxxxxxxxxxxxxxxxxxxzzzzzz",
"zzzzzzxxxxxxxxxxxxxxxxxxxxxxxxx,:<+#=--------xxxxxxxxxxxxxxxxxccccxxxxxxxxxxxxxxxx--------=#+<:,xxxxxxxxxxxxxxxxxxxxxxxxxxzzzzzz",
"zzzzzzxxxxxxxxxxxxxxxxxxxxxxxxx:>O#==-------xxxxxxxxxxxxxxxxxxccccxxxxxxxxxxxxxxxxx-------==#O>:xxxxxxxxxxxxxxxxxxxxxxxxxxzzzzzz",
"zzzzzzxxxxxxxxxxxxxxxxxxxxxxxxx;<+#==------*xxxxxxxxxxxxxxxxxxccccxxxxxxxxxxxxxxxxx*------==#+<;xxxxxxxxxxxxxxxxxxxxxxxxxxzzzzzz",
"zzzzzzxxxxxxxxxxxxxxxxxxxxxxxx.>1@===-----$xxxxxxxxxxxxxxxxxxxccccxxxxxxxxxxxxxxxxxx$-----===@1>.xxxxxxxxxxxxxxxxxxxxxxxxxzzzzzz",
"zzzzzzxxxxxxxxxxxxxxxxxxxxxxxx.<+#==-------xxxxxxxxxxxxxxxxxxxccccxxxxxxxxxxxxxxxxxx-------==#+< xxxxxxxxxxxxxxxxxxxxxxxxxzzzzzz",
"zzzzzzxxxxxxxxxxxxxxxxxxxxxxxx:<+#==-----*xxxxxxxxxxxxxxxxxxxxccccxxxxxxxxxxxxxxxxxxx*-----==#+<:xxxxxxxxxxxxxxxxxxxxxxxxxzzzzzz",
"zzzzzzxxxxxxxxxxxxxxxxxxxxxxxx,1@#======-=xxxxxxxxxxxxxxxxxxxxccccxxxxxxxxxxxxxxxxxxx=-======#@1,xxxxxxxxxxxxxxxxxxxxxxxxxzzzzzz",
"zzzzzzxxxxxxxxxxxxxxxxxxxxxxx:,O@======--xxxxxxxxxxxxxxxxxxxxxccccxxxxxxxxxxxxxxxxxxxx--======@O,:xxxxxxxxxxxxxxxxxxxxxxxxzzzzzz",
"zzzzzzxxxxxxxxxxxxxxxxxxxxxxx.,+#======-=xxxxxxxxxxxxxxxxxxxxxccccxxxxxxxxxxxxxxxxxxxx=-======#+,.xxxxxxxxxxxxxxxxxxxxxxxxzzzzzz",
"zzzzzzxxxxxxxxxxxxxxxxxxxxxxx:<+#======-&xxxxxxxxxxxxxxxxxxxxxccccxxxxxxxxxxxxxxxxxxxx&-======#+<:xxxxxxxxxxxxxxxxxxxxxxxxzzzzzz",
"zzzzzzxxxxxxxxxxxxxxxxxxxxxxx:<+#======-=xxxxxxxxxxxxxxxxxxxxxccccxxxxxxxxxxxxxxxxxxxx=-======#+<:xxxxxxxxxxxxxxxxxxxxxxxxzzzzzz",
"zzzzzzxxxxxxxxxxxxxxxxxxxxxxx:<@#=======xxxxxxxxxxxxxxxxxxxxxxccccxxxxxxxxxxxxxxxxxxxxx=======#@<:xxxxxxxxxxxxxxxxxxxxxxxxzzzzzz",
"zzzzzzxxxxxxxxxxxxxxxxxxxxxxx:<@#=======xxxxxxxxxxxxxxxxxxxxxxccccxxxxxxxxxxxxxxxxxxxxx=======#@<:xxxxxxxxxxxxxxxxxxxxxxxxzzzzzz",
"zzzzzzxxxxxxxxxxxxxxxxxxxxxxx>1@#=======xxxxxxxxxxxxxxxxxxxxxxccccxxxxxxxxxxxxxxxxxxxxx=======#@1>xxxxxxxxxxxxxxxxxxxxxxxxzzzzzz",
"zzzzzzxxxxxxxxxxxxxxxxxxxxxxx>1@#=======xxxxxxxxxxxxxxxxxxxxxxccccxxxxxxxxxxxxxxxxxxxxx=======#@1>xxxxxxxxxxxxxxxxxxxxxxxxzzzzzz",
"zzzzzzxxxxxxxxxxxxxxxxxxxxxxx>1@#=======xxxxxxxxxxxxxxxxxxxxxxccccxxxxxxxxxxxxxxxxxxxxx=======#@1>xxxxxxxxxxxxxxxxxxxxxxxxzzzzzz",
"zzzzzzxxxxxxxxxxxxxxxxxxxxxxx>1+#=======xxxxxxxxxxxxxxxxxxxxxxccccxxxxxxxxxxxxxxxxxxxxx=======#+1>xxxxxxxxxxxxxxxxxxxxxxxxzzzzzz",
"zzzzzzxxxxxxxxxxxxxxxxxxxxxxx:<+##======xxxxxxxxxxxxxxxxxxxxxxccccxxxxxxxxxxxxxxxxxxxxx======##+<:xxxxxxxxxxxxxxxxxxxxxxxxzzzzzz",
"zzzzzzxxxxxxxxxxxxxxxxxxxxxxx:<+##=======xxxxxxxxxxxxxxxxxxxxxccccxxxxxxxxxxxxxxxxxxxx=======##+<:xxxxxxxxxxxxxxxxxxxxxxxxzzzzzz",
"zzzzzzxxxxxxxxxxxxxxxxxxxxxxx:<+@#=====-=xxxxxxxxxxxxxxxxxxxxxccccxxxxxxxxxxxxxxxxxxxx=-=====#@+<:xxxxxxxxxxxxxxxxxxxxxxxxzzzzzz",
"zzzzzzxxxxxxxxxxxxxxxxxxxxxxx.<+@#======#xxxxxxxxxxxxxxxxxxxxxccccxxxxxxxxxxxxxxxxxxxx#======#@+<.xxxxxxxxxxxxxxxxxxxxxxxxzzzzzz",
"zzzzzzxxxxxxxxxxxxxxxxxxxxxxx><+@#==##===xxxxxxxxxxxxxxxxxxxxxccccxxxxxxxxxxxxxxxxxxxx=======#@+<>xxxxxxxxxxxxxxxxxxxxxxxxzzzzzz",
"zzzzzzxxxxxxxxxxxxxxxxxxxxxxxx<1+#####==-=xxxxxxxxxxxxxxxxxxxxccccxxxxxxxxxxxxxxxxxxx#-#######+1<xxxxxxxxxxxxxxxxxxxxxxxxxzzzzzz",
"zzzzzzxxxxxxxxxxxxxxxxxxxxxxxx><+#####===#xxxxxxxxxxxxxxxxxxxxccccxxxxxxxxxxxxxxxxxxx#==##==##+<>xxxxxxxxxxxxxxxxxxxxxxxxxzzzzzz",
"zzzzzzxxxxxxxxxxxxxxxxxxxxxxxx:1+@####==#==xxxxxxxxxxxxxxxxxxxccccxxxxxxxxxxxxxxxxxx====##=##@+1:xxxxxxxxxxxxxxxxxxxxxxxxxzzzzzz",
"zzzzzzxxxxxxxxxxxxxxxxxxxxxxxxX,O@#######=#xxxxxxxxxxxxxxxxxxxccccxxxxxxxxxxxxxxxxxx#=#######@O,Xxxxxxxxxxxxxxxxxxxxxxxxxxzzzzzz",
"zzzzzzxxxxxxxxxxxxxxxxxxxxxxxxx:<+@#######=#xxxxxxxxxxxxxxxxxxccccxxxxxxxxxxxxxxxxx#=#######@+<:xxxxxxxxxxxxxxxxxxxxxxxxxxzzzzzz",
"zzzzzzxxxxxxxxxxxxxxxxxxxxxxxxx:,+@#######=#xxxxxxxxxxxxxxxxxxccccxxxxxxxxxxxxxxxxx#=#######@+,:xxxxxxxxxxxxxxxxxxxxxxxxxxzzzzzz",
"zzzzzzxxxxxxxxxxxxxxxxxxxxxxxxx,>1+@#######=#xxxxxxxxxxxxxxxxxccccxxxxxxxxxxxxxxxx#=#######@+1>,xxxxxxxxxxxxxxxxxxxxxxxxxxzzzzzz",
"zzzzzzxxxxxxxxxxxxxxxxxxxxxxxxxx><+@########=#xxxxxxxxxxxxxxxxccccxxxxxxxxxxxxxxx#=########@+<>xxxxxxxxxxxxxxxxxxxxxxxxxxxzzzzzz",
"zzzzzzxxxxxxxxxxxxxxxxxxxxxxxxxx3<O@###########xxxxxxxxxxxxxxxccccxxxxxxxxxxxxxx##########@+O<3xxxxxxxxxxxxxxxxxxxxxxxxxxxzzzzzz",
"zzzzzzxxxxxxxxxxxxxxxxxxxxxxxxxxx><+@###########xxxxxxxxxxxxxxccccxxxxxxxxxxxxx###########@+<>xxxxxxxxxxxxxxxxxxxxxxxxxxxxzzzzzz",
"zzzzzzxxxxxxxxxxxxxxxxxxxxxxxxxxxx>1+@###########xxxxxxxxxxxxxccccxxxxxxxxxxxx###########@+1>xxxxxxxxxxxxxxxxxxxxxxxxxxxxxzzzzzz",
"zzzzzzxxxxxxxxxxxxxxxxxxxxxxxxxxxx><O+@#########=#xxxxxxxxxxxxccccxxxxxxxxxxx#=#########@+O<>xxxxxxxxxxxxxxxxxxxxxxxxxxxxxzzzzzz",
"zzzzzzxxxxxxxxxxxxxxxxxxxxxxxxxxxxx><+@@#########=##xxxxxxxxxxccccxxxxxxxxx##=#########@@+<>xxxxxxxxxxxxxxxxxxxxxxxxxxxxxxzzzzzz",
"zzzzzzxxxxxxxxxxxxxxxxxxxxxxxxxxxxxx>1+@@##########=##xxxxxxxxccccxxxxxxx##=##########@@+1>xxxxxxxxxxxxxxxxxxxxxxxxxxxxxxxzzzzzz",
"zzzzzzxxxxxxxxxxxxxxxxxxxxxxxxxxxxxx<,1+@###############xxxxxxccccxxxxx###############@+1,<xxxxxxxxxxxxxxxxxxxxxxxxxxxxxxxzzzzzz",
"zzzzzzxxxxxxxxxxxxxxxxxxxxxxxxxxxxxxx,<O+@@############=####xxccccx####=############@@+O<,xxxxxxxxxxxxxxxxxxxxxxxxxxxxxxxxzzzzzz",
"zzzzzzxxxxxxxxxxxxxxxxxxxxxxxxxxxxxxxx,1O+@@#############===##cccc#===#############@@+O1,xxxxxxxxxxxxxxxxxxxxxxxxxxxxxxxxxzzzzzz",
"zzzzzzxxxxxxxxxxxxxxxxxxxxxxxxxxxxxxxxx,<O+@@#################cccc################@@+O<,xxxxxxxxxxxxxxxxxxxxxxxxxxxxxxxxxxzzzzzz",
"zzzzzzxxxxxxxxxxxxxxxxxxxxxxxxxxxxxxxxxx,<O+@@@###############cccc##############@@@+O<,xxxxxxxxxxxxxxxxxxxxxxxxxxxxxxxxxxxzzzzzz",
"zzzzzzxxxxxxxxxxxxxxxxxxxxxxxxxxxxxxxxxxx,,O+@@###############cccc##############@@+O,,xxxxxxxxxxxxxxxxxxxxxxxxxxxxxxxxxxxxzzzzzz",
"zzzzzzxxxxxxxxxxxxxxxxxxxxxxxxxxxxxxxxxxxxx,OO+@@#############cccc############@@+OO,xxxxxxxxxxxxxxxxxxxxxxxxxxxxxxxxxxxxxxzzzzzz",
"zzzzzzxxxxxxxxxxxxxxxxxxxxxxxxxxxxxxxxxxxxxx<,+++@@@##########cccc#########@@@+++,<xxxxxxxxxxxxxxxxxxxxxxxxxxxxxxxxxxxxxxxzzzzzz",
"zzzzzzxxxxxxxxxxxxxxxxxxxxxxxxxxxxxxxxxxxxxxxxoO++@@@#########cccc########@@@++Ooxxxxxxxxxxxxxxxxxxxxxxxxxxxxxxxxxxxxxxxxxzzzzzz",
"zzzzzzxxxxxxxxxxxxxxxxxxxxxxxxxxxxxxxxxxxxxxxxxO<<1++@@@@@####cccc###@@@@@++1<<Oxxxxxxxxxxxxxxxxxxxxxxxxxxxxxxxxxxxxxxxxxxzzzzzz",
"zzzzzzxxxxxxxxxxxxxxxxxxxxxxxxxxxxxxxxxxxxxxxxxxx12,O+++++@@@@cccc@@@+++++O,21xxxxxxxxxxxxxxxxxxxxxxxxxxxxxxxxxxxxxxxxxxxxzzzzzz",
"zzzzzzxxxxxxxxxxxxxxxxxxxxxxxxxxxxxxxxxxxxxxxxxxxxxx<<<+++++++cccc++++++<<<xxxxxxxxxxxxxxxxxxxxxxxxxxxxxxxxxxxxxxxxxxxxxxxzzzzzz",
"zzzzzzxxxxxxxxxxxxxxxxxxxxxxxxxxxxxxxxxxxxxxxxxxxxxxxxxx1<<<<<cccc<<<<1xxxxxxxxxxxxxxxxxxxxxxxxxxxxxxxxxxxxxxxxxxxxxxxxxxxzzzzzz",
"zzzzzzxxxxxxxxxxxxxxxxxxxxxxxxxxxxxxxxxxxxxxxxxxxxxxxxxxxxxxxxccccxxxxxxxxxxxxxxxxxxxxxxxxxxxxxxxxxxxxxxxxxxxxxxxxxxxxxxxxzzzzzz",
"zzzzzzxxxxxxxxxxxxxxxxxxxxxxxxxxxxxxxxxxxxxxxxxxxxxxxxxxxxxxxxccccxxxxxxxxxxxxxxxxxxxxxxxxxxxxxxxxxxxxxxxxxxxxxxxxxxxxxxxxzzzzzz",
"zzzzzzxxxxxxxxxxxxxxxxxxxxxxxxxxxxxxxxxxxxxxxxxxxxxxxxxxxxxxxxccccxxxxxxxxxxxxxxxxxxxxxxxxxxxxxxxxxxxxxxxxxxxxxxxxxxxxxxxxzzzzzz",
"zzzzzzxxxxxxxxxxxxxxxxxxxxxxxxxxxxxxxxxxxxxxxxxxxxxxxxxxxxxxxxccccxxxxxxxxxxxxxxxxxxxxxxxxxxxxxxxxxxxxxxxxxxxxxxxxxxxxxxxxzzzzzz",
"zzzzzzxxxxxxxxxxxxxxxxxxxxxxxxxxxxxxxxxxxxxxxxxxxxxxxxxxxxxxxxccccxxxxxxxxxxxxxxxxxxxxxxxxxxxxxxxxxxxxxxxxxxxxxxxxxxxxxxxxzzzzzz",
"zzzzzzxxxxxxxxxxxxxxxxxxxxxxxxxxxxxxxxxxxxxxxxxxxxxxxxxxxxxxxxccccxxxxxxxxxxxxxxxxxxxxxxxxxxxxxxxxxxxxxxxxxxxxxxxxxxxxxxxxzzzzzz",
"zzzzzzxxxxxxxxxxxxxxxxxxxxxxxxxxxxxxxxxxxxxxxxxxxxxxxxxxxxxxxxccccxxxxxxxxxxxxxxxxxxxxxxxxxxxxxxxxxxxxxxxxxxxxxxxxxxxxxxxxzzzzzz",
"zzzzzzxxxxxxxxxxxxxxxxxxxxxxxxxxxxxxxxxxxxxxxxxxxxxxxxxxxxxxxxccccxxxxxxxxxxxxxxxxxxxxxxxxxxxxxxxxxxxxxxxxxxxxxxxxxxxxxxxxzzzzzz",
"zzzzzzxxxxxxxxxxxxxxxxxxxxxxxxxxxxxxxxxxxxxxxxxxxxxxxxxxxxxxxxccccxxxxxxxxxxxxxxxxxxxxxxxxxxxxxxxxxxxxxxxxxxxxxxxxxxxxxxxxzzzzzz",
"zzzzzzxxxxxxxxxxxxxxxxxxxxxxxxxxxxxxxxxxxxxxxxxxxxxxxxxxxxxxxxccccxxxxxxxxxxxxxxxxxxxxxxxxxxxxxxxxxxxxxxxxxxxxxxxxxxxxxxxxzzzzzz",
"zzzzzzxxxxxxxxxxxxxxxxxxxxxxxxxxxxxxxxxxxxxxxxxxxxxxxxxxxxxxxxccccxxxxxxxxxxxxxxxxxxxxxxxxxxxxxxxxxxxxxxxxxxxxxxxxxxxxxxxxzzzzzz",
"zzzzzzxxxxxxxxxxxxxxxxxxxxxxxxxxxxxxxxxxxxxxxxxxxxxxxxxxxxxxxxccccxxxxxxxxxxxxxxxxxxxxxxxxxxxxxxxxxxxxxxxxxxxxxxxxxxxxxxxxzzzzzz",
"zzzzzzxxxxxxxxxxxxxxxxxxxxxxxxxxxxxxxxxxxxxxxxxxxxxxxxxxxxxxxxccccxxxxxxxxxxxxxxxxxxxxxxxxxxxxxxxxxxxxxxxxxxxxxxxxxxxxxxxxzzzzzz",
"zzzzzzxxxxxxxxxxxxxxxxxxxxxxxxxxxxxxxxxxxxxxxxxxxxxxxxxxxxxxxxccccxxxxxxxxxxxxxxxxxxxxxxxxxxxxxxxxxxxxxxxxxxxxxxxxxxxxxxxxzzzzzz",
"zzzzzzxxxxxxxxxxxxxxxxxxxxxxxxxxxxxxxxxxxxxxxxxxxxxxxxxxxxxxxxccccxxxxxxxxxxxxxxxxxxxxxxxxxxxxxxxxxxxxxxxxxxxxxxxxxxxxxxxxzzzzzz",
"zzzzzzxxxxxxxxxxxxxxxxxxxxxxxxxxxxxxxxxxxxxxxxxxxxxxxxxxxxxxxxccccxxxxxxxxxxxxxxxxxxxxxxxxxxxxxxxxxxxxxxxxxxxxxxxxxxxxxxxxzzzzzz",
"zzzzzzxxxxxxxxxxxxxxxxxxxxxxxxxxxxxxxxxxxxxxxxxxxxxxxxxxxxxxxxccccxxxxxxxxxxxxxxxxxxxxxxxxxxxxxxxxxxxxxxxxxxxxxxxxxxxxxxxxzzzzzz",
"zzzzzzxxxxxxxxxxxxxxxxxxxxxxxxxxxxxxxxxxxxxxxxxxxxxxxxxxxxxxxxccccxxxxxxxxxxxxxxxxxxxxxxxxxxxxxxxxxxxxxxxxxxxxxxxxxxxxxxxxzzzzzz",
"zzzzzzxxxxxxxxxxxxxxxxxxxxxxxxxxxxxxxxxxxxxxxxxxxxxxxxxxxxxxxxccccxxxxxxxxxxxxxxxxxxxxxxxxxxxxxxxxxxxxxxxxxxxxxxxxxxxxxxxxzzzzzz",
"zzzzzzxxxxxxxxxxxxxxxxxxxxxxxxxxxxxxxxxxxxxxxxxxxxxxxxxxxxxxxxccccxxxxxxxxxxxxxxxxxxxxxxxxxxxxxxxxxxxxxxxxxxxxxxxxxxxxxxxxzzzzzz",
"zzzzzzxxxxxxxxxxxxxxxxxxxxxxxxxxxxxxxxxxxxxxxxxxxxxxxxxxxxxxxxccccxxxxxxxxxxxxxxxxxxxxxxxxxxxxxxxxxxxxxxxxxxxxxxxxxxxxxxxxzzzzzz",
"zzzzzzxxxxxxxxxxxxxxxxxxxxxxxxxxxxxxxxxxxxxxxxxxxxxxxxxxxxxxxxccccxxxxxxxxxxxxxxxxxxxxxxxxxxxxxxxxxxxxxxxxxxxxxxxxxxxxxxxxzzzzzz",
"zzzzzzxxxxxxxxxxxxxxxxxxxxxxxxxxxxxxxxxxxxxxxxxxxxxxxxxxxxxxxxccccxxxxxxxxxxxxxxxxxxxxxxxxxxxxxxxxxxxxxxxxxxxxxxxxxxxxxxxxzzzzzz",
"zzzzzzxxxxxxxxxxxxxxxxxxxxxxxxxxxxxxxxxxxxxxxxxxxxxxxxxxxxxxxxccccxxxxxxxxxxxxxxxxxxxxxxxxxxxxxxxxxxxxxxxxxxxxxxxxxxxxxxxxzzzzzz",
"zzzzzzzzzzzzzzzzzzzzzzzzzzzzzzzzzzzzzzzzzzzzzzzzzzzzzzzzzzzzzzcccczzzzzzzzzzzzzzzzzzzzzzzzzzzzzzzzzzzzzzzzzzzzzzzzzzzzzzzzzzzzzz",
"zzzzzzzzzzzzzzzzzzzzzzzzzzzzzzzzzzzzzzzzzzzzzzzzzzzzzzzzzzzzzzcccczzzzzzzzzzzzzzzzzzzzzzzzzzzzzzzzzzzzzzzzzzzzzzzzzzzzzzzzzzzzzz",
"zzzzzzzzzzzzzzzzzzzzzzzzzzzzzzzzzzzzzzzzzzzzzzzzzzzzzzzzzzzzzzcccczzzzzzzzzzzzzzzzzzzzzzzzzzzzzzzzzzzzzzzzzzzzzzzzzzzzzzzzzzzzzz",
"zzzzzzzzzzzzzzzzzzzzzzzzzzzzzzzzzzzzzzzzzzzzzzzzzzzzzzzzzzzzzzcccczzzzzzzzzzzzzzzzzzzzzzzzzzzzzzzzzzzzzzzzzzzzzzzzzzzzzzzzzzzzzz",
"zzzzzzzzzzzzzzzzzzzzzzzzzzzzzzzzzzzzzzzzzzzzzzzzzzzzzzzzzzzzzzcccczzzzzzzzzzzzzzzzzzzzzzzzzzzzzzzzzzzzzzzzzzzzzzzzzzzzzzzzzzzzzz",
"zzzzzzzzzzzzzzzzzzzzzzzzzzzzzzzzzzzzzzzzzzzzzzzzzzzzzzzzzzzzzzcccczzzzzzzzzzzzzzzzzzzzzzzzzzzzzzzzzzzzzzzzzzzzzzzzzzzzzzzzzzzzzz"
};
