/* XPM */
static char *_1e0ff1711af4186bbf7a09f1db5e972a4MvFSILKBBVDNmI[] = {
/* columns rows colors chars-per-pixel */
"128 128 51 1 ",
"  c #C51F26",
". c #CA1F27",
"X c #CC1F27",
"o c #D21F26",
"O c #D91F26",
"+ c #DF1F26",
"@ c #E31F25",
"# c #E41E25",
"$ c #EC1B23",
"% c #ED1D23",
"& c #EA1B25",
"* c #EE1B24",
"= c #EA1C24",
"- c #EC1C24",
"; c #C52026",
": c #C92026",
"> c #CE2027",
", c #D32027",
"< c #D42027",
"1 c #D82027",
"2 c #D22028",
"3 c #D42028",
"4 c #E72025",
"5 c #E92224",
"6 c #EC2225",
"7 c #EA2525",
"8 c #ED2625",
"9 c #ED2728",
"0 c #EB282A",
"q c #EE2829",
"w c #EB2A2C",
"e c #ED2B2D",
"r c #EE2C2C",
"t c #EB2E31",
"y c #EE2F30",
"u c #EB3031",
"i c #EC3232",
"p c #EB3135",
"a c #EE3336",
"s c #EB3536",
"d c #ED3437",
"f c #ED3639",
"g c #EB383B",
"h c #EE3A3B",
"j c #EE3B3C",
"k c #EC3E3E",
"l c #EE3F40",
"z c #EC4041",
"x c #FB8500",
"c c #FFB703",
"v c #0310FF",
/* pixels */
"xxxxxxxxxxxxxxxxxxxxxxxxxxxxxxxxxxxxxxxxxxxxxxxxxxxxxxxxxxxxxxxxxxxxxxxxxxxxxxxxxxxxxxxxxxxxxxxxxxxxxxxxxxxxxxxxxxxxxxxxxxxxxxxx",
"xxxxxxxxxxxxxxxxxxxxxxxxxxxxxxxxxxxxxxxxxxxxxxxxxxxxxxxxxxxxxxxxxxxxxxxxxxxxxxxxxxxxxxxxxxxxxxxxxxxxxxxxxxxxxxxxxxxxxxxxxxxxxxxx",
"xxxxxxxxxxxxxxxxxxxxxxxxxxxxxxxxxxxxxxxxxxxxxxxxxxxxxxxxxxxxxxxxxxxxxxxxxxxxxxxxxxxxxxxxxxxxxxxxxxxxxxxxxxxxxxxxxxxxxxxxxxxxxxxx",
"xxxxxxxxxxxxxxxxxxxxxxxxxxxxxxxxxxxxxxxxxxxxxxxxxxxxxxxxxxxxxxxxxxxxxxxxxxxxxxxxxxxxxxxxxxxxxxxxxxxxxxxxxxxxxxxxxxxxxxxxxxxxxxxx",
"xxxxxxxxxxxxxxxxxxxxxxxxxxxxxxxxxxxxxxxxxxxxxxxxxxxxxxxxxxxxxxxxxxxxxxxxxxxxxxxxxxxxxxxxxxxxxxxxxxxxxxxxxxxxxxxxxxxxxxxxxxxxxxxx",
"xxxxxxxxxxxxxxxxxxxxxxxxxxxxxxxxxxxxxxxxxxxxxxxxxxxxxxxxxxxxxxxxxxxxxxxxxxxxxxxxxxxxxxxxxxxxxxxxxxxxxxxxxxxxxxxxxxxxxxxxxxxxxxxx",
"xxxxxxccccccccccccccccccccccccccccccccccccccccccccccccccccccccccccccccccccccccccccccccccccccccccccccccccccccccccccccccccccxxxxxx",
"xxxxxxccccccccccccccccccccccccccccccccccccccccccccccccccccccccccccccccccccccccccccccccccccccccccccccccccccccccccccccccccccxxxxxx",
"xxxxxxccccccccccccccccccccccccccccccccccccccccccccccccccccccccccccccccccccccccccccccccccccccccccccccccccccccccccccccccccccxxxxxx",
"xxxxxxccccccccccccccccccccccccccccccccccccccccccccccccccccccccccccccccccccccccccccccccccccccccccccccccccccccccccccccccccccxxxxxx",
"xxxxxxccccccccccccccccccccccccccccccccccccccccccccccccccccccccccccccccccccccccccccccccccccccccccccccccccccccccccccccccccccxxxxxx",
"xxxxxxccccccccccccccccccccccccccccccccccccccccccccccccccccccccccccccccccccccccccccccccccccccccccccccccccccccccccccccccccccxxxxxx",
"xxxxxxccccccccccccccccccccccccccccccccccccccccccccccccccccccccccccccccccccccccccccccccccccccccccccccccccccccccccccccccccccxxxxxx",
"xxxxxxccccccccccccccccccccccccccccccccccccccccccccccccccccccccccccccccccccccccccccccccccccccccccccccccccccccccccccccccccccxxxxxx",
"xxxxxxccccccccccccccccccccccccccccccccccccccccccccccccccccccccccccccccccccccccccccccccccccccccccccccccccccccccccccccccccccxxxxxx",
"xxxxxxccccccccccccccccccccccccccccccccccccccccccccccccccccccccccccccccccccccccccccccccccccccccccccccccccccccccccccccccccccxxxxxx",
"xxxxxxccccccccccccccccccccccccccccccccccccccccccccccccccccccccccccccccccccccccccccccccccccccccccccccccccccccccccccccccccccxxxxxx",
"xxxxxxccccccccccccccccccccccccccccccccccccccccccccccccccccccccccccccccccccccccccccccccccccccccccccccccccccccccccccccccccccxxxxxx",
"xxxxxxccccccccccccccccccccccccccccccccccccccccccccccccccccccccccccccccccccccccccccccccccccccccccccccccccccccccccccccccccccxxxxxx",
"xxxxxxccccccccccccccccccccccccccccccccccccccccccccccccccccccccccccccccccccccccccccccccccccccccccccccccccccccccccccccccccccxxxxxx",
"xxxxxxccccccccccccccccccccccccccccccccccccccccccccccccccccccccccccccccccccccccccccccccccccccccccccccccccccccccccccccccccccxxxxxx",
"xxxxxxccccccccccccccccccccccccccccccccccccccccccccccccccccccccccccccccccccccccccccccccccccccccccccccccccccccccccccccccccccxxxxxx",
"xxxxxxccccccccccccccccccccccccccccccccccccccccccccccccccccccccccccccccccccccccccccccccccccccccccccccccccccccccccccccccccccxxxxxx",
"xxxxxxccccccccccccccccccccccccccccccccccccccccccccccccccccccccccccccccccccccccccccccccccccccccccccccccccccccccccccccccccccxxxxxx",
"xxxxxxccccccccccccccccccccccccccccccccccccccccccccccccccccccccccccccccccccccccccccccccccccccccccccccccccccccccccccccccccccxxxxxx",
"xxxxxxccccccccccccccccccccccccccccccccccccccccccccccccccccccccccccccccccccccccccccccccccccccccccccccccccccccccccccccccccccxxxxxx",
"xxxxxxccccccccccccccccccccccccccccccccccccccccccccccccccccccccccccccccccccccccccccccccccccccccccccccccccccccccccccccccccccxxxxxx",
"xxxxxxccccccccccccccccccccccccccccccccccccccccccccccccccccccccccccccccccccccccccccccccccccccccccccccccccccccccccccccccccccxxxxxx",
"xxxxxxccccccccccccccccccccccccccccccccccccccccccccccccccccccccccccccccccccccccccccccccccccccccccccccccccccccccccccccccccccxxxxxx",
"xxxxxxcccccccccccccccccccccccccccccccccccccccccccccccccc:;;;;;;;;;;;;;:cccccccccccccccccccccccccccccccccccccccccccccccccccxxxxxx",
"xxxxxxcccccccccccccccccccccccccccccccccccccccccccccc:;;>>>>>,,,,,,,>>>>>;;:cccccccccccccccccccccccccccccccccccccccccccccccxxxxxx",
"xxxxxxccccccccccccccccccccccccccccccccccccccccccc>;;:,,<1O++@@@@@@@++O1<,,:;;>ccccccccccccccccccccccccccccccccccccccccccccxxxxxx",
"xxxxxxcccccccccccccccccccccccccccccccccccccccccX;::,<1+@4wpgklzlzlkgpw4@+1<,::;Xccccccccccccccccccccccccccccccccccccccccccxxxxxx",
"xxxxxxcccccccccccccccccccccccccccccccccccccccc :>,1+@0skklkkkkjjjkkkklkks0@+1,>: cccccccccccccccccccccccccccccccccccccccccxxxxxx",
"xxxxxxcccccccccccccccccccccccccccccccccccccc:;>,1@4tjjjhhhfhhhhhhhjhfhhhjjjt4@1,>;:cccccccccccccccccccccccccccccccccccccccxxxxxx",
"xxxxxxccccccccccccccccccccccccccccccccccccc;>,1+4ufddadddddddddddddfdddddaddfu4+1,>;ccccccccccccccccccccccccccccccccccccccxxxxxx",
"xxxxxxccccccccccccccccccccccccccccccccccc:;><O#0iiyyiiiiiiiiiiiiiiiiiiiiiiiyyii0#O<>;:ccccccccccccccccccccccccccccccccccccxxxxxx",
"xxxxxxcccccccccccccccccccccccccccccccccc::><+4weerrrrrrrrrrrrrrrrrrrrrrrrrrrrreew4+<>::cccccccccccccccccccccccccccccccccccxxxxxx",
"xxxxxxccccccccccccccccccccccccccccccccc;:,1@5089qqqqqqqqqqqqqqqqqqqqqqqqqqqqqqq9805@1,:;ccccccccccccccccccccccccccccccccccxxxxxx",
"xxxxxxcccccccccccccccccccccccccccccccc:>,O@57888888888889qqq8888888qqq88888888888875@O,>;cccccccccccccccccccccccccccccccccxxxxxx",
"xxxxxxccccccccccccccccccccccccccccccc;>,+#=66666666666696666ccccccc66669666666666666=#O,>:ccccccccccccccccccccccccccccccccxxxxxx",
"xxxxxxcccccccccccccccccccccccccccccc>:,+#==----------6%-ccccccccccccccc-%6----------==#+,:>cccccccccccccccccccccccccccccccxxxxxx",
"xxxxxxcccccccccccccccccccccccccccccc;,O@==--------66--ccccccccccccccccccc6666--------==@O,;cccccccccccccccccccccccccccccccxxxxxx",
"xxxxxxccccccccccccccccccccccccccccc;>1@==-----------ccccccccccccccccccccccc*----------==@1>;ccccccccccccccccccccccccccccccxxxxxx",
"xxxxxxcccccccccccccccccccccccccccc:><+#=----------ccccccccccccccccccccccccccc----------=#+<>:cccccccccccccccccccccccccccccxxxxxx",
"xxxxxxcccccccccccccccccccccccccccc;,+#=---------*ccccccccccccccccccccccccccccc*---------=#+,;cccccccccccccccccccccccccccccxxxxxx",
"xxxxxxccccccccccccccccccccccccccc;,O@==---------ccccccccccccccccccccccccccccccc---------==@O,;ccccccccccccccccccccccccccccxxxxxx",
"xxxxxxcccccccccccccccccccccccccc2><+#=---------ccccccccccccccccccccccccccccccccc---------=#+<>2cccccccccccccccccccccccccccxxxxxx",
"xxxxxxcccccccccccccccccccccccccc:,O#==--------ccccccccccccccccccccccccccccccccccc--------==#O,:cccccccccccccccccccccccccccxxxxxx",
"xxxxxxccccccccccccccccccccccccc,:<+#=--------ccccccccccccccccccccccccccccccccccccc--------=#+<:,ccccccccccccccccccccccccccxxxxxx",
"xxxxxxccccccccccccccccccccccccc:>O#==-------ccccccccccccccccccccccccccccccccccccccc-------==#O>:ccccccccccccccccccccccccccxxxxxx",
"xxxxxxccccccccccccccccccccccccc;<+#==------*ccccccccccccccccccccccccccccccccccccccc*------==#+<;ccccccccccccccccccccccccccxxxxxx",
"xxxxxxcccccccccccccccccccccccc.>1@===-----$ccccccccccccccccccccccccccccccccccccccccc$-----===@1>.cccccccccccccccccccccccccxxxxxx",
"xxxxxxcccccccccccccccccccccccc.<+#==-------ccccccccccccccccccccccccccccccccccccccccc-------==#+< cccccccccccccccccccccccccxxxxxx",
"xxxxxxcccccccccccccccccccccccc:<+#==-----*ccccccccccccccccccccccccccccccccccccccccccc*-----==#+<:cccccccccccccccccccccccccxxxxxx",
"xxxxxxcccccccccccccccccccccccc,1@#======-=ccccccccccccccccccccccccccccccccccccccccccc=-======#@1,cccccccccccccccccccccccccxxxxxx",
"xxxxxxccccccccccccccccccccccc:,O@======--ccccccccccccccccccccccccccccccccccccccccccccc--======@O,:ccccccccccccccccccccccccxxxxxx",
"xxxxxxccccccccccccccccccccccc.,+#======-=ccccccccccccccccccccccccccccccccccccccccccccc=-======#+,.ccccccccccccccccccccccccxxxxxx",
"xxxxxxccccccccccccccccccccccc:<+#======-&ccccccccccccccccccccccccccccccccccccccccccccc&-======#+<:ccccccccccccccccccccccccxxxxxx",
"xxxxxxccccccccccccccccccccccc:<+#======-=ccccccccccccccccccccccccccccccccccccccccccccc=-======#+<:ccccccccccccccccccccccccxxxxxx",
"xxxxxxccccccccccccccccccccccc:<@#=======ccccccccccccccccccccccccccccccccccccccccccccccc=======#@<:ccccccccccccccccccccccccxxxxxx",
"xxxxxxccccccccccccccccccccccc:<@#=======ccccccccccccccccccccccccccccccccccccccccccccccc=======#@<:ccccccccccccccccccccccccxxxxxx",
"vvvvvvvvvvvvvvvvvvvvvvvvvvvvvvvvvvvvvvvvvvvvvvvvvvvvvvvvvvvvvvvvvvvvvvvvvvvvvvvvvvvvvvvvvvvvvvvvvvvvvvvvvvvvvvvvvvvvvvvvvvvvvvvv",
"vvvvvvvvvvvvvvvvvvvvvvvvvvvvvvvvvvvvvvvvvvvvvvvvvvvvvvvvvvvvvvvvvvvvvvvvvvvvvvvvvvvvvvvvvvvvvvvvvvvvvvvvvvvvvvvvvvvvvvvvvvvvvvvv",
"vvvvvvvvvvvvvvvvvvvvvvvvvvvvvvvvvvvvvvvvvvvvvvvvvvvvvvvvvvvvvvvvvvvvvvvvvvvvvvvvvvvvvvvvvvvvvvvvvvvvvvvvvvvvvvvvvvvvvvvvvvvvvvvv",
"vvvvvvvvvvvvvvvvvvvvvvvvvvvvvvvvvvvvvvvvvvvvvvvvvvvvvvvvvvvvvvvvvvvvvvvvvvvvvvvvvvvvvvvvvvvvvvvvvvvvvvvvvvvvvvvvvvvvvvvvvvvvvvvv",
"xxxxxxccccccccccccccccccccccc:<+##======ccccccccccccccccccccccccccccccccccccccccccccccc======##+<:ccccccccccccccccccccccccxxxxxx",
"xxxxxxccccccccccccccccccccccc:<+##=======ccccccccccccccccccccccccccccccccccccccccccccc=======##+<:ccccccccccccccccccccccccxxxxxx",
"xxxxxxccccccccccccccccccccccc:<+@#=====-=ccccccccccccccccccccccccccccccccccccccccccccc=-=====#@+<:ccccccccccccccccccccccccxxxxxx",
"xxxxxxccccccccccccccccccccccc.<+@#======#ccccccccccccccccccccccccccccccccccccccccccccc#======#@+<.ccccccccccccccccccccccccxxxxxx",
"xxxxxxccccccccccccccccccccccc><+@#==##===ccccccccccccccccccccccccccccccccccccccccccccc=======#@+<>ccccccccccccccccccccccccxxxxxx",
"xxxxxxcccccccccccccccccccccccc<1+#####==-=ccccccccccccccccccccccccccccccccccccccccccc#-#######+1<cccccccccccccccccccccccccxxxxxx",
"xxxxxxcccccccccccccccccccccccc><+#####===#ccccccccccccccccccccccccccccccccccccccccccc#==##==##+<>cccccccccccccccccccccccccxxxxxx",
"xxxxxxcccccccccccccccccccccccc:1+@####==#==ccccccccccccccccccccccccccccccccccccccccc====##=##@+1:cccccccccccccccccccccccccxxxxxx",
"xxxxxxccccccccccccccccccccccccX,O@#######=#ccccccccccccccccccccccccccccccccccccccccc#=#######@O,Xcccccccccccccccccccccccccxxxxxx",
"xxxxxxccccccccccccccccccccccccc:<+@#######=#ccccccccccccccccccccccccccccccccccccccc#=#######@+<:ccccccccccccccccccccccccccxxxxxx",
"xxxxxxccccccccccccccccccccccccc:,+@#######=#ccccccccccccccccccccccccccccccccccccccc#=#######@+,:ccccccccccccccccccccccccccxxxxxx",
"xxxxxxccccccccccccccccccccccccc,>1+@#######=#ccccccccccccccccccccccccccccccccccccc#=#######@+1>,ccccccccccccccccccccccccccxxxxxx",
"xxxxxxcccccccccccccccccccccccccc><+@########=#ccccccccccccccccccccccccccccccccccc#=########@+<>cccccccccccccccccccccccccccxxxxxx",
"xxxxxxcccccccccccccccccccccccccc3<O@###########ccccccccccccccccccccccccccccccccc##########@+O<3cccccccccccccccccccccccccccxxxxxx",
"xxxxxxccccccccccccccccccccccccccc><+@###########ccccccccccccccccccccccccccccccc###########@+<>ccccccccccccccccccccccccccccxxxxxx",
"xxxxxxcccccccccccccccccccccccccccc>1+@###########ccccccccccccccccccccccccccccc###########@+1>cccccccccccccccccccccccccccccxxxxxx",
"xxxxxxcccccccccccccccccccccccccccc><O+@#########=#ccccccccccccccccccccccccccc#=#########@+O<>cccccccccccccccccccccccccccccxxxxxx",
"xxxxxxccccccccccccccccccccccccccccc><+@@#########=##ccccccccccccccccccccccc##=#########@@+<>ccccccccccccccccccccccccccccccxxxxxx",
"xxxxxxcccccccccccccccccccccccccccccc>1+@@##########=##ccccccccccccccccccc##=##########@@+1>cccccccccccccccccccccccccccccccxxxxxx",
"xxxxxxcccccccccccccccccccccccccccccc<,1+@###############ccccccccccccccc###############@+1,<cccccccccccccccccccccccccccccccxxxxxx",
"xxxxxxccccccccccccccccccccccccccccccc,<O+@@############=####ccccccc####=############@@+O<,ccccccccccccccccccccccccccccccccxxxxxx",
"xxxxxxcccccccccccccccccccccccccccccccc,1O+@@#############===#######===#############@@+O1,cccccccccccccccccccccccccccccccccxxxxxx",
"xxxxxxccccccccccccccccccccccccccccccccc,<O+@@#####################################@@+O<,ccccccccccccccccccccccccccccccccccxxxxxx",
"xxxxxxcccccccccccccccccccccccccccccccccc,<O+@@@#################################@@@+O<,cccccccccccccccccccccccccccccccccccxxxxxx",
"xxxxxxccccccccccccccccccccccccccccccccccc,,O+@@#################################@@+O,,ccccccccccccccccccccccccccccccccccccxxxxxx",
"xxxxxxccccccccccccccccccccccccccccccccccccc,OO+@@#############################@@+OO,ccccccccccccccccccccccccccccccccccccccxxxxxx",
"xxxxxxcccccccccccccccccccccccccccccccccccccc<,+++@@@#######################@@@+++,<cccccccccccccccccccccccccccccccccccccccxxxxxx",
"xxxxxxccccccccccccccccccccccccccccccccccccccccoO+O@@@#####################@@@++Oocccccccccccccccccccccccccccccccccccccccccxxxxxx",
"xxxxxxcccccccccccccccccccccccccccccccccccccccccO<<1++@@@@@###########@@@@+++1<<Occccccccccccccccccccccccccccccccccccccccccxxxxxx",
"xxxxxxccccccccccccccccccccccccccccccccccccccccccc12,O+++++@@@@@@@@@@@+++++O,21ccccccccccccccccccccccccccccccccccccccccccccxxxxxx",
"xxxxxxcccccccccccccccccccccccccccccccccccccccccccccc<<<+++++++++++++++++<<<cccccccccccccccccccccccccccccccccccccccccccccccxxxxxx",
"xxxxxxcccccccccccccccccccccccccccccccccccccccccccccccccc1<<<<<111<<<<<1cccccccccccccccccccccccccccccccccccccccccccccccccccxxxxxx",
"xxxxxxccccccccccccccccccccccccccccccccccccccccccccccccccccccccccccccccccccccccccccccccccccccccccccccccccccccccccccccccccccxxxxxx",
"xxxxxxccccccccccccccccccccccccccccccccccccccccccccccccccccccccccccccccccccccccccccccccccccccccccccccccccccccccccccccccccccxxxxxx",
"xxxxxxccccccccccccccccccccccccccccccccccccccccccccccccccccccccccccccccccccccccccccccccccccccccccccccccccccccccccccccccccccxxxxxx",
"xxxxxxccccccccccccccccccccccccccccccccccccccccccccccccccccccccccccccccccccccccccccccccccccccccccccccccccccccccccccccccccccxxxxxx",
"xxxxxxccccccccccccccccccccccccccccccccccccccccccccccccccccccccccccccccccccccccccccccccccccccccccccccccccccccccccccccccccccxxxxxx",
"xxxxxxccccccccccccccccccccccccccccccccccccccccccccccccccccccccccccccccccccccccccccccccccccccccccccccccccccccccccccccccccccxxxxxx",
"xxxxxxccccccccccccccccccccccccccccccccccccccccccccccccccccccccccccccccccccccccccccccccccccccccccccccccccccccccccccccccccccxxxxxx",
"xxxxxxccccccccccccccccccccccccccccccccccccccccccccccccccccccccccccccccccccccccccccccccccccccccccccccccccccccccccccccccccccxxxxxx",
"xxxxxxccccccccccccccccccccccccccccccccccccccccccccccccccccccccccccccccccccccccccccccccccccccccccccccccccccccccccccccccccccxxxxxx",
"xxxxxxccccccccccccccccccccccccccccccccccccccccccccccccccccccccccccccccccccccccccccccccccccccccccccccccccccccccccccccccccccxxxxxx",
"xxxxxxccccccccccccccccccccccccccccccccccccccccccccccccccccccccccccccccccccccccccccccccccccccccccccccccccccccccccccccccccccxxxxxx",
"xxxxxxccccccccccccccccccccccccccccccccccccccccccccccccccccccccccccccccccccccccccccccccccccccccccccccccccccccccccccccccccccxxxxxx",
"xxxxxxccccccccccccccccccccccccccccccccccccccccccccccccccccccccccccccccccccccccccccccccccccccccccccccccccccccccccccccccccccxxxxxx",
"xxxxxxccccccccccccccccccccccccccccccccccccccccccccccccccccccccccccccccccccccccccccccccccccccccccccccccccccccccccccccccccccxxxxxx",
"xxxxxxccccccccccccccccccccccccccccccccccccccccccccccccccccccccccccccccccccccccccccccccccccccccccccccccccccccccccccccccccccxxxxxx",
"xxxxxxccccccccccccccccccccccccccccccccccccccccccccccccccccccccccccccccccccccccccccccccccccccccccccccccccccccccccccccccccccxxxxxx",
"xxxxxxccccccccccccccccccccccccccccccccccccccccccccccccccccccccccccccccccccccccccccccccccccccccccccccccccccccccccccccccccccxxxxxx",
"xxxxxxccccccccccccccccccccccccccccccccccccccccccccccccccccccccccccccccccccccccccccccccccccccccccccccccccccccccccccccccccccxxxxxx",
"xxxxxxccccccccccccccccccccccccccccccccccccccccccccccccccccccccccccccccccccccccccccccccccccccccccccccccccccccccccccccccccccxxxxxx",
"xxxxxxccccccccccccccccccccccccccccccccccccccccccccccccccccccccccccccccccccccccccccccccccccccccccccccccccccccccccccccccccccxxxxxx",
"xxxxxxccccccccccccccccccccccccccccccccccccccccccccccccccccccccccccccccccccccccccccccccccccccccccccccccccccccccccccccccccccxxxxxx",
"xxxxxxccccccccccccccccccccccccccccccccccccccccccccccccccccccccccccccccccccccccccccccccccccccccccccccccccccccccccccccccccccxxxxxx",
"xxxxxxccccccccccccccccccccccccccccccccccccccccccccccccccccccccccccccccccccccccccccccccccccccccccccccccccccccccccccccccccccxxxxxx",
"xxxxxxccccccccccccccccccccccccccccccccccccccccccccccccccccccccccccccccccccccccccccccccccccccccccccccccccccccccccccccccccccxxxxxx",
"xxxxxxxxxxxxxxxxxxxxxxxxxxxxxxxxxxxxxxxxxxxxxxxxxxxxxxxxxxxxxxxxxxxxxxxxxxxxxxxxxxxxxxxxxxxxxxxxxxxxxxxxxxxxxxxxxxxxxxxxxxxxxxxx",
"xxxxxxxxxxxxxxxxxxxxxxxxxxxxxxxxxxxxxxxxxxxxxxxxxxxxxxxxxxxxxxxxxxxxxxxxxxxxxxxxxxxxxxxxxxxxxxxxxxxxxxxxxxxxxxxxxxxxxxxxxxxxxxxx",
"xxxxxxxxxxxxxxxxxxxxxxxxxxxxxxxxxxxxxxxxxxxxxxxxxxxxxxxxxxxxxxxxxxxxxxxxxxxxxxxxxxxxxxxxxxxxxxxxxxxxxxxxxxxxxxxxxxxxxxxxxxxxxxxx",
"xxxxxxxxxxxxxxxxxxxxxxxxxxxxxxxxxxxxxxxxxxxxxxxxxxxxxxxxxxxxxxxxxxxxxxxxxxxxxxxxxxxxxxxxxxxxxxxxxxxxxxxxxxxxxxxxxxxxxxxxxxxxxxxx",
"xxxxxxxxxxxxxxxxxxxxxxxxxxxxxxxxxxxxxxxxxxxxxxxxxxxxxxxxxxxxxxxxxxxxxxxxxxxxxxxxxxxxxxxxxxxxxxxxxxxxxxxxxxxxxxxxxxxxxxxxxxxxxxxx",
"xxxxxxxxxxxxxxxxxxxxxxxxxxxxxxxxxxxxxxxxxxxxxxxxxxxxxxxxxxxxxxxxxxxxxxxxxxxxxxxxxxxxxxxxxxxxxxxxxxxxxxxxxxxxxxxxxxxxxxxxxxxxxxxx"
};
