/* XPM */
static char *_684d3032dee4986c63eeb6929232ebazYuaIA3oSyeePsXP[] = {
/* columns rows colors chars-per-pixel */
"128 128 51 1 ",
"  c #C51F26",
". c #CA1F27",
"X c #CC1F27",
"o c #D21F26",
"O c #D91F26",
"+ c #DF1F26",
"@ c #E31F25",
"# c #E41E25",
"$ c #EC1B23",
"% c #ED1D23",
"& c #EA1B25",
"* c #EC1B24",
"= c #EA1C24",
"- c #EC1C24",
"; c #C52026",
": c #C92026",
"> c #CE2027",
", c #D32027",
"< c #D42027",
"1 c #D82027",
"2 c #D22028",
"3 c #D42028",
"4 c #E72025",
"5 c #E92224",
"6 c #EC2024",
"7 c #EA2525",
"8 c #ED2625",
"9 c #ED2728",
"0 c #EB282A",
"q c #EE2829",
"w c #EB2A2C",
"e c #ED2B2D",
"r c #EE2C2C",
"t c #EB2E31",
"y c #EE2F30",
"u c #EB3031",
"i c #EC3232",
"p c #EB3135",
"a c #EE3336",
"s c #EB3536",
"d c #ED3437",
"f c #ED3639",
"g c #EB383B",
"h c #EE3A3B",
"j c #EE3B3C",
"k c #EC3E3E",
"l c #EE3F40",
"z c #EC4041",
"x c #FB8500",
"c c #FFB703",
"v c #0310FF",
/* pixels */
"vvvvxxxxxxxxxxxxxxxxxxxxxxxxxxxxxxxxxxxxxxxxxxxxxxxxxxxxxxxxxxxxxxxxxxxxxxxxxxxxxxxxxxxxxxxxxxxxxxxxxxxxxxxxxxxxxxxxxxxxxxxxxxxx",
"vvvvvxxxxxxxxxxxxxxxxxxxxxxxxxxxxxxxxxxxxxxxxxxxxxxxxxxxxxxxxxxxxxxxxxxxxxxxxxxxxxxxxxxxxxxxxxxxxxxxxxxxxxxxxxxxxxxxxxxxxxxxxxxx",
"vvvvvvxxxxxxxxxxxxxxxxxxxxxxxxxxxxxxxxxxxxxxxxxxxxxxxxxxxxxxxxxxxxxxxxxxxxxxxxxxxxxxxxxxxxxxxxxxxxxxxxxxxxxxxxxxxxxxxxxxxxxxxxxx",
"vvvvvvvxxxxxxxxxxxxxxxxxxxxxxxxxxxxxxxxxxxxxxxxxxxxxxxxxxxxxxxxxxxxxxxxxxxxxxxxxxxxxxxxxxxxxxxxxxxxxxxxxxxxxxxxxxxxxxxxxxxxxxxxx",
"xvvvvvvvxxxxxxxxxxxxxxxxxxxxxxxxxxxxxxxxxxxxxxxxxxxxxxxxxxxxxxxxxxxxxxxxxxxxxxxxxxxxxxxxxxxxxxxxxxxxxxxxxxxxxxxxxxxxxxxxxxxxxxxx",
"xxvvvvvvvxxxxxxxxxxxxxxxxxxxxxxxxxxxxxxxxxxxxxxxxxxxxxxxxxxxxxxxxxxxxxxxxxxxxxxxxxxxxxxxxxxxxxxxxxxxxxxxxxxxxxxxxxxxxxxxxxxxxxxx",
"xxxvvvvvvvccccccccccccccccccccccccccccccccccccccccccccccccccccccccccccccccccccccccccccccccccccccccccccccccccccccccccccccccxxxxxx",
"xxxxvvvvvvvcccccccccccccccccccccccccccccccccccccccccccccccccccccccccccccccccccccccccccccccccccccccccccccccccccccccccccccccxxxxxx",
"xxxxxvvvvvvvccccccccccccccccccccccccccccccccccccccccccccccccccccccccccccccccccccccccccccccccccccccccccccccccccccccccccccccxxxxxx",
"xxxxxxvvvvvvvcccccccccccccccccccccccccccccccccccccccccccccccccccccccccccccccccccccccccccccccccccccccccccccccccccccccccccccxxxxxx",
"xxxxxxcvvvvvvvccccccccccccccccccccccccccccccccccccccccccccccccccccccccccccccccccccccccccccccccccccccccccccccccccccccccccccxxxxxx",
"xxxxxxccvvvvvvvcccccccccccccccccccccccccccccccccccccccccccccccccccccccccccccccccccccccccccccccccccccccccccccccccccccccccccxxxxxx",
"xxxxxxcccvvvvvvvccccccccccccccccccccccccccccccccccccccccccccccccccccccccccccccccccccccccccccccccccccccccccccccccccccccccccxxxxxx",
"xxxxxxccccvvvvvvvcccccccccccccccccccccccccccccccccccccccccccccccccccccccccccccccccccccccccccccccccccccccccccccccccccccccccxxxxxx",
"xxxxxxcccccvvvvvvvccccccccccccccccccccccccccccccccccccccccccccccccccccccccccccccccccccccccccccccccccccccccccccccccccccccccxxxxxx",
"xxxxxxccccccvvvvvvvcccccccccccccccccccccccccccccccccccccccccccccccccccccccccccccccccccccccccccccccccccccccccccccccccccccccxxxxxx",
"xxxxxxcccccccvvvvvvvccccccccccccccccccccccccccccccccccccccccccccccccccccccccccccccccccccccccccccccccccccccccccccccccccccccxxxxxx",
"xxxxxxccccccccvvvvvvvcccccccccccccccccccccccccccccccccccccccccccccccccccccccccccccccccccccccccccccccccccccccccccccccccccccxxxxxx",
"xxxxxxcccccccccvvvvvvvccccccccccccccccccccccccccccccccccccccccccccccccccccccccccccccccccccccccccccccccccccccccccccccccccccxxxxxx",
"xxxxxxccccccccccvvvvvvvcccccccccccccccccccccccccccccccccccccccccccccccccccccccccccccccccccccccccccccccccccccccccccccccccccxxxxxx",
"xxxxxxcccccccccccvvvvvvvccccccccccccccccccccccccccccccccccccccccccccccccccccccccccccccccccccccccccccccccccccccccccccccccccxxxxxx",
"xxxxxxccccccccccccvvvvvvvcccccccccccccccccccccccccccccccccccccccccccccccccccccccccccccccccccccccccccccccccccccccccccccccccxxxxxx",
"xxxxxxcccccccccccccvvvvvvvccccccccccccccccccccccccccccccccccccccccccccccccccccccccccccccccccccccccccccccccccccccccccccccccxxxxxx",
"xxxxxxccccccccccccccvvvvvvvcccccccccccccccccccccccccccccccccccccccccccccccccccccccccccccccccccccccccccccccccccccccccccccccxxxxxx",
"xxxxxxcccccccccccccccvvvvvvvccccccccccccccccccccccccccccccccccccccccccccccccccccccccccccccccccccccccccccccccccccccccccccccxxxxxx",
"xxxxxxccccccccccccccccvvvvvvvcccccccccccccccccccccccccccccccccccccccccccccccccccccccccccccccccccccccccccccccccccccccccccccxxxxxx",
"xxxxxxcccccccccccccccccvvvvvvvccccccccccccccccccccccccccccccccccccccccccccccccccccccccccccccccccccccccccccccccccccccccccccxxxxxx",
"xxxxxxccccccccccccccccccvvvvvvvcccccccccccccccccccccccccccccccccccccccccccccccccccccccccccccccccccccccccccccccccccccccccccxxxxxx",
"xxxxxxcccccccccccccccccccvvvvvvvccccccccccccccccccccccccccccccccccccccccccccccccccccccccccccccccccccccccccccccccccccccccccxxxxxx",
"xxxxxxccccccccccccccccccccvvvvvvvccccccccccccccccccccccc:;;;;;;;;;;;;;:cccccccccccccccccccccccccccccccccccccccccccccccccccxxxxxx",
"xxxxxxcccccccccccccccccccccvvvvvvvcccccccccccccccccc:;;>>>>>,,,,,,,>>>>>;;:cccccccccccccccccccccccccccccccccccccccccccccccxxxxxx",
"xxxxxxccccccccccccccccccccccvvvvvvvcccccccccccccc>;;:,,<1O++@@@@@@@++O1<,,:;;>ccccccccccccccccccccccccccccccccccccccccccccxxxxxx",
"xxxxxxcccccccccccccccccccccccvvvvvvvcccccccccccX;::,<1+@4wpgklzlzlkgpw4@+1<,::;Xccccccccccccccccccccccccccccccccccccccccccxxxxxx",
"xxxxxxccccccccccccccccccccccccvvvvvvvccccccccc :>,1+@0skklkkkkjjjkkkklkks0@+1,>: cccccccccccccccccccccccccccccccccccccccccxxxxxx",
"xxxxxxcccccccccccccccccccccccccvvvvvvvcccccc:;>,1@4tjjjhhhfhhhhhhhjhfhhhjjjt4@1,>;:cccccccccccccccccccccccccccccccccccccccxxxxxx",
"xxxxxxccccccccccccccccccccccccccvvvvvvvcccc;>,1+4ufddadddddddddddddfdddddaddfu4+1,>;ccccccccccccccccccccccccccccccccccccccxxxxxx",
"xxxxxxcccccccccccccccccccccccccccvvvvvvvc:;><O#0iiyyiiiiiiiiiiiiiiiiiiiiiiiyyii0#O<>;:ccccccccccccccccccccccccccccccccccccxxxxxx",
"xxxxxxccccccccccccccccccccccccccccvvvvvvv:><+4weerrrrrrrrrrrrrrrrrrrrrrrrrrrrreew4+<>::cccccccccccccccccccccccccccccccccccxxxxxx",
"xxxxxxcccccccccccccccccccccccccccccvvvvvvv1@5089qqqqqqqqqqqqqqqqqqqqqqqqqqqqqqq9805@1,:;ccccccccccccccccccccccccccccccccccxxxxxx",
"xxxxxxccccccccccccccccccccccccccccccvvvvvvv57888888888889qqq8888888qqq88888888888875@O,>;cccccccccccccccccccccccccccccccccxxxxxx",
"xxxxxxcccccccccccccccccccccccccccccccvvvvvvv6666666666696666ccccccc66669866666666666=#O,>:ccccccccccccccccccccccccccccccccxxxxxx",
"xxxxxxcccccccccccccccccccccccccccccc>:vvvvvvv--------6%-ccccccccccccccc-%66---------==#+,:>cccccccccccccccccccccccccccccccxxxxxx",
"xxxxxxcccccccccccccccccccccccccccccc;,Ovvvvvvv----66--ccccccccccccccccccc6666--------==@O,;cccccccccccccccccccccccccccccccxxxxxx",
"xxxxxxccccccccccccccccccccccccccccc;>1@=vvvvvvv-----ccccccccccccccccccccccc-----------==@1>;ccccccccccccccccccccccccccccccxxxxxx",
"xxxxxxcccccccccccccccccccccccccccc:><+#=-vvvvvvv--ccccccccccccccccccccccccccc----------=#+<>:cccccccccccccccccccccccccccccxxxxxx",
"xxxxxxcccccccccccccccccccccccccccc;,+#=---vvvvvvvccccccccccccccccccccccccccccc*---------=#+,;cccccccccccccccccccccccccccccxxxxxx",
"xxxxxxccccccccccccccccccccccccccc;,O@==----vvvvvvvccccccccccccccccccccccccccccc---------==@O,;ccccccccccccccccccccccccccccxxxxxx",
"xxxxxxcccccccccccccccccccccccccc2><+#=------vvvvvvvccccccccccccccccccccccccccccc---------=#+<>2cccccccccccccccccccccccccccxxxxxx",
"xxxxxxcccccccccccccccccccccccccc:,O#==-------vvvvvvvccccccccccccccccccccccccccccc--------==#O,:cccccccccccccccccccccccccccxxxxxx",
"xxxxxxccccccccccccccccccccccccc,:<+#=--------cvvvvvvvccccccccccccccccccccccccccccc--------=#+<:,ccccccccccccccccccccccccccxxxxxx",
"xxxxxxccccccccccccccccccccccccc:>O#==-------cccvvvvvvvccccccccccccccccccccccccccccc-------==#O>:ccccccccccccccccccccccccccxxxxxx",
"xxxxxxccccccccccccccccccccccccc;<+#==------*ccccvvvvvvvcccccccccccccccccccccccccccc*------==#+<;ccccccccccccccccccccccccccxxxxxx",
"xxxxxxcccccccccccccccccccccccc.>1@===-----$ccccccvvvvvvvcccccccccccccccccccccccccccc$-----===@1>.cccccccccccccccccccccccccxxxxxx",
"xxxxxxcccccccccccccccccccccccc.<+#==-------cccccccvvvvvvvccccccccccccccccccccccccccc-------==#+< cccccccccccccccccccccccccxxxxxx",
"xxxxxxcccccccccccccccccccccccc:<+#==-----*cccccccccvvvvvvvccccccccccccccccccccccccccc*-----==#+<:cccccccccccccccccccccccccxxxxxx",
"xxxxxxcccccccccccccccccccccccc,1@#======-=ccccccccccvvvvvvvcccccccccccccccccccccccccc=-======#@1,cccccccccccccccccccccccccxxxxxx",
"xxxxxxccccccccccccccccccccccc:,O@======--ccccccccccccvvvvvvvcccccccccccccccccccccccccc--======@O,:ccccccccccccccccccccccccxxxxxx",
"xxxxxxccccccccccccccccccccccc.,+#======-=cccccccccccccvvvvvvvccccccccccccccccccccccccc=-======#+,.ccccccccccccccccccccccccxxxxxx",
"xxxxxxccccccccccccccccccccccc:<+#======-&ccccccccccccccvvvvvvvcccccccccccccccccccccccc&-======#+<:ccccccccccccccccccccccccxxxxxx",
"xxxxxxccccccccccccccccccccccc:<+#======-=cccccccccccccccvvvvvvvccccccccccccccccccccccc=-======#+<:ccccccccccccccccccccccccxxxxxx",
"xxxxxxccccccccccccccccccccccc:<@#=======cccccccccccccccccvvvvvvvccccccccccccccccccccccc=======#@<:ccccccccccccccccccccccccxxxxxx",
"xxxxxxccccccccccccccccccccccc:<@#=======ccccccccccccccccccvvvvvvvcccccccccccccccccccccc=======#@<:ccccccccccccccccccccccccxxxxxx",
"xxxxxxccccccccccccccccccccccc>1@#=======cccccccccccccccccccvvvvvvvccccccccccccccccccccc=======#@1>ccccccccccccccccccccccccxxxxxx",
"xxxxxxccccccccccccccccccccccc>1@#=======ccccccccccccccccccccvvvvvvvcccccccccccccccccccc=======#@1>ccccccccccccccccccccccccxxxxxx",
"xxxxxxccccccccccccccccccccccc>1@#=======cccccccccccccccccccccvvvvvvvccccccccccccccccccc=======#@1>ccccccccccccccccccccccccxxxxxx",
"xxxxxxccccccccccccccccccccccc>1+#=======ccccccccccccccccccccccvvvvvvvcccccccccccccccccc=======#+1>ccccccccccccccccccccccccxxxxxx",
"xxxxxxccccccccccccccccccccccc:<+##======cccccccccccccccccccccccvvvvvvvccccccccccccccccc======##+<:ccccccccccccccccccccccccxxxxxx",
"xxxxxxccccccccccccccccccccccc:<+##=======cccccccccccccccccccccccvvvvvvvccccccccccccccc=======##+<:ccccccccccccccccccccccccxxxxxx",
"xxxxxxccccccccccccccccccccccc:<+@#=====-=ccccccccccccccccccccccccvvvvvvvcccccccccccccc=-=====#@+<:ccccccccccccccccccccccccxxxxxx",
"xxxxxxccccccccccccccccccccccc.<+@#======#cccccccccccccccccccccccccvvvvvvvccccccccccccc#======#@+<.ccccccccccccccccccccccccxxxxxx",
"xxxxxxccccccccccccccccccccccc><+@#==##===ccccccccccccccccccccccccccvvvvvvvcccccccccccc=======#@+<>ccccccccccccccccccccccccxxxxxx",
"xxxxxxcccccccccccccccccccccccc<1+#####==-=ccccccccccccccccccccccccccvvvvvvvcccccccccc#-#######+1<cccccccccccccccccccccccccxxxxxx",
"xxxxxxcccccccccccccccccccccccc><+#####===#cccccccccccccccccccccccccccvvvvvvvccccccccc#==##==##+<>cccccccccccccccccccccccccxxxxxx",
"xxxxxxcccccccccccccccccccccccc:1+@####==#==cccccccccccccccccccccccccccvvvvvvvccccccc====##=##@+1:cccccccccccccccccccccccccxxxxxx",
"xxxxxxccccccccccccccccccccccccX,O@#######=#ccccccccccccccccccccccccccccvvvvvvvcccccc#=#######@O,Xcccccccccccccccccccccccccxxxxxx",
"xxxxxxccccccccccccccccccccccccc:<+@#######=#ccccccccccccccccccccccccccccvvvvvvvcccc#=#######@+<:ccccccccccccccccccccccccccxxxxxx",
"xxxxxxccccccccccccccccccccccccc:,+@#######=#cccccccccccccccccccccccccccccvvvvvvvccc#=#######@+,:ccccccccccccccccccccccccccxxxxxx",
"xxxxxxccccccccccccccccccccccccc,>1+@#######=#cccccccccccccccccccccccccccccvvvvvvvc#=#######@+1>,ccccccccccccccccccccccccccxxxxxx",
"xxxxxxcccccccccccccccccccccccccc><+@########=#cccccccccccccccccccccccccccccvvvvvvv=########@+<>cccccccccccccccccccccccccccxxxxxx",
"xxxxxxcccccccccccccccccccccccccc3<O@###########cccccccccccccccccccccccccccccvvvvvvv#######@+O<3cccccccccccccccccccccccccccxxxxxx",
"xxxxxxccccccccccccccccccccccccccc><+@###########cccccccccccccccccccccccccccccvvvvvvv######@+<>ccccccccccccccccccccccccccccxxxxxx",
"xxxxxxcccccccccccccccccccccccccccc>1+@###########cccccccccccccccccccccccccccccvvvvvvv####@+1>cccccccccccccccccccccccccccccxxxxxx",
"xxxxxxcccccccccccccccccccccccccccc><O+@#########=#ccccccccccccccccccccccccccc#=vvvvvvv##@+O<>cccccccccccccccccccccccccccccxxxxxx",
"xxxxxxccccccccccccccccccccccccccccc><+@@#########=##ccccccccccccccccccccccc##=##vvvvvvv@@+<>ccccccccccccccccccccccccccccccxxxxxx",
"xxxxxxcccccccccccccccccccccccccccccc>1+@@##########=##ccccccccccccccccccc##=#####vvvvvvv+1>cccccccccccccccccccccccccccccccxxxxxx",
"xxxxxxcccccccccccccccccccccccccccccc<,1+@###############ccccccccccccccc###########vvvvvvv,<cccccccccccccccccccccccccccccccxxxxxx",
"xxxxxxccccccccccccccccccccccccccccccc,<O+@@############=####ccccccc####=###########vvvvvvvccccccccccccccccccccccccccccccccxxxxxx",
"xxxxxxcccccccccccccccccccccccccccccccc,1O+@@#############===#######===#############@vvvvvvvcccccccccccccccccccccccccccccccxxxxxx",
"xxxxxxccccccccccccccccccccccccccccccccc,<O+@@#####################################@@+vvvvvvvccccccccccccccccccccccccccccccxxxxxx",
"xxxxxxcccccccccccccccccccccccccccccccccc,<O+@@@#################################@@@+O<vvvvvvvcccccccccccccccccccccccccccccxxxxxx",
"xxxxxxccccccccccccccccccccccccccccccccccc,,O+@@#################################@@+O,,cvvvvvvvccccccccccccccccccccccccccccxxxxxx",
"xxxxxxccccccccccccccccccccccccccccccccccccc,OO+@@#############################@@+OO,ccccvvvvvvvcccccccccccccccccccccccccccxxxxxx",
"xxxxxxcccccccccccccccccccccccccccccccccccccc<,+++@@@#######################@@@+++,<ccccccvvvvvvvccccccccccccccccccccccccccxxxxxx",
"xxxxxxccccccccccccccccccccccccccccccccccccccccoO+O@@@#####################@@@++Oocccccccccvvvvvvvcccccccccccccccccccccccccxxxxxx",
"xxxxxxcccccccccccccccccccccccccccccccccccccccccO<<1++@@@@@###########@@@@+++1<<Occcccccccccvvvvvvvccccccccccccccccccccccccxxxxxx",
"xxxxxxccccccccccccccccccccccccccccccccccccccccccc12,O+++++@@@@@@@@@@@+++++O,21ccccccccccccccvvvvvvvcccccccccccccccccccccccxxxxxx",
"xxxxxxcccccccccccccccccccccccccccccccccccccccccccccc<<<+++++++++++++++++<<<ccccccccccccccccccvvvvvvvccccccccccccccccccccccxxxxxx",
"xxxxxxcccccccccccccccccccccccccccccccccccccccccccccccccc1<<<<<111<<<<<1cccccccccccccccccccccccvvvvvvvcccccccccccccccccccccxxxxxx",
"xxxxxxcccccccccccccccccccccccccccccccccccccccccccccccccccccccccccccccccccccccccccccccccccccccccvvvvvvvccccccccccccccccccccxxxxxx",
"xxxxxxccccccccccccccccccccccccccccccccccccccccccccccccccccccccccccccccccccccccccccccccccccccccccvvvvvvvcccccccccccccccccccxxxxxx",
"xxxxxxcccccccccccccccccccccccccccccccccccccccccccccccccccccccccccccccccccccccccccccccccccccccccccvvvvvvvccccccccccccccccccxxxxxx",
"xxxxxxccccccccccccccccccccccccccccccccccccccccccccccccccccccccccccccccccccccccccccccccccccccccccccvvvvvvvcccccccccccccccccxxxxxx",
"xxxxxxcccccccccccccccccccccccccccccccccccccccccccccccccccccccccccccccccccccccccccccccccccccccccccccvvvvvvvccccccccccccccccxxxxxx",
"xxxxxxccccccccccccccccccccccccccccccccccccccccccccccccccccccccccccccccccccccccccccccccccccccccccccccvvvvvvvcccccccccccccccxxxxxx",
"xxxxxxcccccccccccccccccccccccccccccccccccccccccccccccccccccccccccccccccccccccccccccccccccccccccccccccvvvvvvvccccccccccccccxxxxxx",
"xxxxxxccccccccccccccccccccccccccccccccccccccccccccccccccccccccccccccccccccccccccccccccccccccccccccccccvvvvvvvcccccccccccccxxxxxx",
"xxxxxxcccccccccccccccccccccccccccccccccccccccccccccccccccccccccccccccccccccccccccccccccccccccccccccccccvvvvvvvccccccccccccxxxxxx",
"xxxxxxccccccccccccccccccccccccccccccccccccccccccccccccccccccccccccccccccccccccccccccccccccccccccccccccccvvvvvvvcccccccccccxxxxxx",
"xxxxxxcccccccccccccccccccccccccccccccccccccccccccccccccccccccccccccccccccccccccccccccccccccccccccccccccccvvvvvvvccccccccccxxxxxx",
"xxxxxxccccccccccccccccccccccccccccccccccccccccccccccccccccccccccccccccccccccccccccccccccccccccccccccccccccvvvvvvvcccccccccxxxxxx",
"xxxxxxcccccccccccccccccccccccccccccccccccccccccccccccccccccccccccccccccccccccccccccccccccccccccccccccccccccvvvvvvvccccccccxxxxxx",
"xxxxxxccccccccccccccccccccccccccccccccccccccccccccccccccccccccccccccccccccccccccccccccccccccccccccccccccccccvvvvvvvcccccccxxxxxx",
"xxxxxxcccccccccccccccccccccccccccccccccccccccccccccccccccccccccccccccccccccccccccccccccccccccccccccccccccccccvvvvvvvccccccxxxxxx",
"xxxxxxccccccccccccccccccccccccccccccccccccccccccccccccccccccccccccccccccccccccccccccccccccccccccccccccccccccccvvvvvvvcccccxxxxxx",
"xxxxxxcccccccccccccccccccccccccccccccccccccccccccccccccccccccccccccccccccccccccccccccccccccccccccccccccccccccccvvvvvvvccccxxxxxx",
"xxxxxxccccccccccccccccccccccccccccccccccccccccccccccccccccccccccccccccccccccccccccccccccccccccccccccccccccccccccvvvvvvvcccxxxxxx",
"xxxxxxcccccccccccccccccccccccccccccccccccccccccccccccccccccccccccccccccccccccccccccccccccccccccccccccccccccccccccvvvvvvvccxxxxxx",
"xxxxxxccccccccccccccccccccccccccccccccccccccccccccccccccccccccccccccccccccccccccccccccccccccccccccccccccccccccccccvvvvvvvcxxxxxx",
"xxxxxxcccccccccccccccccccccccccccccccccccccccccccccccccccccccccccccccccccccccccccccccccccccccccccccccccccccccccccccvvvvvvvxxxxxx",
"xxxxxxccccccccccccccccccccccccccccccccccccccccccccccccccccccccccccccccccccccccccccccccccccccccccccccccccccccccccccccvvvvvvvxxxxx",
"xxxxxxcccccccccccccccccccccccccccccccccccccccccccccccccccccccccccccccccccccccccccccccccccccccccccccccccccccccccccccccvvvvvvvxxxx",
"xxxxxxccccccccccccccccccccccccccccccccccccccccccccccccccccccccccccccccccccccccccccccccccccccccccccccccccccccccccccccccvvvvvvvxxx",
"xxxxxxxxxxxxxxxxxxxxxxxxxxxxxxxxxxxxxxxxxxxxxxxxxxxxxxxxxxxxxxxxxxxxxxxxxxxxxxxxxxxxxxxxxxxxxxxxxxxxxxxxxxxxxxxxxxxxxxxvvvvvvvxx",
"xxxxxxxxxxxxxxxxxxxxxxxxxxxxxxxxxxxxxxxxxxxxxxxxxxxxxxxxxxxxxxxxxxxxxxxxxxxxxxxxxxxxxxxxxxxxxxxxxxxxxxxxxxxxxxxxxxxxxxxxvvvvvvvx",
"xxxxxxxxxxxxxxxxxxxxxxxxxxxxxxxxxxxxxxxxxxxxxxxxxxxxxxxxxxxxxxxxxxxxxxxxxxxxxxxxxxxxxxxxxxxxxxxxxxxxxxxxxxxxxxxxxxxxxxxxxvvvvvvv",
"xxxxxxxxxxxxxxxxxxxxxxxxxxxxxxxxxxxxxxxxxxxxxxxxxxxxxxxxxxxxxxxxxxxxxxxxxxxxxxxxxxxxxxxxxxxxxxxxxxxxxxxxxxxxxxxxxxxxxxxxxxvvvvvv",
"xxxxxxxxxxxxxxxxxxxxxxxxxxxxxxxxxxxxxxxxxxxxxxxxxxxxxxxxxxxxxxxxxxxxxxxxxxxxxxxxxxxxxxxxxxxxxxxxxxxxxxxxxxxxxxxxxxxxxxxxxxxvvvvv",
"xxxxxxxxxxxxxxxxxxxxxxxxxxxxxxxxxxxxxxxxxxxxxxxxxxxxxxxxxxxxxxxxxxxxxxxxxxxxxxxxxxxxxxxxxxxxxxxxxxxxxxxxxxxxxxxxxxxxxxxxxxxxvvvv"
};
