/* XPM */
static char *_2cdaa0b37324ffcf84234caaea50b9e5Cm9Pzyk9NWh6GSR[] = {
/* columns rows colors chars-per-pixel */
"128 128 51 1 ",
"  c #C51F26",
". c #CA1F27",
"X c #CC1F27",
"o c #D21F26",
"O c #D91F26",
"+ c #DF1F26",
"@ c #E31F25",
"# c #E41E25",
"$ c #EC1B23",
"% c #ED1D23",
"& c #EA1B25",
"* c #EE1B24",
"= c #EA1C24",
"- c #EC1C24",
"; c #C52026",
": c #C92026",
"> c #CE2027",
", c #D32027",
"< c #D42027",
"1 c #D82027",
"2 c #D22028",
"3 c #D42028",
"4 c #E72025",
"5 c #E92224",
"6 c #EC2225",
"7 c #EA2525",
"8 c #ED2625",
"9 c #ED2728",
"0 c #EB282A",
"q c #EE2829",
"w c #EB2A2C",
"e c #ED2B2D",
"r c #EE2C2C",
"t c #EB2E31",
"y c #EE2F30",
"u c #EB3031",
"i c #EC3232",
"p c #EB3135",
"a c #EE3336",
"s c #EB3536",
"d c #ED3437",
"f c #ED3639",
"g c #EB383B",
"h c #EE3A3B",
"j c #EE3B3C",
"k c #EC3E3E",
"l c #EE3F40",
"z c #EC4041",
"x c #FB8500",
"c c #FFB703",
"v c #0310FF",
/* pixels */
"xxxxxxxxxxxxxxxxxxxxxxxxxxxxxxxxxxxxxxxxxxxxxxxxxxxxxxxxxxxxxxxxxxxxxxxxxxxxxxxxxxxxxxxxxxxxxxxxxxxxxxxxxxxxxxxxxxxxxxxxxxxxvvvv",
"xxxxxxxxxxxxxxxxxxxxxxxxxxxxxxxxxxxxxxxxxxxxxxxxxxxxxxxxxxxxxxxxxxxxxxxxxxxxxxxxxxxxxxxxxxxxxxxxxxxxxxxxxxxxxxxxxxxxxxxxxxxvvvvv",
"xxxxxxxxxxxxxxxxxxxxxxxxxxxxxxxxxxxxxxxxxxxxxxxxxxxxxxxxxxxxxxxxxxxxxxxxxxxxxxxxxxxxxxxxxxxxxxxxxxxxxxxxxxxxxxxxxxxxxxxxxxvvvvvv",
"xxxxxxxxxxxxxxxxxxxxxxxxxxxxxxxxxxxxxxxxxxxxxxxxxxxxxxxxxxxxxxxxxxxxxxxxxxxxxxxxxxxxxxxxxxxxxxxxxxxxxxxxxxxxxxxxxxxxxxxxxvvvvvvv",
"xxxxxxxxxxxxxxxxxxxxxxxxxxxxxxxxxxxxxxxxxxxxxxxxxxxxxxxxxxxxxxxxxxxxxxxxxxxxxxxxxxxxxxxxxxxxxxxxxxxxxxxxxxxxxxxxxxxxxxxxvvvvvvvx",
"xxxxxxxxxxxxxxxxxxxxxxxxxxxxxxxxxxxxxxxxxxxxxxxxxxxxxxxxxxxxxxxxxxxxxxxxxxxxxxxxxxxxxxxxxxxxxxxxxxxxxxxxxxxxxxxxxxxxxxxvvvvvvvxx",
"xxxxxxccccccccccccccccccccccccccccccccccccccccccccccccccccccccccccccccccccccccccccccccccccccccccccccccccccccccccccccccvvvvvvvxxx",
"xxxxxxcccccccccccccccccccccccccccccccccccccccccccccccccccccccccccccccccccccccccccccccccccccccccccccccccccccccccccccccvvvvvvvxxxx",
"xxxxxxccccccccccccccccccccccccccccccccccccccccccccccccccccccccccccccccccccccccccccccccccccccccccccccccccccccccccccccvvvvvvvxxxxx",
"xxxxxxcccccccccccccccccccccccccccccccccccccccccccccccccccccccccccccccccccccccccccccccccccccccccccccccccccccccccccccvvvvvvvxxxxxx",
"xxxxxxccccccccccccccccccccccccccccccccccccccccccccccccccccccccccccccccccccccccccccccccccccccccccccccccccccccccccccvvvvvvvcxxxxxx",
"xxxxxxcccccccccccccccccccccccccccccccccccccccccccccccccccccccccccccccccccccccccccccccccccccccccccccccccccccccccccvvvvvvvccxxxxxx",
"xxxxxxccccccccccccccccccccccccccccccccccccccccccccccccccccccccccccccccccccccccccccccccccccccccccccccccccccccccccvvvvvvvcccxxxxxx",
"xxxxxxcccccccccccccccccccccccccccccccccccccccccccccccccccccccccccccccccccccccccccccccccccccccccccccccccccccccccvvvvvvvccccxxxxxx",
"xxxxxxccccccccccccccccccccccccccccccccccccccccccccccccccccccccccccccccccccccccccccccccccccccccccccccccccccccccvvvvvvvcccccxxxxxx",
"xxxxxxcccccccccccccccccccccccccccccccccccccccccccccccccccccccccccccccccccccccccccccccccccccccccccccccccccccccvvvvvvvccccccxxxxxx",
"xxxxxxccccccccccccccccccccccccccccccccccccccccccccccccccccccccccccccccccccccccccccccccccccccccccccccccccccccvvvvvvvcccccccxxxxxx",
"xxxxxxcccccccccccccccccccccccccccccccccccccccccccccccccccccccccccccccccccccccccccccccccccccccccccccccccccccvvvvvvvccccccccxxxxxx",
"xxxxxxccccccccccccccccccccccccccccccccccccccccccccccccccccccccccccccccccccccccccccccccccccccccccccccccccccvvvvvvvcccccccccxxxxxx",
"xxxxxxcccccccccccccccccccccccccccccccccccccccccccccccccccccccccccccccccccccccccccccccccccccccccccccccccccvvvvvvvccccccccccxxxxxx",
"xxxxxxccccccccccccccccccccccccccccccccccccccccccccccccccccccccccccccccccccccccccccccccccccccccccccccccccvvvvvvvcccccccccccxxxxxx",
"xxxxxxcccccccccccccccccccccccccccccccccccccccccccccccccccccccccccccccccccccccccccccccccccccccccccccccccvvvvvvvccccccccccccxxxxxx",
"xxxxxxccccccccccccccccccccccccccccccccccccccccccccccccccccccccccccccccccccccccccccccccccccccccccccccccvvvvvvvcccccccccccccxxxxxx",
"xxxxxxcccccccccccccccccccccccccccccccccccccccccccccccccccccccccccccccccccccccccccccccccccccccccccccccvvvvvvvccccccccccccccxxxxxx",
"xxxxxxccccccccccccccccccccccccccccccccccccccccccccccccccccccccccccccccccccccccccccccccccccccccccccccvvvvvvvcccccccccccccccxxxxxx",
"xxxxxxcccccccccccccccccccccccccccccccccccccccccccccccccccccccccccccccccccccccccccccccccccccccccccccvvvvvvvccccccccccccccccxxxxxx",
"xxxxxxccccccccccccccccccccccccccccccccccccccccccccccccccccccccccccccccccccccccccccccccccccccccccccvvvvvvvcccccccccccccccccxxxxxx",
"xxxxxxcccccccccccccccccccccccccccccccccccccccccccccccccccccccccccccccccccccccccccccccccccccccccccvvvvvvvccccccccccccccccccxxxxxx",
"xxxxxxccccccccccccccccccccccccccccccccccccccccccccccccccccccccccccccccccccccccccccccccccccccccccvvvvvvvcccccccccccccccccccxxxxxx",
"xxxxxxcccccccccccccccccccccccccccccccccccccccccccccccccc:;;;;;;;;;;;;;:ccccccccccccccccccccccccvvvvvvvccccccccccccccccccccxxxxxx",
"xxxxxxcccccccccccccccccccccccccccccccccccccccccccccc:;;>>>>>,,,,,,,>>>>>;;:cccccccccccccccccccvvvvvvvcccccccccccccccccccccxxxxxx",
"xxxxxxccccccccccccccccccccccccccccccccccccccccccc>;;:,,<1O++@@@@@@@++O1<,,:;;>cccccccccccccccvvvvvvvccccccccccccccccccccccxxxxxx",
"xxxxxxcccccccccccccccccccccccccccccccccccccccccX;::,<1+@4wpgklzlzlkgpw4@+1<,::;Xccccccccccccvvvvvvvcccccccccccccccccccccccxxxxxx",
"xxxxxxcccccccccccccccccccccccccccccccccccccccc :>,1+@0skklkkkkjjjkkkklkks0@+1,>: ccccccccccvvvvvvvccccccccccccccccccccccccxxxxxx",
"xxxxxxcccccccccccccccccccccccccccccccccccccc:;>,1@4tjjjhhhfhhhhhhhjhfhhhjjjt4@1,>;:cccccccvvvvvvvcccccccccccccccccccccccccxxxxxx",
"xxxxxxccccccccccccccccccccccccccccccccccccc;>,1+4ufddadddddddddddddfdddddaddfu4+1,>;cccccvvvvvvvccccccccccccccccccccccccccxxxxxx",
"xxxxxxccccccccccccccccccccccccccccccccccc:;><O#0iiyyiiiiiiiiiiiiiiiiiiiiiiiyyii0#O<>;:ccvvvvvvvcccccccccccccccccccccccccccxxxxxx",
"xxxxxxcccccccccccccccccccccccccccccccccc::><+4weerrrrrrrrrrrrrrrrrrrrrrrrrrrrreew4+<>::vvvvvvvccccccccccccccccccccccccccccxxxxxx",
"xxxxxxccccccccccccccccccccccccccccccccc;:,1@5089qqqqqqqqqqqqqqqqqqqqqqqqqqqqqqq9805@1,vvvvvvvcccccccccccccccccccccccccccccxxxxxx",
"xxxxxxcccccccccccccccccccccccccccccccc:>,O@57888888888889qqq8888888qqq88888888888875@vvvvvvvccccccccccccccccccccccccccccccxxxxxx",
"xxxxxxccccccccccccccccccccccccccccccc;>,+#=66666666666696666ccccccc66669666666666666vvvvvvvcccccccccccccccccccccccccccccccxxxxxx",
"xxxxxxcccccccccccccccccccccccccccccc>:,+#==----------6%-ccccccccccccccc-%6---------vvvvvvv>cccccccccccccccccccccccccccccccxxxxxx",
"xxxxxxcccccccccccccccccccccccccccccc;,O@==--------66--ccccccccccccccccccc6666-----vvvvvvv,;cccccccccccccccccccccccccccccccxxxxxx",
"xxxxxxccccccccccccccccccccccccccccc;>1@==-----------ccccccccccccccccccccccc*-----vvvvvvv@1>;ccccccccccccccccccccccccccccccxxxxxx",
"xxxxxxcccccccccccccccccccccccccccc:><+#=----------ccccccccccccccccccccccccccc---vvvvvvv=#+<>:cccccccccccccccccccccccccccccxxxxxx",
"xxxxxxcccccccccccccccccccccccccccc;,+#=---------*ccccccccccccccccccccccccccccc*vvvvvvv--=#+,;cccccccccccccccccccccccccccccxxxxxx",
"xxxxxxccccccccccccccccccccccccccc;,O@==---------ccccccccccccccccccccccccccccccvvvvvvv---==@O,;ccccccccccccccccccccccccccccxxxxxx",
"xxxxxxcccccccccccccccccccccccccc2><+#=---------ccccccccccccccccccccccccccccccvvvvvvv-----=#+<>2cccccccccccccccccccccccccccxxxxxx",
"xxxxxxcccccccccccccccccccccccccc:,O#==--------ccccccccccccccccccccccccccccccvvvvvvv------==#O,:cccccccccccccccccccccccccccxxxxxx",
"xxxxxxccccccccccccccccccccccccc,:<+#=--------ccccccccccccccccccccccccccccccvvvvvvv--------=#+<:,ccccccccccccccccccccccccccxxxxxx",
"xxxxxxccccccccccccccccccccccccc:>O#==-------ccccccccccccccccccccccccccccccvvvvvvvcc-------==#O>:ccccccccccccccccccccccccccxxxxxx",
"xxxxxxccccccccccccccccccccccccc;<+#==------*cccccccccccccccccccccccccccccvvvvvvvccc*------==#+<;ccccccccccccccccccccccccccxxxxxx",
"xxxxxxcccccccccccccccccccccccc.>1@===-----$cccccccccccccccccccccccccccccvvvvvvvccccc$-----===@1>.cccccccccccccccccccccccccxxxxxx",
"xxxxxxcccccccccccccccccccccccc.<+#==-------ccccccccccccccccccccccccccccvvvvvvvcccccc-------==#+< cccccccccccccccccccccccccxxxxxx",
"xxxxxxcccccccccccccccccccccccc:<+#==-----*ccccccccccccccccccccccccccccvvvvvvvcccccccc*-----==#+<:cccccccccccccccccccccccccxxxxxx",
"xxxxxxcccccccccccccccccccccccc,1@#======-=cccccccccccccccccccccccccccvvvvvvvccccccccc=-======#@1,cccccccccccccccccccccccccxxxxxx",
"xxxxxxccccccccccccccccccccccc:,O@======--cccccccccccccccccccccccccccvvvvvvvccccccccccc--======@O,:ccccccccccccccccccccccccxxxxxx",
"xxxxxxccccccccccccccccccccccc.,+#======-=ccccccccccccccccccccccccccvvvvvvvcccccccccccc=-======#+,.ccccccccccccccccccccccccxxxxxx",
"xxxxxxccccccccccccccccccccccc:<+#======-&cccccccccccccccccccccccccvvvvvvvccccccccccccc&-======#+<:ccccccccccccccccccccccccxxxxxx",
"xxxxxxccccccccccccccccccccccc:<+#======-=ccccccccccccccccccccccccvvvvvvvcccccccccccccc=-======#+<:ccccccccccccccccccccccccxxxxxx",
"xxxxxxccccccccccccccccccccccc:<@#=======ccccccccccccccccccccccccvvvvvvvcccccccccccccccc=======#@<:ccccccccccccccccccccccccxxxxxx",
"xxxxxxccccccccccccccccccccccc:<@#=======cccccccccccccccccccccccvvvvvvvccccccccccccccccc=======#@<:ccccccccccccccccccccccccxxxxxx",
"xxxxxxccccccccccccccccccccccc>1@#=======ccccccccccccccccccccccvvvvvvvcccccccccccccccccc=======#@1>ccccccccccccccccccccccccxxxxxx",
"xxxxxxccccccccccccccccccccccc>1@#=======cccccccccccccccccccccvvvvvvvccccccccccccccccccc=======#@1>ccccccccccccccccccccccccxxxxxx",
"xxxxxxccccccccccccccccccccccc>1@#=======ccccccccccccccccccccvvvvvvvcccccccccccccccccccc=======#@1>ccccccccccccccccccccccccxxxxxx",
"xxxxxxccccccccccccccccccccccc>1+#=======cccccccccccccccccccvvvvvvvccccccccccccccccccccc=======#+1>ccccccccccccccccccccccccxxxxxx",
"xxxxxxccccccccccccccccccccccc:<+##======ccccccccccccccccccvvvvvvvcccccccccccccccccccccc======##+<:ccccccccccccccccccccccccxxxxxx",
"xxxxxxccccccccccccccccccccccc:<+##=======ccccccccccccccccvvvvvvvcccccccccccccccccccccc=======##+<:ccccccccccccccccccccccccxxxxxx",
"xxxxxxccccccccccccccccccccccc:<+@#=====-=cccccccccccccccvvvvvvvccccccccccccccccccccccc=-=====#@+<:ccccccccccccccccccccccccxxxxxx",
"xxxxxxccccccccccccccccccccccc.<+@#======#ccccccccccccccvvvvvvvcccccccccccccccccccccccc#======#@+<.ccccccccccccccccccccccccxxxxxx",
"xxxxxxccccccccccccccccccccccc><+@#==##===cccccccccccccvvvvvvvccccccccccccccccccccccccc=======#@+<>ccccccccccccccccccccccccxxxxxx",
"xxxxxxcccccccccccccccccccccccc<1+#####==-=cccccccccccvvvvvvvccccccccccccccccccccccccc#-#######+1<cccccccccccccccccccccccccxxxxxx",
"xxxxxxcccccccccccccccccccccccc><+#####===#ccccccccccvvvvvvvcccccccccccccccccccccccccc#==##==##+<>cccccccccccccccccccccccccxxxxxx",
"xxxxxxcccccccccccccccccccccccc:1+@####==#==ccccccccvvvvvvvcccccccccccccccccccccccccc====##=##@+1:cccccccccccccccccccccccccxxxxxx",
"xxxxxxccccccccccccccccccccccccX,O@#######=#cccccccvvvvvvvccccccccccccccccccccccccccc#=#######@O,Xcccccccccccccccccccccccccxxxxxx",
"xxxxxxccccccccccccccccccccccccc:<+@#######=#cccccvvvvvvvccccccccccccccccccccccccccc#=#######@+<:ccccccccccccccccccccccccccxxxxxx",
"xxxxxxccccccccccccccccccccccccc:,+@#######=#ccccvvvvvvvcccccccccccccccccccccccccccc#=#######@+,:ccccccccccccccccccccccccccxxxxxx",
"xxxxxxccccccccccccccccccccccccc,>1+@#######=#ccvvvvvvvcccccccccccccccccccccccccccc#=#######@+1>,ccccccccccccccccccccccccccxxxxxx",
"xxxxxxcccccccccccccccccccccccccc><+@########=#vvvvvvvcccccccccccccccccccccccccccc#=########@+<>cccccccccccccccccccccccccccxxxxxx",
"xxxxxxcccccccccccccccccccccccccc3<O@#########vvvvvvvcccccccccccccccccccccccccccc##########@+O<3cccccccccccccccccccccccccccxxxxxx",
"xxxxxxccccccccccccccccccccccccccc><+@#######vvvvvvvcccccccccccccccccccccccccccc###########@+<>ccccccccccccccccccccccccccccxxxxxx",
"xxxxxxcccccccccccccccccccccccccccc>1+@#####vvvvvvvcccccccccccccccccccccccccccc###########@+1>cccccccccccccccccccccccccccccxxxxxx",
"xxxxxxcccccccccccccccccccccccccccc><O+@###vvvvvvv#ccccccccccccccccccccccccccc#=#########@+O<>cccccccccccccccccccccccccccccxxxxxx",
"xxxxxxccccccccccccccccccccccccccccc><+@@#vvvvvvv#=##ccccccccccccccccccccccc##=#########@@+<>ccccccccccccccccccccccccccccccxxxxxx",
"xxxxxxcccccccccccccccccccccccccccccc>1+@vvvvvvv####=##ccccccccccccccccccc##=##########@@+1>cccccccccccccccccccccccccccccccxxxxxx",
"xxxxxxcccccccccccccccccccccccccccccc<,1vvvvvvv##########ccccccccccccccc###############@+1,<cccccccccccccccccccccccccccccccxxxxxx",
"xxxxxxccccccccccccccccccccccccccccccc,vvvvvvv##########=####ccccccc####=############@@+O<,ccccccccccccccccccccccccccccccccxxxxxx",
"xxxxxxcccccccccccccccccccccccccccccccvvvvvvv#############===#######===#############@@+O1,cccccccccccccccccccccccccccccccccxxxxxx",
"xxxxxxccccccccccccccccccccccccccccccvvvvvvv@@#####################################@@+O<,ccccccccccccccccccccccccccccccccccxxxxxx",
"xxxxxxcccccccccccccccccccccccccccccvvvvvvvO+@@@#################################@@@+O<,cccccccccccccccccccccccccccccccccccxxxxxx",
"xxxxxxccccccccccccccccccccccccccccvvvvvvv,,O+@@#################################@@+O,,ccccccccccccccccccccccccccccccccccccxxxxxx",
"xxxxxxcccccccccccccccccccccccccccvvvvvvvccc,OO+@@#############################@@+OO,ccccccccccccccccccccccccccccccccccccccxxxxxx",
"xxxxxxccccccccccccccccccccccccccvvvvvvvccccc<,+++@@@#######################@@@+++,<cccccccccccccccccccccccccccccccccccccccxxxxxx",
"xxxxxxcccccccccccccccccccccccccvvvvvvvccccccccoO+O@@@#####################@@@++Oocccccccccccccccccccccccccccccccccccccccccxxxxxx",
"xxxxxxccccccccccccccccccccccccvvvvvvvccccccccccO<<1++@@@@@###########@@@@+++1<<Occccccccccccccccccccccccccccccccccccccccccxxxxxx",
"xxxxxxcccccccccccccccccccccccvvvvvvvccccccccccccc12,O+++++@@@@@@@@@@@+++++O,21ccccccccccccccccccccccccccccccccccccccccccccxxxxxx",
"xxxxxxccccccccccccccccccccccvvvvvvvccccccccccccccccc<<<+++++++++++++++++<<<cccccccccccccccccccccccccccccccccccccccccccccccxxxxxx",
"xxxxxxcccccccccccccccccccccvvvvvvvcccccccccccccccccccccc1<<<<<111<<<<<1cccccccccccccccccccccccccccccccccccccccccccccccccccxxxxxx",
"xxxxxxccccccccccccccccccccvvvvvvvcccccccccccccccccccccccccccccccccccccccccccccccccccccccccccccccccccccccccccccccccccccccccxxxxxx",
"xxxxxxcccccccccccccccccccvvvvvvvccccccccccccccccccccccccccccccccccccccccccccccccccccccccccccccccccccccccccccccccccccccccccxxxxxx",
"xxxxxxccccccccccccccccccvvvvvvvcccccccccccccccccccccccccccccccccccccccccccccccccccccccccccccccccccccccccccccccccccccccccccxxxxxx",
"xxxxxxcccccccccccccccccvvvvvvvccccccccccccccccccccccccccccccccccccccccccccccccccccccccccccccccccccccccccccccccccccccccccccxxxxxx",
"xxxxxxccccccccccccccccvvvvvvvcccccccccccccccccccccccccccccccccccccccccccccccccccccccccccccccccccccccccccccccccccccccccccccxxxxxx",
"xxxxxxcccccccccccccccvvvvvvvccccccccccccccccccccccccccccccccccccccccccccccccccccccccccccccccccccccccccccccccccccccccccccccxxxxxx",
"xxxxxxccccccccccccccvvvvvvvcccccccccccccccccccccccccccccccccccccccccccccccccccccccccccccccccccccccccccccccccccccccccccccccxxxxxx",
"xxxxxxcccccccccccccvvvvvvvccccccccccccccccccccccccccccccccccccccccccccccccccccccccccccccccccccccccccccccccccccccccccccccccxxxxxx",
"xxxxxxccccccccccccvvvvvvvcccccccccccccccccccccccccccccccccccccccccccccccccccccccccccccccccccccccccccccccccccccccccccccccccxxxxxx",
"xxxxxxcccccccccccvvvvvvvccccccccccccccccccccccccccccccccccccccccccccccccccccccccccccccccccccccccccccccccccccccccccccccccccxxxxxx",
"xxxxxxccccccccccvvvvvvvcccccccccccccccccccccccccccccccccccccccccccccccccccccccccccccccccccccccccccccccccccccccccccccccccccxxxxxx",
"xxxxxxcccccccccvvvvvvvccccccccccccccccccccccccccccccccccccccccccccccccccccccccccccccccccccccccccccccccccccccccccccccccccccxxxxxx",
"xxxxxxccccccccvvvvvvvcccccccccccccccccccccccccccccccccccccccccccccccccccccccccccccccccccccccccccccccccccccccccccccccccccccxxxxxx",
"xxxxxxcccccccvvvvvvvccccccccccccccccccccccccccccccccccccccccccccccccccccccccccccccccccccccccccccccccccccccccccccccccccccccxxxxxx",
"xxxxxxccccccvvvvvvvcccccccccccccccccccccccccccccccccccccccccccccccccccccccccccccccccccccccccccccccccccccccccccccccccccccccxxxxxx",
"xxxxxxcccccvvvvvvvccccccccccccccccccccccccccccccccccccccccccccccccccccccccccccccccccccccccccccccccccccccccccccccccccccccccxxxxxx",
"xxxxxxccccvvvvvvvcccccccccccccccccccccccccccccccccccccccccccccccccccccccccccccccccccccccccccccccccccccccccccccccccccccccccxxxxxx",
"xxxxxxcccvvvvvvvccccccccccccccccccccccccccccccccccccccccccccccccccccccccccccccccccccccccccccccccccccccccccccccccccccccccccxxxxxx",
"xxxxxxccvvvvvvvcccccccccccccccccccccccccccccccccccccccccccccccccccccccccccccccccccccccccccccccccccccccccccccccccccccccccccxxxxxx",
"xxxxxxcvvvvvvvccccccccccccccccccccccccccccccccccccccccccccccccccccccccccccccccccccccccccccccccccccccccccccccccccccccccccccxxxxxx",
"xxxxxxvvvvvvvcccccccccccccccccccccccccccccccccccccccccccccccccccccccccccccccccccccccccccccccccccccccccccccccccccccccccccccxxxxxx",
"xxxxxvvvvvvvccccccccccccccccccccccccccccccccccccccccccccccccccccccccccccccccccccccccccccccccccccccccccccccccccccccccccccccxxxxxx",
"xxxxvvvvvvvcccccccccccccccccccccccccccccccccccccccccccccccccccccccccccccccccccccccccccccccccccccccccccccccccccccccccccccccxxxxxx",
"xxxvvvvvvvccccccccccccccccccccccccccccccccccccccccccccccccccccccccccccccccccccccccccccccccccccccccccccccccccccccccccccccccxxxxxx",
"xxvvvvvvvxxxxxxxxxxxxxxxxxxxxxxxxxxxxxxxxxxxxxxxxxxxxxxxxxxxxxxxxxxxxxxxxxxxxxxxxxxxxxxxxxxxxxxxxxxxxxxxxxxxxxxxxxxxxxxxxxxxxxxx",
"xvvvvvvvxxxxxxxxxxxxxxxxxxxxxxxxxxxxxxxxxxxxxxxxxxxxxxxxxxxxxxxxxxxxxxxxxxxxxxxxxxxxxxxxxxxxxxxxxxxxxxxxxxxxxxxxxxxxxxxxxxxxxxxx",
"vvvvvvvxxxxxxxxxxxxxxxxxxxxxxxxxxxxxxxxxxxxxxxxxxxxxxxxxxxxxxxxxxxxxxxxxxxxxxxxxxxxxxxxxxxxxxxxxxxxxxxxxxxxxxxxxxxxxxxxxxxxxxxxx",
"vvvvvvxxxxxxxxxxxxxxxxxxxxxxxxxxxxxxxxxxxxxxxxxxxxxxxxxxxxxxxxxxxxxxxxxxxxxxxxxxxxxxxxxxxxxxxxxxxxxxxxxxxxxxxxxxxxxxxxxxxxxxxxxx",
"vvvvvxxxxxxxxxxxxxxxxxxxxxxxxxxxxxxxxxxxxxxxxxxxxxxxxxxxxxxxxxxxxxxxxxxxxxxxxxxxxxxxxxxxxxxxxxxxxxxxxxxxxxxxxxxxxxxxxxxxxxxxxxxx",
"vvvvxxxxxxxxxxxxxxxxxxxxxxxxxxxxxxxxxxxxxxxxxxxxxxxxxxxxxxxxxxxxxxxxxxxxxxxxxxxxxxxxxxxxxxxxxxxxxxxxxxxxxxxxxxxxxxxxxxxxxxxxxxxx"
};
