/* XPM */
static char *fa193178de854985ddf939e1ed5538d7nsAKaPMCjkbShJEm[] = {
/* columns rows colors chars-per-pixel */
"128 128 31 1 ",
"  c #A71C21",
". c #AB1E22",
"X c #AF1F23",
"o c #B01F23",
"O c #B31F24",
"+ c #B41F24",
"@ c #B71F25",
"# c #BC1F25",
"$ c #AF2023",
"% c #B92025",
"& c #BC2025",
"* c #C11F26",
"= c #E01F26",
"- c #E41E25",
"; c #EA1C24",
": c #ED1C24",
"> c #ED1F24",
", c #C12027",
"< c #C92026",
"1 c #ED2024",
"2 c #E92427",
"3 c #ED2427",
"4 c #E9262A",
"5 c #ED2428",
"6 c #ED2729",
"7 c #EA282B",
"8 c #EE282B",
"9 c #EE2A2D",
"0 c #ED2C2E",
"q c #FB8500",
"w c #FFB703",
/* pixels */
"qqqqqqqqqqqqqqqqqqqqqqqqqqqqqqqqqqqqqqqqqqqqqqqqqqqqqqqqqqqqqqqqqqqqqqqqqqqqqqqqqqqqqqqqqqqqqqqqqqqqqqqqqqqqqqqqqqqqqqqqqqqqqqqq",
"qqqqqqqqqqqqqqqqqqqqqqqqqqqqqqqqqqqqqqqqqqqqqqqqqqqqqqqqqqqqqqqqqqqqqqqqqqqqqqqqqqqqqqqqqqqqqqqqqqqqqqqqqqqqqqqqqqqqqqqqqqqqqqqq",
"qqqqqqqqqqqqqqqqqqqqqqqqqqqqqqqqqqqqqqqqqqqqqqqqqqqqqqqqqqqqqqqqqqqqqqqqqqqqqqqqqqqqqqqqqqqqqqqqqqqqqqqqqqqqqqqqqqqqqqqqqqqqqqqq",
"qqqqqqqqqqqqqqqqqqqqqqqqqqqqqqqqqqqqqqqqqqqqqqqqqqqqqqqqqqqqqqqqqqqqqqqqqqqqqqqqqqqqqqqqqqqqqqqqqqqqqqqqqqqqqqqqqqqqqqqqqqqqqqqq",
"qqqqqqqqqqqqqqqqqqqqqqqqqqqqqqqqqqqqqqqqqqqqqqqqqqqqqqqqqqqqqqqqqqqqqqqqqqqqqqqqqqqqqqqqqqqqqqqqqqqqqqqqqqqqqqqqqqqqqqqqqqqqqqqq",
"qqqqqqqqqqqqqqqqqqqqqqqqqqqqqqqqqqqqqqqqqqqqqqqqqqqqqqqqqqqqqqqqqqqqqqqqqqqqqqqqqqqqqqqqqqqqqqqqqqqqqqqqqqqqqqqqqqqqqqqqqqqqqqqq",
"qqqqqqwwwwwwwwwwwwwwwwwwwwwwwwwwwwwwwwwwwwwwwwwwwwwwwwwwwwwwwwwwwwwwwwwwwwwwwwwwwwwwwwwwwwwwwwwwwwwwwwwwwwwwwwwwwwwwwwwwwwqqqqqq",
"qqqqqqwwwwwwwwwwwwwwwwwwwwwwwwwwwwwwwwwwwwwwwwwwwwwwwwwwwwwwwwwwwwwwwwwwwwwwwwwwwwwwwwwwwwwwwwwwwwwwwwwwwwwwwwwwwwwwwwwwwwqqqqqq",
"qqqqqqwwwwwwwwwwwwwwwwwwwwwwwwwwwwwwwwwwwwwwwwwwwwwwwwwwwwwwwwwwwwwwwwwwwwwwwwwwwwwwwwwwwwwwwwwwwwwwwwwwwwwwwwwwwwwwwwwwwwqqqqqq",
"qqqqqqwwwwwwwwwwwwwwwwwwwwwwwwwwwwwwwwwwwwwwwwwwwwwwwwwwwwwwwwwwwwwwwwwwwwwwwwwwwwwwwwwwwwwwwwwwwwwwwwwwwwwwwwwwwwwwwwwwwwqqqqqq",
"qqqqqqwwwwwwwwwwwwwwwwwwwwwwwwwwwwwwwwwwwwwwwwwwwwwwwwwwwwwwwwwwwwwwwwwwwwwwwwwwwwwwwwwwwwwwwwwwwwwwwwwwwwwwwwwwwwwwwwwwwwqqqqqq",
"qqqqqqwwwwwwwwwwwwwwwwwwwwwwwwwwwwwwwwwwwwwwwwwwwwwwwwwwwwwwwwwwwwwwwwwwwwwwwwwwwwwwwwwwwwwwwwwwwwwwwwwwwwwwwwwwwwwwwwwwwwqqqqqq",
"qqqqqqwwwwwwwwwwwwwwwwwwwwwwwwwwwwwwwwwwwwwwwwwwwwwwwwwwwwwwwwwwwwwwwwwwwwwwwwwwwwwwwwwwwwwwwwwwwwwwwwwwwwwwwwwwwwwwwwwwwwqqqqqq",
"qqqqqqwwwwwwwwwwwwwwwwwwwwwwwwwwwwwwwwwwwwwwwwwwwwwwwwwwwwwwwwwwwwwwwwwwwwwwwwwwwwwwwwwwwwwwwwwwwwwwwwwwwwwwwwwwwwwwwwwwwwqqqqqq",
"qqqqqqwwwwwwwwwwwwwwwwwwwwwwwwwwwwwwwwwwwwwwwwwwwwwwwwwwwwwwwwwwwwwwwwwwwwwwwwwwwwwwwwwwwwwwwwwwwwwwwwwwwwwwwwwwwwwwwwwwwwqqqqqq",
"qqqqqqwwwwwwwwwwwwwwwwwwwwwwwwwwwwwwwwwwwwwwwwwwwwwwwwwwwwwwwwwwwwwwwwwwwwwwwwwwwwwwwwwwwwwwwwwwwwwwwwwwwwwwwwwwwwwwwwwwwwqqqqqq",
"qqqqqqwwwwwwwwwwwwwwwwwwwwwwwwwwwwwwwwwwwwwwwwwwwwwwwwwwwwwwwwwwwwwwwwwwwwwwwwwwwwwwwwwwwwwwwwwwwwwwwwwwwwwwwwwwwwwwwwwwwwqqqqqq",
"qqqqqqwwwwwwwwwwwwwwwwwwwwwwwwwwwwwwwwwwwwwwwwwwwwwwwwwwwwwwwwwwwwwwwwwwwwwwwwwwwwwwwwwwwwwwwwwwwwwwwwwwwwwwwwwwwwwwwwwwwwqqqqqq",
"qqqqqqwwwwwwwwwwwwwwwwwwwwwwwwwwwwwwwwwwwwwwwwwwwwwwwwwwwwwwwwwwwwwwwwwwwwwwwwwwwwwwwwwwwwwwwwwwwwwwwwwwwwwwwwwwwwwwwwwwwwqqqqqq",
"qqqqqqwwwwwwwwwwwwwwwwwwwwwwwwwwwwwwwwwwwwwwwwwwwwwwwwwwwwwwwwwwwwwwwwwwwwwwwwwwwwwwwwwwwwwwwwwwwwwwwwwwwwwwwwwwwwwwwwwwwwqqqqqq",
"qqqqqqwwwwwwwwwwwwwwwwwwwwwwwwwwwwwwwwwwwwwwwwwwwwwwwwwwwwwwwwwwwwwwwwwwwwwwwwwwwwwwwwwwwwwwwwwwwwwwwwwwwwwwwwwwwwwwwwwwwwqqqqqq",
"qqqqqqwwwwwwwwwwwwwwwwwwwwwwwwwwwwwwwwwwwwwwwwwwwwwwwwwwwwwwwwwwwwwwwwwwwwwwwwwwwwwwwwwwwwwwwwwwwwwwwwwwwwwwwwwwwwwwwwwwwwqqqqqq",
"qqqqqqwwwwwwwwwwwwwwwwwwwwwwwwwwwwwwwwwwwwwwwwwwwwwwwwwwwwwwwwwwwwwwwwwwwwwwwwwwwwwwwwwwwwwwwwwwwwwwwwwwwwwwwwwwwwwwwwwwwwqqqqqq",
"qqqqqqwwwwwwwwwwwwwwwwwwwwwwwwwwwwwwwwwwwwwwwwwwwwwwwwwwwwwwwwwwwwwwwwwwwwwwwwwwwwwwwwwwwwwwwwwwwwwwwwwwwwwwwwwwwwwwwwwwwwqqqqqq",
"qqqqqqwwwwwwwwwwwwwwwwwwwwwwwwwwwwwwwwwwwwwwwwwwwwwwwwwwwwwwwwwwwwwwwwwwwwwwwwwwwwwwwwwwwwwwwwwwwwwwwwwwwwwwwwwwwwwwwwwwwwqqqqqq",
"qqqqqqwwwwwwwwwwwwwwwwwwwwwwwwwwwwwwwwwwwwwwwwwwwwwwwwwwwwwwwwwwwwwwwwwwwwwwwwwwwwwwwwwwwwwwwwwwwwwwwwwwwwwwwwwwwwwwwwwwwwqqqqqq",
"qqqqqqwwwwwwwwwwwwwwwwwwwwwwwwwwwwwwwwwwwwwwwwwwwwwwwwwwwwwwwwwwwwwwwwwwwwwwwwwwwwwwwwwwwwwwwwwwwwwwwwwwwwwwwwwwwwwwwwwwwwqqqqqq",
"qqqqqqwwwwwwwwwwwwwwwwwwwwwwwwwwwwwwwwwwwwwwwwwwwwwwwwwwwwwwwwwwwwwwwwwwwwwwwwwwwwwwwwwwwwwwwwwwwwwwwwwwwwwwwwwwwwwwwwwwwwqqqqqq",
"qqqqqqwwwwwwwwwwwwwwwwwwwwwwwwwwwwwwwwwwwwwwwwwwwwwwwwwwwwwwwwwwwwwwwwwwwwwwwwwwwwwwwwwwwwwwwwwwwwwwwwwwwwwwwwwwwwwwwwwwwwqqqqqq",
"qqqqqqwwwwwwwwwwwwwwwwwwwwwwwwwwwwwwww89wwwwwwwwwwwwwwwwwwwwwwwwwwwwwwwwwwwwwwwwwwwwwww98wwwwwwwwwwwwwwwwwwwwwwwwwwwwwwwwwqqqqqq",
"qqqqqqwwwwwwwwwwwwwwwwwwwwwwwwwwwwwww6>19wwwwwwwwwwwwwwwwwwwwwwwwwwwwwwwwwwwwwwwwwwwww91>6wwwwwwwwwwwwwwwwwwwwwwwwwwwwwwwwqqqqqq",
"qqqqqqwwwwwwwwwwwwwwwwwwwwwwwwwwwwww6>>>10wwwwwwwwwwwwwwwwwwwwwwwwwwwwwwwwwwwwwwwwwww01>>>6wwwwwwwwwwwwwwwwwwwwwwwwwwwwwwwqqqqqq",
"qqqqqqwwwwwwwwwwwwwwwwwwwwwwwwwwwww3>>>>>>9wwwwwwwwwwwwwwwwwwwwwwwwwwwwwwwwwwwwwwwww9>>>>>>1wwwwwwwwwwwwwwwwwwwwwwwwwwwwwwqqqqqq",
"qqqqqqwwwwwwwwwwwwwwwwwwwwwwwwwwww6>>>>>>>>9wwwwwwwwwwwwwwwwwwwwwwwwwwwwwwwwwwwwwww91>>>>>>>6wwwwwwwwwwwwwwwwwwwwwwwwwwwwwqqqqqq",
"qqqqqqwwwwwwwwwwwwwwwwwwwwwwwwwww6>>>>>>>>>>9wwwwwwwwwwwwwwwwwwwwwwwwwwwwwwwwwwwww9>>>>>>>>>>6wwwwwwwwwwwwwwwwwwwwwwwwwwwwqqqqqq",
"qqqqqqwwwwwwwwwwwwwwwwwwwwwwwwww6>>>>>>>>>>>>6wwwwwwwwwwwwwwwwwwwwwwwwwwwwwwwwwww6>>>>>>>>>>>>6wwwwwwwwwwwwwwwwwwwwwwwwwwwqqqqqq",
"qqqqqqwwwwwwwwwwwwwwwwwwwwwwwww1>:>>>>>>>>>>>>6wwwwwwwwwwwwwwwwwwwwwwwwwwwwwwwww6>>>>>>>>>::>>>1wwwwwwwwwwwwwwwwwwwwwwwwwwqqqqqq",
"qqqqqqwwwwwwwwwwwwwwwwwwwwwwww3>::>>>>>>>>>>>>>9wwwwwwwwwwwwwwwwwwwwwwwwwwwwwww9>>>>>>>>>>::>>>>3wwwwwwwwwwwwwwwwwwwwwwwwwqqqqqq",
"qqqqqqwwwwwwwwwwwwwwwwwwwwwww1>>>>>>>:>>>>>>>>>>6wwwwwwwwwwwwwwwwwwwwwwwwwwwww6>:>>>:>>>>>>>>>>>>1wwwwwwwwwwwwwwwwwwwwwwwwqqqqqq",
"qqqqqqwwwwwwwwwwwwwwwwwwwwwww@>>>>>>>>>>>>>>>>>>>9wwwwwwwwwwwwwwwwwwwwwwwwwww9>>>>>>>>>>>>>>>>>>>@wwwwwwwwwwwwwwwwwwwwwwwwqqqqqq",
"qqqqqqwwwwwwwwwwwwwwwwwwwwwwww&>>>>>::>>>::>>>>>>>9wwwwwwwwwwwwwwwwwwwwwwwww9>>>>>>>>>>>::::>>>>&wwwwwwwwwwwwwwwwwwwwwwwwwqqqqqq",
"qqqqqqwwwwwwwwwwwwwwwwwwwwwwwww@>>:>>>>>>>:>::>>>>>8wwwwwwwwwwwwwwwwwwwwwww6>>>>>>>>>>>>::>>>>>@wwwwwwwwwwwwwwwwwwwwwwwwwwqqqqqq",
"qqqqqqwwwwwwwwwwwwwwwwwwwwwwwwww@>>>>>>>>>:>::>>>>>>8wwwwwwwwwwwwwwwwwwwww6>::>>>>>>>>>>>>>>>>@wwwwwwwwwwwwwwwwwwwwwwwwwwwqqqqqq",
"qqqqqqwwwwwwwwwwwwwwwwwwwwwwwwwww@>:>>>>>>>>>>>>>>>>>9wwwwwwwwwwwwwwwwwww9>>>>>:>>>>>>>>>>>>>%wwwwwwwwwwwwwwwwwwwwwwwwwwwwqqqqqq",
"qqqqqqwwwwwwwwwwwwwwwwwwwwwwwwwwww@>>>>>>>::::>>>>>>>>6wwwwwwwwwwwwwwwww6>>>>>>:::>>>>>>>>>>@wwwwwwwwwwwwwwwwwwwwwwwwwwwwwqqqqqq",
"qqqqqqwwwwwwwwwwwwwwwwwwwwwwwwwwwww#>>>>>>>>>>>:>>>>>>>6wwwwwwwwwwwwwww6>>>>;>>>::>>>>::>>>#wwwwwwwwwwwwwwwwwwwwwwwwwwwwwwqqqqqq",
"qqqqqqwwwwwwwwwwwwwwwwwwwwwwwwwwwwww%>>>:>>>>>>:>>>>>>>>9wwwwwwwwwwwww9>>>>>>>:>:>>>>>::>>@wwwwwwwwwwwwwwwwwwwwwwwwwwwwwwwqqqqqq",
"qqqqqqwwwwwwwwwwwwwwwwwwwwwwwwwwwwwwwO>>:>>>>>>>:::>>>>>>6wwwwwwwwwww6>>>>>>>::>:>>>>>::>Owwwwwwwwwwwwwwwwwwwwwwwwwwwwwwwwqqqqqq",
"qqqqqqwwwwwwwwwwwwwwwwwwwwwwwwwwwwwwww%>>>:>:>>>:>:>>>:::>9wwwwwwwww9>>>>>>>>>>>>>>>>>>>%wwwwwwwwwwwwwwwwwwwwwwwwwwwwwwwwwqqqqqq",
"qqqqqqwwwwwwwwwwwwwwwwwwwwwwwwwwwwwwwwwO>::>:>>>:>>>>>::>>>1wwwwwww3>>>>>>>>>>>>>>>>>>>Owwwwwwwwwwwwwwwwwwwwwwwwwwwwwwwwwwqqqqqq",
"qqqqqqwwwwwwwwwwwwwwwwwwwwwwwwwwwwwwwwwwO>>>>>>>>>>>>>>>>>>>6wwwww6>>>>>>>>>>>>>>>>>>>Owwwwwwwwwwwwwwwwwwwwwwwwwwwwwwwwwwwqqqqqq",
"qqqqqqwwwwwwwwwwwwwwwwwwwwwwwwwwwwwwwwwww@>>>>>>>>>>>>>>>>>>>8www8>>>>>>>>::>>>>:>>>>@wwwwwwwwwwwwwwwwwwwwwwwwwwwwwwwwwwwwqqqqqq",
"qqqqqqwwwwwwwwwwwwwwwwwwwwwwwwwwwwwwwwwwwwX>>>>>::>>>>>>>>>>>>6w6>>>>>>>>>>>>>>>:>>>Xwwwwwwwwwwwwwwwwwwwwwwwwwwwwwwwwwwwwwqqqqqq",
"qqqqqqwwwwwwwwwwwwwwwwwwwwwwwwwwwwwwwwwwwww$>>>>::>>>>>>>>>>>>>>>>>>>>>>>>>>>>>>>>>Xwwwwwwwwwwwwwwwwwwwwwwwwwwwwwwwwwwwwwwqqqqqq",
"qqqqqqwwwwwwwwwwwwwwwwwwwwwwwwwwwwwwwwwwwwww@>>;;;;;;;;;;;;;;;;>;;;;;;;;;;;;;;;;>:@wwwwwwwwwwwwwwwwwwwwwwwwwwwwwwwwwwwwwwwqqqqqq",
"qqqqqqwwwwwwwwwwwwwwwwwwwwwwwwwwwwwwwwwwwwwwwo>>;;;;;;;;;;;;;;;;;;;;;;;;;;;;;;;>>owwwwwwwwwwwwwwwwwwwwwwwwwwwwwwwwwwwwwwwwqqqqqq",
"qqqqqqwwwwwwwwwwwwwwwwwwwwwwwwwwwwwwwwwwwwwwwwX>>;;;;;;;;;;;;;;;;;;;;;;;;;;;;;>>Xwwwwwwwwwwwwwwwwwwwwwwwwwwwwwwwwwwwwwwwwwqqqqqq",
"qqqqqqwwwwwwwwwwwwwwwwwwwwwwwwwwwwwwwwwwwwwwwwwO>>;;;;;;;;;;;;;;;;;;;;;;;;;;;>>Owwwwwwwwwwwwwwwwwwwwwwwwwwwwwwwwwwwwwwwwwwqqqqqq",
"qqqqqqwwwwwwwwwwwwwwwwwwwwwwwwwwwwwwwwwwwwwwwwwwX>>;;;;;;;;;;;;;;;;;;;;;;;;;>>Xwwwwwwwwwwwwwwwwwwwwwwwwwwwwwwwwwwwwwwwwwwwqqqqqq",
"qqqqqqwwwwwwwwwwwwwwwwwwwwwwwwwwwwwwwwwwwwwwwwwww@>>;;;;;;;;;;;;;;;;;;;;;;;>>@wwwwwwwwwwwwwwwwwwwwwwwwwwwwwwwwwwwwwwwwwwwwqqqqqq",
"qqqqqqwwwwwwwwwwwwwwwwwwwwwwwwwwwwwwwwwwwwwwwwwwwwO>;;;;;;;;;;;;;;;;;;;;;;;>Owwwwwwwwwwwwwwwwwwwwwwwwwwwwwwwwwwwwwwwwwwwwwqqqqqq",
"qqqqqqwwwwwwwwwwwwwwwwwwwwwwwwwwwwwwwwwwwwwwwwwwwwwX>;;;;;;;;;;;;;;;;;;;;;>Xwwwwwwwwwwwwwwwwwwwwwwwwwwwwwwwwwwwwwwwwwwwwwwqqqqqq",
"qqqqqqwwwwwwwwwwwwwwwwwwwwwwwwwwwwwwwwwwwwwwwwwwwwwwX;;;;;;;;;;;;;;;;;;;;;Xwwwwwwwwwwwwwwwwwwwwwwwwwwwwwwwwwwwwwwwwwwwwwwwqqqqqq",
"qqqqqqwwwwwwwwwwwwwwwwwwwwwwwwwwwwwwwwwwwwwwwwwwwwwww=;;;;;;;;;;;;;;;;;;;=wwwwwwwwwwwwwwwwwwwwwwwwwwwwwwwwwwwwwwwwwwwwwwwwqqqqqq",
"qqqqqqwwwwwwwwwwwwwwwwwwwwwwwwwwwwwwwwwwwwwwwwwwwwww8;;;;;;;;;;;;;;;;;;;;;8wwwwwwwwwwwwwwwwwwwwwwwwwwwwwwwwwwwwwwwwwwwwwwwqqqqqq",
"qqqqqqwwwwwwwwwwwwwwwwwwwwwwwwwwwwwwwwwwwwwwwwwwwww6>;;;;;;;;;;;;;;;;;;;;;>6wwwwwwwwwwwwwwwwwwwwwwwwwwwwwwwwwwwwwwwwwwwwwwqqqqqq",
"qqqqqqwwwwwwwwwwwwwwwwwwwwwwwwwwwwwwwwwwwwwwwwwwww2;;;;;;;;;;;;;;;;;;;;;;;;;2wwwwwwwwwwwwwwwwwwwwwwwwwwwwwwwwwwwwwwwwwwwwwqqqqqq",
"qqqqqqwwwwwwwwwwwwwwwwwwwwwwwwwwwwwwwwwwwwwwwwwww2>;;;;;;;;;;;;;;;;;;;;;;;;;>2wwwwwwwwwwwwwwwwwwwwwwwwwwwwwwwwwwwwwwwwwwwwqqqqqq",
"qqqqqqwwwwwwwwwwwwwwwwwwwwwwwwwwwwwwwwwwwwwwwwww4;;;;;;;;;;;;;;;;;;;;;;;;;;;;;4wwwwwwwwwwwwwwwwwwwwwwwwwwwwwwwwwwwwwwwwwwwqqqqqq",
"qqqqqqwwwwwwwwwwwwwwwwwwwwwwwwwwwwwwwwwwwwwwwww4;;;;;;;;;;;;;;;;;;;;--;;;;;;--;4wwwwwwwwwwwwwwwwwwwwwwwwwwwwwwwwwwwwwwwwwwqqqqqq",
"qqqqqqwwwwwwwwwwwwwwwwwwwwwwwwwwwwwwwwwwwwwwww4;;;;;-;;;;;;;;;;;;;;;;;;;;;;;-;;;4wwwwwwwwwwwwwwwwwwwwwwwwwwwwwwwwwwwwwwwwwqqqqqq",
"qqqqqqwwwwwwwwwwwwwwwwwwwwwwwwwwwwwwwwwwwwwww4;-------------------------------;;;4wwwwwwwwwwwwwwwwwwwwwwwwwwwwwwwwwwwwwwwwqqqqqq",
"qqqqqqwwwwwwwwwwwwwwwwwwwwwwwwwwwwwwwwwwwwww4;;;----;;;;;-----;;;----;;;;---;;;;-;4wwwwwwwwwwwwwwwwwwwwwwwwwwwwwwwwwwwwwwwqqqqqq",
"qqqqqqwwwwwwwwwwwwwwwwwwwwwwwwwwwwwwwwwwwww4;;;;----;;;;;----;-<-;----;;;;--;;;;--;4wwwwwwwwwwwwwwwwwwwwwwwwwwwwwwwwwwwwwwqqqqqq",
"qqqqqqwwwwwwwwwwwwwwwwwwwwwwwwwwwwwwwwwwww4;----------------;;OwO;;----------------;4wwwwwwwwwwwwwwwwwwwwwwwwwwwwwwwwwwwwwqqqqqq",
"qqqqqqwwwwwwwwwwwwwwwwwwwwwwwwwwwwwwwwwww4;----------------;;XwwwX;;----------------;4wwwwwwwwwwwwwwwwwwwwwwwwwwwwwwwwwwwwqqqqqq",
"qqqqqqwwwwwwwwwwwwwwwwwwwwwwwwwwwwwwwwww4;----------------;;owwwwwo;;----------------;4wwwwwwwwwwwwwwwwwwwwwwwwwwwwwwwwwwwqqqqqq",
"qqqqqqwwwwwwwwwwwwwwwwwwwwwwwwwwwwwwwww7;----------------;;owwwwwwwo;;----------------;7wwwwwwwwwwwwwwwwwwwwwwwwwwwwwwwwwwqqqqqq",
"qqqqqqwwwwwwwwwwwwwwwwwwwwwwwwwwwwwwww4;----------------;;.wwwwwwwww.;;----------------;4wwwwwwwwwwwwwwwwwwwwwwwwwwwwwwwwwqqqqqq",
"qqqqqqwwwwwwwwwwwwwwwwwwwwwwwwwwwwwww4;----------------;;owwwwwwwwwwwX;;----------------;4wwwwwwwwwwwwwwwwwwwwwwwwwwwwwwwwqqqqqq",
"qqqqqqwwwwwwwwwwwwwwwwwwwwwwwwwwwwww2;----------------;;.wwwwwwwwwwwww.;;----------------;2wwwwwwwwwwwwwwwwwwwwwwwwwwwwwwwqqqqqq",
"qqqqqqwwwwwwwwwwwwwwwwwwwwwwwwwwwww2;----------------;;.wwwwwwwwwwwwwww.;;----------------;2wwwwwwwwwwwwwwwwwwwwwwwwwwwwwwqqqqqq",
"qqqqqqwwwwwwwwwwwwwwwwwwwwwwwwwwww4;-----------------;XwwwwwwwwwwwwwwwwwX;-----------------;4wwwwwwwwwwwwwwwwwwwwwwwwwwwwwqqqqqq",
"qqqqqqwwwwwwwwwwwwwwwwwwwwwwwwwww4;-----------------;.wwwwwwwwwwwwwwwwwww.;-----------------;4wwwwwwwwwwwwwwwwwwwwwwwwwwwwqqqqqq",
"qqqqqqwwwwwwwwwwwwwwwwwwwwwwwwww4;----------------;;.wwwwwwwwwwwwwwwwwwwww.;;----------------;4wwwwwwwwwwwwwwwwwwwwwwwwwwwqqqqqq",
"qqqqqqwwwwwwwwwwwwwwwwwwwwwwwww4;-----------------;XwwwwwwwwwwwwwwwwwwwwwwwX;-----------------;4wwwwwwwwwwwwwwwwwwwwwwwwwwqqqqqq",
"qqqqqqwwwwwwwwwwwwwwwwwwwwwwww4;----------------;-.wwwwwwwwwwwwwwwwwwwwwwwww.-;----------------;4wwwwwwwwwwwwwwwwwwwwwwwwwqqqqqq",
"qqqqqqwwwwwwwwwwwwwwwwwwwwwww4;-----------------; wwwwwwwwwwwwwwwwwwwwwwwwwww ;-----------------;4wwwwwwwwwwwwwwwwwwwwwwwwqqqqqq",
"qqqqqqwwwwwwwwwwwwwwwwwwwwwww,;----------------;XwwwwwwwwwwwwwwwwwwwwwwwwwwwwwX;----------------;,wwwwwwwwwwwwwwwwwwwwwwwwqqqqqq",
"qqqqqqwwwwwwwwwwwwwwwwwwwwwwww,;--------------;.wwwwwwwwwwwwwwwwwwwwwwwwwwwwwww.;--------------;,wwwwwwwwwwwwwwwwwwwwwwwwwqqqqqq",
"qqqqqqwwwwwwwwwwwwwwwwwwwwwwwww&;-----------;;XwwwwwwwwwwwwwwwwwwwwwwwwwwwwwwwwwX;;-----------;&wwwwwwwwwwwwwwwwwwwwwwwwwwqqqqqq",
"qqqqqqwwwwwwwwwwwwwwwwwwwwwwwwww,;----------;XwwwwwwwwwwwwwwwwwwwwwwwwwwwwwwwwwwwX;----------;,wwwwwwwwwwwwwwwwwwwwwwwwwwwqqqqqq",
"qqqqqqwwwwwwwwwwwwwwwwwwwwwwwwwww&;-------;;.wwwwwwwwwwwwwwwwwwwwwwwwwwwwwwwwwwwww.;;-------;&wwwwwwwwwwwwwwwwwwwwwwwwwwwwqqqqqq",
"qqqqqqwwwwwwwwwwwwwwwwwwwwwwwwwwww,;-----;;XwwwwwwwwwwwwwwwwwwwwwwwwwwwwwwwwwwwwwwwX;;-----;,wwwwwwwwwwwwwwwwwwwwwwwwwwwwwqqqqqq",
"qqqqqqwwwwwwwwwwwwwwwwwwwwwwwwwwwww*;-----.wwwwwwwwwwwwwwwwwwwwwwwwwwwwwwwwwwwwwwwww.-----;*wwwwwwwwwwwwwwwwwwwwwwwwwwwwwwqqqqqq",
"qqqqqqwwwwwwwwwwwwwwwwwwwwwwwwwwwwww&;-;;.wwwwwwwwwwwwwwwwwwwwwwwwwwwwwwwwwwwwwwwwwww.;;-;&wwwwwwwwwwwwwwwwwwwwwwwwwwwwwwwqqqqqq",
"qqqqqqwwwwwwwwwwwwwwwwwwwwwwwwwwwwwww&>;XwwwwwwwwwwwwwwwwwwwwwwwwwwwwwwwwwwwwwwwwwwwwwX;>&wwwwwwwwwwwwwwwwwwwwwwwwwwwwwwwwqqqqqq",
"qqqqqqwwwwwwwwwwwwwwwwwwwwwwwwwwwwwwww&.wwwwwwwwwwwwwwwwwwwwwwwwwwwwwwwwwwwwwwwwwwwwwww.&wwwwwwwwwwwwwwwwwwwwwwwwwwwwwwwwwqqqqqq",
"qqqqqqwwwwwwwwwwwwwwwwwwwwwwwwwwwwwwwwwwwwwwwwwwwwwwwwwwwwwwwwwwwwwwwwwwwwwwwwwwwwwwwwwwwwwwwwwwwwwwwwwwwwwwwwwwwwwwwwwwwwqqqqqq",
"qqqqqqwwwwwwwwwwwwwwwwwwwwwwwwwwwwwwwwwwwwwwwwwwwwwwwwwwwwwwwwwwwwwwwwwwwwwwwwwwwwwwwwwwwwwwwwwwwwwwwwwwwwwwwwwwwwwwwwwwwwqqqqqq",
"qqqqqqwwwwwwwwwwwwwwwwwwwwwwwwwwwwwwwwwwwwwwwwwwwwwwwwwwwwwwwwwwwwwwwwwwwwwwwwwwwwwwwwwwwwwwwwwwwwwwwwwwwwwwwwwwwwwwwwwwwwqqqqqq",
"qqqqqqwwwwwwwwwwwwwwwwwwwwwwwwwwwwwwwwwwwwwwwwwwwwwwwwwwwwwwwwwwwwwwwwwwwwwwwwwwwwwwwwwwwwwwwwwwwwwwwwwwwwwwwwwwwwwwwwwwwwqqqqqq",
"qqqqqqwwwwwwwwwwwwwwwwwwwwwwwwwwwwwwwwwwwwwwwwwwwwwwwwwwwwwwwwwwwwwwwwwwwwwwwwwwwwwwwwwwwwwwwwwwwwwwwwwwwwwwwwwwwwwwwwwwwwqqqqqq",
"qqqqqqwwwwwwwwwwwwwwwwwwwwwwwwwwwwwwwwwwwwwwwwwwwwwwwwwwwwwwwwwwwwwwwwwwwwwwwwwwwwwwwwwwwwwwwwwwwwwwwwwwwwwwwwwwwwwwwwwwwwqqqqqq",
"qqqqqqwwwwwwwwwwwwwwwwwwwwwwwwwwwwwwwwwwwwwwwwwwwwwwwwwwwwwwwwwwwwwwwwwwwwwwwwwwwwwwwwwwwwwwwwwwwwwwwwwwwwwwwwwwwwwwwwwwwwqqqqqq",
"qqqqqqwwwwwwwwwwwwwwwwwwwwwwwwwwwwwwwwwwwwwwwwwwwwwwwwwwwwwwwwwwwwwwwwwwwwwwwwwwwwwwwwwwwwwwwwwwwwwwwwwwwwwwwwwwwwwwwwwwwwqqqqqq",
"qqqqqqwwwwwwwwwwwwwwwwwwwwwwwwwwwwwwwwwwwwwwwwwwwwwwwwwwwwwwwwwwwwwwwwwwwwwwwwwwwwwwwwwwwwwwwwwwwwwwwwwwwwwwwwwwwwwwwwwwwwqqqqqq",
"qqqqqqwwwwwwwwwwwwwwwwwwwwwwwwwwwwwwwwwwwwwwwwwwwwwwwwwwwwwwwwwwwwwwwwwwwwwwwwwwwwwwwwwwwwwwwwwwwwwwwwwwwwwwwwwwwwwwwwwwwwqqqqqq",
"qqqqqqwwwwwwwwwwwwwwwwwwwwwwwwwwwwwwwwwwwwwwwwwwwwwwwwwwwwwwwwwwwwwwwwwwwwwwwwwwwwwwwwwwwwwwwwwwwwwwwwwwwwwwwwwwwwwwwwwwwwqqqqqq",
"qqqqqqwwwwwwwwwwwwwwwwwwwwwwwwwwwwwwwwwwwwwwwwwwwwwwwwwwwwwwwwwwwwwwwwwwwwwwwwwwwwwwwwwwwwwwwwwwwwwwwwwwwwwwwwwwwwwwwwwwwwqqqqqq",
"qqqqqqwwwwwwwwwwwwwwwwwwwwwwwwwwwwwwwwwwwwwwwwwwwwwwwwwwwwwwwwwwwwwwwwwwwwwwwwwwwwwwwwwwwwwwwwwwwwwwwwwwwwwwwwwwwwwwwwwwwwqqqqqq",
"qqqqqqwwwwwwwwwwwwwwwwwwwwwwwwwwwwwwwwwwwwwwwwwwwwwwwwwwwwwwwwwwwwwwwwwwwwwwwwwwwwwwwwwwwwwwwwwwwwwwwwwwwwwwwwwwwwwwwwwwwwqqqqqq",
"qqqqqqwwwwwwwwwwwwwwwwwwwwwwwwwwwwwwwwwwwwwwwwwwwwwwwwwwwwwwwwwwwwwwwwwwwwwwwwwwwwwwwwwwwwwwwwwwwwwwwwwwwwwwwwwwwwwwwwwwwwqqqqqq",
"qqqqqqwwwwwwwwwwwwwwwwwwwwwwwwwwwwwwwwwwwwwwwwwwwwwwwwwwwwwwwwwwwwwwwwwwwwwwwwwwwwwwwwwwwwwwwwwwwwwwwwwwwwwwwwwwwwwwwwwwwwqqqqqq",
"qqqqqqwwwwwwwwwwwwwwwwwwwwwwwwwwwwwwwwwwwwwwwwwwwwwwwwwwwwwwwwwwwwwwwwwwwwwwwwwwwwwwwwwwwwwwwwwwwwwwwwwwwwwwwwwwwwwwwwwwwwqqqqqq",
"qqqqqqwwwwwwwwwwwwwwwwwwwwwwwwwwwwwwwwwwwwwwwwwwwwwwwwwwwwwwwwwwwwwwwwwwwwwwwwwwwwwwwwwwwwwwwwwwwwwwwwwwwwwwwwwwwwwwwwwwwwqqqqqq",
"qqqqqqwwwwwwwwwwwwwwwwwwwwwwwwwwwwwwwwwwwwwwwwwwwwwwwwwwwwwwwwwwwwwwwwwwwwwwwwwwwwwwwwwwwwwwwwwwwwwwwwwwwwwwwwwwwwwwwwwwwwqqqqqq",
"qqqqqqwwwwwwwwwwwwwwwwwwwwwwwwwwwwwwwwwwwwwwwwwwwwwwwwwwwwwwwwwwwwwwwwwwwwwwwwwwwwwwwwwwwwwwwwwwwwwwwwwwwwwwwwwwwwwwwwwwwwqqqqqq",
"qqqqqqwwwwwwwwwwwwwwwwwwwwwwwwwwwwwwwwwwwwwwwwwwwwwwwwwwwwwwwwwwwwwwwwwwwwwwwwwwwwwwwwwwwwwwwwwwwwwwwwwwwwwwwwwwwwwwwwwwwwqqqqqq",
"qqqqqqwwwwwwwwwwwwwwwwwwwwwwwwwwwwwwwwwwwwwwwwwwwwwwwwwwwwwwwwwwwwwwwwwwwwwwwwwwwwwwwwwwwwwwwwwwwwwwwwwwwwwwwwwwwwwwwwwwwwqqqqqq",
"qqqqqqwwwwwwwwwwwwwwwwwwwwwwwwwwwwwwwwwwwwwwwwwwwwwwwwwwwwwwwwwwwwwwwwwwwwwwwwwwwwwwwwwwwwwwwwwwwwwwwwwwwwwwwwwwwwwwwwwwwwqqqqqq",
"qqqqqqwwwwwwwwwwwwwwwwwwwwwwwwwwwwwwwwwwwwwwwwwwwwwwwwwwwwwwwwwwwwwwwwwwwwwwwwwwwwwwwwwwwwwwwwwwwwwwwwwwwwwwwwwwwwwwwwwwwwqqqqqq",
"qqqqqqqqqqqqqqqqqqqqqqqqqqqqqqqqqqqqqqqqqqqqqqqqqqqqqqqqqqqqqqqqqqqqqqqqqqqqqqqqqqqqqqqqqqqqqqqqqqqqqqqqqqqqqqqqqqqqqqqqqqqqqqqq",
"qqqqqqqqqqqqqqqqqqqqqqqqqqqqqqqqqqqqqqqqqqqqqqqqqqqqqqqqqqqqqqqqqqqqqqqqqqqqqqqqqqqqqqqqqqqqqqqqqqqqqqqqqqqqqqqqqqqqqqqqqqqqqqqq",
"qqqqqqqqqqqqqqqqqqqqqqqqqqqqqqqqqqqqqqqqqqqqqqqqqqqqqqqqqqqqqqqqqqqqqqqqqqqqqqqqqqqqqqqqqqqqqqqqqqqqqqqqqqqqqqqqqqqqqqqqqqqqqqqq",
"qqqqqqqqqqqqqqqqqqqqqqqqqqqqqqqqqqqqqqqqqqqqqqqqqqqqqqqqqqqqqqqqqqqqqqqqqqqqqqqqqqqqqqqqqqqqqqqqqqqqqqqqqqqqqqqqqqqqqqqqqqqqqqqq",
"qqqqqqqqqqqqqqqqqqqqqqqqqqqqqqqqqqqqqqqqqqqqqqqqqqqqqqqqqqqqqqqqqqqqqqqqqqqqqqqqqqqqqqqqqqqqqqqqqqqqqqqqqqqqqqqqqqqqqqqqqqqqqqqq",
"qqqqqqqqqqqqqqqqqqqqqqqqqqqqqqqqqqqqqqqqqqqqqqqqqqqqqqqqqqqqqqqqqqqqqqqqqqqqqqqqqqqqqqqqqqqqqqqqqqqqqqqqqqqqqqqqqqqqqqqqqqqqqqqq"
};
