/* XPM */
static char *result[] = {
/* columns rows colors chars-per-pixel */
"128 128 91 1 ",
"  c #FB8500",
"! c #FFB703",
"# c #EE282B",
"$ c #EE292D",
"% c #ED2729",
"& c #ED1F24",
"' c #ED2024",
"( c #EE2A2D",
") c #ED2728",
"* c #ED1D24",
"+ c #ED2C2E",
", c #ED2427",
"- c #ED2B2E",
". c #EE2A2C",
"/ c #ED2629",
"0 c #EE2B2E",
"1 c #ED2428",
"2 c #ED2326",
"3 c #ED1C24",
"4 c #EE2A2B",
"5 c #EE2B2D",
"6 c #ED2225",
"7 c #EE272A",
"8 c #B71F25",
"9 c #BC2025",
": c #B41F24",
"; c #EF2A2B",
"< c #B92025",
"= c #EC1C24",
"> c #B61F24",
"? c #ED272A",
"@ c #BC1F25",
"A c #EF292D",
"B c #B31F24",
"C c #B01F24",
"D c #ED2627",
"E c #B11F24",
"F c #B61F25",
"G c #EC292B",
"H c #AE1E23",
"I c #AF2023",
"J c #EC1F24",
"K c #B51E24",
"L c #EA1C24",
"M c #B01F23",
"N c #AF1F23",
"O c #B31E24",
"P c #E91D24",
"Q c #E01F26",
"R c #ED282A",
"S c #EC272B",
"T c #EA2527",
"U c #E91D25",
"V c #EB262A",
"W c #E92528",
"X c #E81D25",
"Y c #EB272A",
"Z c #EB252A",
"[ c #E71D25",
"\ c #E92529",
"] c #C92026",
"^ c #EA252A",
"_ c #E61D25",
"` c #E51D25",
"a c #AC1E22",
"b c #B01E23",
"c c #EA282B",
"d c #E82528",
"e c #AA1E22",
"f c #E41E25",
"g c #AF1D23",
"h c #E82527",
"i c #A81D22",
"j c #E92427",
"k c #AB1E22",
"l c #EA2529",
"m c #AD1D23",
"n c #E82529",
"o c #E9272A",
"p c #A91F22",
"q c #E9262A",
"r c #AD1E23",
"s c #A71C21",
"t c #C12027",
"u c #C02026",
"v c #BD2025",
"w c #BF2026",
"x c #A91E22",
"y c #C02027",
"z c #C11F26",
"{ c #A81E22",
/* pixels */
"                                                                                                                                ",
"                                                                                                                                ",
"                                                                                                                                ",
"                                                                                                                                ",
"                                                                                                                                ",
"                                                                                                                                ",
"      !!!!!!!!!!!!!!!!!!!!!!!!!!!!!!!!!!!!!!!!!!!!!!!!!!!!!!!!!!!!!!!!!!!!!!!!!!!!!!!!!!!!!!!!!!!!!!!!!!!!!!!!!!!!!!!!!!!!      ",
"      !!!!!!!!!!!!!!!!!!!!!!!!!!!!!!!!!!!!!!!!!!!!!!!!!!!!!!!!!!!!!!!!!!!!!!!!!!!!!!!!!!!!!!!!!!!!!!!!!!!!!!!!!!!!!!!!!!!!      ",
"      !!!!!!!!!!!!!!!!!!!!!!!!!!!!!!!!!!!!!!!!!!!!!!!!!!!!!!!!!!!!!!!!!!!!!!!!!!!!!!!!!!!!!!!!!!!!!!!!!!!!!!!!!!!!!!!!!!!!      ",
"      !!!!!!!!!!!!!!!!!!!!!!!!!!!!!!!!!!!!!!!!!!!!!!!!!!!!!!!!!!!!!!!!!!!!!!!!!!!!!!!!!!!!!!!!!!!!!!!!!!!!!!!!!!!!!!!!!!!!      ",
"      !!!!!!!!!!!!!!!!!!!!!!!!!!!!!!!!!!!!!!!!!!!!!!!!!!!!!!!!!!!!!!!!!!!!!!!!!!!!!!!!!!!!!!!!!!!!!!!!!!!!!!!!!!!!!!!!!!!!      ",
"      !!!!!!!!!!!!!!!!!!!!!!!!!!!!!!!!!!!!!!!!!!!!!!!!!!!!!!!!!!!!!!!!!!!!!!!!!!!!!!!!!!!!!!!!!!!!!!!!!!!!!!!!!!!!!!!!!!!!      ",
"      !!!!!!!!!!!!!!!!!!!!!!!!!!!!!!!!!!!!!!!!!!!!!!!!!!!!!!!!!!!!!!!!!!!!!!!!!!!!!!!!!!!!!!!!!!!!!!!!!!!!!!!!!!!!!!!!!!!!      ",
"      !!!!!!!!!!!!!!!!!!!!!!!!!!!!!!!!!!!!!!!!!!!!!!!!!!!!!!!!!!!!!!!!!!!!!!!!!!!!!!!!!!!!!!!!!!!!!!!!!!!!!!!!!!!!!!!!!!!!      ",
"      !!!!!!!!!!!!!!!!!!!!!!!!!!!!!!!!!!!!!!!!!!!!!!!!!!!!!!!!!!!!!!!!!!!!!!!!!!!!!!!!!!!!!!!!!!!!!!!!!!!!!!!!!!!!!!!!!!!!      ",
"      !!!!!!!!!!!!!!!!!!!!!!!!!!!!!!!!!!!!!!!!!!!!!!!!!!!!!!!!!!!!!!!!!!!!!!!!!!!!!!!!!!!!!!!!!!!!!!!!!!!!!!!!!!!!!!!!!!!!      ",
"      !!!!!!!!!!!!!!!!!!!!!!!!!!!!!!!!!!!!!!!!!!!!!!!!!!!!!!!!!!!!!!!!!!!!!!!!!!!!!!!!!!!!!!!!!!!!!!!!!!!!!!!!!!!!!!!!!!!!      ",
"      !!!!!!!!!!!!!!!!!!!!!!!!!!!!!!!!!!!!!!!!!!!!!!!!!!!!!!!!!!!!!!!!!!!!!!!!!!!!!!!!!!!!!!!!!!!!!!!!!!!!!!!!!!!!!!!!!!!!      ",
"      !!!!!!!!!!!!!!!!!!!!!!!!!!!!!!!!!!!!!!!!!!!!!!!!!!!!!!!!!!!!!!!!!!!!!!!!!!!!!!!!!!!!!!!!!!!!!!!!!!!!!!!!!!!!!!!!!!!!      ",
"      !!!!!!!!!!!!!!!!!!!!!!!!!!!!!!!!!!!!!!!!!!!!!!!!!!!!!!!!!!!!!!!!!!!!!!!!!!!!!!!!!!!!!!!!!!!!!!!!!!!!!!!!!!!!!!!!!!!!      ",
"      !!!!!!!!!!!!!!!!!!!!!!!!!!!!!!!!!!!!!!!!!!!!!!!!!!!!!!!!!!!!!!!!!!!!!!!!!!!!!!!!!!!!!!!!!!!!!!!!!!!!!!!!!!!!!!!!!!!!      ",
"      !!!!!!!!!!!!!!!!!!!!!!!!!!!!!!!!!!!!!!!!!!!!!!!!!!!!!!!!!!!!!!!!!!!!!!!!!!!!!!!!!!!!!!!!!!!!!!!!!!!!!!!!!!!!!!!!!!!!      ",
"      !!!!!!!!!!!!!!!!!!!!!!!!!!!!!!!!!!!!!!!!!!!!!!!!!!!!!!!!!!!!!!!!!!!!!!!!!!!!!!!!!!!!!!!!!!!!!!!!!!!!!!!!!!!!!!!!!!!!      ",
"      !!!!!!!!!!!!!!!!!!!!!!!!!!!!!!!!!!!!!!!!!!!!!!!!!!!!!!!!!!!!!!!!!!!!!!!!!!!!!!!!!!!!!!!!!!!!!!!!!!!!!!!!!!!!!!!!!!!!      ",
"      !!!!!!!!!!!!!!!!!!!!!!!!!!!!!!!!!!!!!!!!!!!!!!!!!!!!!!!!!!!!!!!!!!!!!!!!!!!!!!!!!!!!!!!!!!!!!!!!!!!!!!!!!!!!!!!!!!!!      ",
"      !!!!!!!!!!!!!!!!!!!!!!!!!!!!!!!!!!!!!!!!!!!!!!!!!!!!!!!!!!!!!!!!!!!!!!!!!!!!!!!!!!!!!!!!!!!!!!!!!!!!!!!!!!!!!!!!!!!!      ",
"      !!!!!!!!!!!!!!!!!!!!!!!!!!!!!!!!!!!!!!!!!!!!!!!!!!!!!!!!!!!!!!!!!!!!!!!!!!!!!!!!!!!!!!!!!!!!!!!!!!!!!!!!!!!!!!!!!!!!      ",
"      !!!!!!!!!!!!!!!!!!!!!!!!!!!!!!!!!!!!!!!!!!!!!!!!!!!!!!!!!!!!!!!!!!!!!!!!!!!!!!!!!!!!!!!!!!!!!!!!!!!!!!!!!!!!!!!!!!!!      ",
"      !!!!!!!!!!!!!!!!!!!!!!!!!!!!!!!!!!!!!!!!!!!!!!!!!!!!!!!!!!!!!!!!!!!!!!!!!!!!!!!!!!!!!!!!!!!!!!!!!!!!!!!!!!!!!!!!!!!!      ",
"      !!!!!!!!!!!!!!!!!!!!!!!!!!!!!!!!#$!!!!!!!!!!!!!!!!!!!!!!!!!!!!!!!!!!!!!!!!!!!!!!!$#!!!!!!!!!!!!!!!!!!!!!!!!!!!!!!!!!      ",
"      !!!!!!!!!!!!!!!!!!!!!!!!!!!!!!!%&'(!!!!!!!!!!!!!!!!!!!!!!!!!!!!!!!!!!!!!!!!!!!!!('&%!!!!!!!!!!!!!!!!!!!!!!!!!!!!!!!!      ",
"      !!!!!!!!!!!!!!!!!!!!!!!!!!!!!!)&**'+!!!!!!!!!!!!!!!!!!!!!!!!!!!!!!!!!!!!!!!!!!!+'**&)!!!!!!!!!!!!!!!!!!!!!!!!!!!!!!!      ",
"      !!!!!!!!!!!!!!!!!!!!!!!!!!!!!,&****&-!!!!!!!!!!!!!!!!!!!!!!!!!!!!!!!!!!!!!!!!!-&****&,!!!!!!!!!!!!!!!!!!!!!!!!!!!!!!      ",
"      !!!!!!!!!!!!!!!!!!!!!!!!!!!!)*******'.!!!!!!!!!!!!!!!!!!!!!!!!!!!!!!!!!!!!!!!.'*******)!!!!!!!!!!!!!!!!!!!!!!!!!!!!!      ",
"      !!!!!!!!!!!!!!!!!!!!!!!!!!!/&********&0!!!!!!!!!!!!!!!!!!!!!!!!!!!!!!!!!!!!!0&********&/!!!!!!!!!!!!!!!!!!!!!!!!!!!!      ",
"      !!!!!!!!!!!!!!!!!!!!!!!!!!1***********&)!!!!!!!!!!!!!!!!!!!!!!!!!!!!!!!!!!!)&***********1!!!!!!!!!!!!!!!!!!!!!!!!!!!      ",
"      !!!!!!!!!!!!!!!!!!!!!!!!!2*333333333333'4!!!!!!!!!!!!!!!!!!!!!!!!!!!!!!!!!4'333333333333*2!!!!!!!!!!!!!!!!!!!!!!!!!!      ",
"      !!!!!!!!!!!!!!!!!!!!!!!!,*33333333333333&5!!!!!!!!!!!!!!!!!!!!!!!!!!!!!!!5&33333333333333*,!!!!!!!!!!!!!!!!!!!!!!!!!      ",
"      !!!!!!!!!!!!!!!!!!!!!!!6*3333333333333333&7!!!!!!!!!!!!!!!!!!!!!!!!!!!!!7&3333333333333333*6!!!!!!!!!!!!!!!!!!!!!!!!      ",
"      !!!!!!!!!!!!!!!!!!!!!!!8**3333333333333333&5!!!!!!!!!!!!!!!!!!!!!!!!!!!5&3333333333333333**8!!!!!!!!!!!!!!!!!!!!!!!!      ",
"      !!!!!!!!!!!!!!!!!!!!!!!!9**3333333333333333*5!!!!!!!!!!!!!!!!!!!!!!!!!5*3333333333333333**9!!!!!!!!!!!!!!!!!!!!!!!!!      ",
"      !!!!!!!!!!!!!!!!!!!!!!!!!:**3333333333333333&#!!!!!!!!!!!!!!!!!!!!!!!#&3333333333333333**:!!!!!!!!!!!!!!!!!!!!!!!!!!      ",
"      !!!!!!!!!!!!!!!!!!!!!!!!!!:**3333333333333333&;!!!!!!!!!!!!!!!!!!!!!;&3333333333333333**:!!!!!!!!!!!!!!!!!!!!!!!!!!!      ",
"      !!!!!!!!!!!!!!!!!!!!!!!!!!!<*3=333333333333333*.!!!!!!!!!!!!!!!!!!!.*333333333333333=3*<!!!!!!!!!!!!!!!!!!!!!!!!!!!!      ",
"      !!!!!!!!!!!!!!!!!!!!!!!!!!!!>**3333333333333333&?!!!!!!!!!!!!!!!!!?&3333333333333333**>!!!!!!!!!!!!!!!!!!!!!!!!!!!!!      ",
"      !!!!!!!!!!!!!!!!!!!!!!!!!!!!!@**================*#!!!!!!!!!!!!!!!#*================**@!!!!!!!!!!!!!!!!!!!!!!!!!!!!!!      ",
"      !!!!!!!!!!!!!!!!!!!!!!!!!!!!!!<*3================*A!!!!!!!!!!!!!A*================3*<!!!!!!!!!!!!!!!!!!!!!!!!!!!!!!!      ",
"      !!!!!!!!!!!!!!!!!!!!!!!!!!!!!!!B*3================*%!!!!!!!!!!!%*================3*B!!!!!!!!!!!!!!!!!!!!!!!!!!!!!!!!      ",
"      !!!!!!!!!!!!!!!!!!!!!!!!!!!!!!!!<*3================*.!!!!!!!!!.*================3*<!!!!!!!!!!!!!!!!!!!!!!!!!!!!!!!!!      ",
"      !!!!!!!!!!!!!!!!!!!!!!!!!!!!!!!!!C33================3D!!!!!!!D3================33C!!!!!!!!!!!!!!!!!!!!!!!!!!!!!!!!!!      ",
"      !!!!!!!!!!!!!!!!!!!!!!!!!!!!!!!!!!E*3================*%!!!!!%*================3*E!!!!!!!!!!!!!!!!!!!!!!!!!!!!!!!!!!!      ",
"      !!!!!!!!!!!!!!!!!!!!!!!!!!!!!!!!!!!F*3================3G!!!G3================3*F!!!!!!!!!!!!!!!!!!!!!!!!!!!!!!!!!!!!      ",
"      !!!!!!!!!!!!!!!!!!!!!!!!!!!!!!!!!!!!H==================3)!)3==================H!!!!!!!!!!!!!!!!!!!!!!!!!!!!!!!!!!!!!      ",
"      !!!!!!!!!!!!!!!!!!!!!!!!!!!!!!!!!!!!!I33=================J=================33I!!!!!!!!!!!!!!!!!!!!!!!!!!!!!!!!!!!!!!      ",
"      !!!!!!!!!!!!!!!!!!!!!!!!!!!!!!!!!!!!!!K3=LLLLLLLLLLLLLLLL=LLLLLLLLLLLLLLLL=3K!!!!!!!!!!!!!!!!!!!!!!!!!!!!!!!!!!!!!!!      ",
"      !!!!!!!!!!!!!!!!!!!!!!!!!!!!!!!!!!!!!!!M==LLLLLLLLLLLLLLLLLLLLLLLLLLLLLLL==M!!!!!!!!!!!!!!!!!!!!!!!!!!!!!!!!!!!!!!!!      ",
"      !!!!!!!!!!!!!!!!!!!!!!!!!!!!!!!!!!!!!!!!N3=LLLLLLLLLLLLLLLLLLLLLLLLLLLLL=3N!!!!!!!!!!!!!!!!!!!!!!!!!!!!!!!!!!!!!!!!!      ",
"      !!!!!!!!!!!!!!!!!!!!!!!!!!!!!!!!!!!!!!!!!O3=LLLLLLLLLLLLLLLLLLLLLLLLLLL=3O!!!!!!!!!!!!!!!!!!!!!!!!!!!!!!!!!!!!!!!!!!      ",
"      !!!!!!!!!!!!!!!!!!!!!!!!!!!!!!!!!!!!!!!!!!N3=LLLLLLLLLLLLLLLLLLLLLLLLL=3N!!!!!!!!!!!!!!!!!!!!!!!!!!!!!!!!!!!!!!!!!!!      ",
"      !!!!!!!!!!!!!!!!!!!!!!!!!!!!!!!!!!!!!!!!!!!83=LLLLLLLLLLLLLLLLLLLLLLL=38!!!!!!!!!!!!!!!!!!!!!!!!!!!!!!!!!!!!!!!!!!!!      ",
"      !!!!!!!!!!!!!!!!!!!!!!!!!!!!!!!!!!!!!!!!!!!!O=LPLLLLLLLLLLLLLLLLLLLPL=O!!!!!!!!!!!!!!!!!!!!!!!!!!!!!!!!!!!!!!!!!!!!!      ",
"      !!!!!!!!!!!!!!!!!!!!!!!!!!!!!!!!!!!!!!!!!!!!!N=LPPPPPPPPPPPPPPPPPPPL=N!!!!!!!!!!!!!!!!!!!!!!!!!!!!!!!!!!!!!!!!!!!!!!      ",
"      !!!!!!!!!!!!!!!!!!!!!!!!!!!!!!!!!!!!!!!!!!!!!!NPLPPPPPPPPPPPPPPPPPLPN!!!!!!!!!!!!!!!!!!!!!!!!!!!!!!!!!!!!!!!!!!!!!!!      ",
"      !!!!!!!!!!!!!!!!!!!!!!!!!!!!!!!!!!!!!!!!!!!!!!!QLPPPPPPPPPPPPPPPPPLQ!!!!!!!!!!!!!!!!!!!!!!!!!!!!!!!!!!!!!!!!!!!!!!!!      ",
"      !!!!!!!!!!!!!!!!!!!!!!!!!!!!!!!!!!!!!!!!!!!!!!RLPPPPPPPPPPPPPPPPPPPLR!!!!!!!!!!!!!!!!!!!!!!!!!!!!!!!!!!!!!!!!!!!!!!!      ",
"      !!!!!!!!!!!!!!!!!!!!!!!!!!!!!!!!!!!!!!!!!!!!!S=PPPPPPPPPPPPPPPPPPPPP=S!!!!!!!!!!!!!!!!!!!!!!!!!!!!!!!!!!!!!!!!!!!!!!      ",
"      !!!!!!!!!!!!!!!!!!!!!!!!!!!!!!!!!!!!!!!!!!!!TLUUUUUUUUUUUUUUUUUUUUUUULT!!!!!!!!!!!!!!!!!!!!!!!!!!!!!!!!!!!!!!!!!!!!!      ",
"      !!!!!!!!!!!!!!!!!!!!!!!!!!!!!!!!!!!!!!!!!!!T=UUUUUUUUUUUUUUUUUUUUUUUUU=T!!!!!!!!!!!!!!!!!!!!!!!!!!!!!!!!!!!!!!!!!!!!      ",
"      !!!!!!!!!!!!!!!!!!!!!!!!!!!!!!!!!!!!!!!!!!VLUUUUUUUUUUUUUUUUUUUUUUUUUUULV!!!!!!!!!!!!!!!!!!!!!!!!!!!!!!!!!!!!!!!!!!!      ",
"      !!!!!!!!!!!!!!!!!!!!!!!!!!!!!!!!!!!!!!!!!WLXXXXXXXXXXXXXXXXXXXXXXXXXXXXXLW!!!!!!!!!!!!!!!!!!!!!!!!!!!!!!!!!!!!!!!!!!      ",
"      !!!!!!!!!!!!!!!!!!!!!!!!!!!!!!!!!!!!!!!!YLXXXXXXXXXXXXXXXXXXXXXXXXXXXXXXXLY!!!!!!!!!!!!!!!!!!!!!!!!!!!!!!!!!!!!!!!!!      ",
"      !!!!!!!!!!!!!!!!!!!!!!!!!!!!!!!!!!!!!!!ZL[[[[[[[[[[[[[[[[[[[[[[[[[[[[[[[[[LZ!!!!!!!!!!!!!!!!!!!!!!!!!!!!!!!!!!!!!!!!      ",
"      !!!!!!!!!!!!!!!!!!!!!!!!!!!!!!!!!!!!!!\L[[[[[[[[[[[[[[[[ULU[[[[[[[[[[[[[[[[L\!!!!!!!!!!!!!!!!!!!!!!!!!!!!!!!!!!!!!!!      ",
"      !!!!!!!!!!!!!!!!!!!!!!!!!!!!!!!!!!!!!ZL[[[[[[[[[[[[[[[[P[][P[[[[[[[[[[[[[[[[LZ!!!!!!!!!!!!!!!!!!!!!!!!!!!!!!!!!!!!!!      ",
"      !!!!!!!!!!!!!!!!!!!!!!!!!!!!!!!!!!!!^P_______________`XLE!ELX`_______________P^!!!!!!!!!!!!!!!!!!!!!!!!!!!!!!!!!!!!!      ",
"      !!!!!!!!!!!!!!!!!!!!!!!!!!!!!!!!!!!WL________________PLa!!!aLP________________LW!!!!!!!!!!!!!!!!!!!!!!!!!!!!!!!!!!!!      ",
"      !!!!!!!!!!!!!!!!!!!!!!!!!!!!!!!!!!VP_______________`PLb!!!!!bLP`_______________PV!!!!!!!!!!!!!!!!!!!!!!!!!!!!!!!!!!!      ",
"      !!!!!!!!!!!!!!!!!!!!!!!!!!!!!!!!!cP_______________`XPM!!!!!!!MPX`_______________Pc!!!!!!!!!!!!!!!!!!!!!!!!!!!!!!!!!!      ",
"      !!!!!!!!!!!!!!!!!!!!!!!!!!!!!!!!dP````````````````ULe!!!!!!!!!eLU````````````````Pd!!!!!!!!!!!!!!!!!!!!!!!!!!!!!!!!!      ",
"      !!!!!!!!!!!!!!!!!!!!!!!!!!!!!!!VU```````````````fXLg!!!!!!!!!!!gLXf```````````````UV!!!!!!!!!!!!!!!!!!!!!!!!!!!!!!!!      ",
"      !!!!!!!!!!!!!!!!!!!!!!!!!!!!!!hU````````````````XUi!!!!!!!!!!!!!iUX````````````````Uh!!!!!!!!!!!!!!!!!!!!!!!!!!!!!!!      ",
"      !!!!!!!!!!!!!!!!!!!!!!!!!!!!!jP```````````````fULk!!!!!!!!!!!!!!!kLUf```````````````Pj!!!!!!!!!!!!!!!!!!!!!!!!!!!!!!      ",
"      !!!!!!!!!!!!!!!!!!!!!!!!!!!!lXffffffffffffffff[Pm!!!!!!!!!!!!!!!!!mP[ffffffffffffffffXl!!!!!!!!!!!!!!!!!!!!!!!!!!!!!      ",
"      !!!!!!!!!!!!!!!!!!!!!!!!!!!nUffffffffffffffff[Xe!!!!!!!!!!!!!!!!!!!eX[ffffffffffffffffUn!!!!!!!!!!!!!!!!!!!!!!!!!!!!      ",
"      !!!!!!!!!!!!!!!!!!!!!!!!!!oPffffffffffffffffXPp!!!!!!!!!!!!!!!!!!!!!pPXffffffffffffffffPo!!!!!!!!!!!!!!!!!!!!!!!!!!!      ",
"      !!!!!!!!!!!!!!!!!!!!!!!!!qXffffffffffffffff[Pr!!!!!!!!!!!!!!!!!!!!!!!rP[ffffffffffffffffXq!!!!!!!!!!!!!!!!!!!!!!!!!!      ",
"      !!!!!!!!!!!!!!!!!!!!!!!!nPffffffffffffffffX[e!!!!!!!!!!!!!!!!!!!!!!!!!e[XffffffffffffffffPn!!!!!!!!!!!!!!!!!!!!!!!!!      ",
"      !!!!!!!!!!!!!!!!!!!!!!!VPffffffffffffffff[Ps!!!!!!!!!!!!!!!!!!!!!!!!!!!sP[ffffffffffffffffPV!!!!!!!!!!!!!!!!!!!!!!!!      ",
"      !!!!!!!!!!!!!!!!!!!!!!!tL`ffffffffffffff[PH!!!!!!!!!!!!!!!!!!!!!!!!!!!!!HP[ffffffffffffff`Lt!!!!!!!!!!!!!!!!!!!!!!!!      ",
"      !!!!!!!!!!!!!!!!!!!!!!!!uL_ffffffffffff[Pe!!!!!!!!!!!!!!!!!!!!!!!!!!!!!!!eP[ffffffffffff_Lu!!!!!!!!!!!!!!!!!!!!!!!!!      ",
"      !!!!!!!!!!!!!!!!!!!!!!!!!vL_ffffffffffXPH!!!!!!!!!!!!!!!!!!!!!!!!!!!!!!!!!HPXffffffffff_Lv!!!!!!!!!!!!!!!!!!!!!!!!!!      ",
"      !!!!!!!!!!!!!!!!!!!!!!!!!!uL_ffffffff_PN!!!!!!!!!!!!!!!!!!!!!!!!!!!!!!!!!!!NP_ffffffff_Lu!!!!!!!!!!!!!!!!!!!!!!!!!!!      ",
"      !!!!!!!!!!!!!!!!!!!!!!!!!!!wL`ffffffXPx!!!!!!!!!!!!!!!!!!!!!!!!!!!!!!!!!!!!!xPXffffff`Lw!!!!!!!!!!!!!!!!!!!!!!!!!!!!      ",
"      !!!!!!!!!!!!!!!!!!!!!!!!!!!!yL_ffffXLm!!!!!!!!!!!!!!!!!!!!!!!!!!!!!!!!!!!!!!!mLXffff_Ly!!!!!!!!!!!!!!!!!!!!!!!!!!!!!      ",
"      !!!!!!!!!!!!!!!!!!!!!!!!!!!!!zL_ff[[i!!!!!!!!!!!!!!!!!!!!!!!!!!!!!!!!!!!!!!!!!i[[ff_Lz!!!!!!!!!!!!!!!!!!!!!!!!!!!!!!      ",
"      !!!!!!!!!!!!!!!!!!!!!!!!!!!!!!wL`XP{!!!!!!!!!!!!!!!!!!!!!!!!!!!!!!!!!!!!!!!!!!!ePX`Lw!!!!!!!!!!!!!!!!!!!!!!!!!!!!!!!      ",
"      !!!!!!!!!!!!!!!!!!!!!!!!!!!!!!!w=La!!!!!!!!!!!!!!!!!!!!!!!!!!!!!!!!!!!!!!!!!!!!!aL=w!!!!!!!!!!!!!!!!!!!!!!!!!!!!!!!!      ",
"      !!!!!!!!!!!!!!!!!!!!!!!!!!!!!!!!wk!!!!!!!!!!!!!!!!!!!!!!!!!!!!!!!!!!!!!!!!!!!!!!!kw!!!!!!!!!!!!!!!!!!!!!!!!!!!!!!!!!      ",
"      !!!!!!!!!!!!!!!!!!!!!!!!!!!!!!!!!!!!!!!!!!!!!!!!!!!!!!!!!!!!!!!!!!!!!!!!!!!!!!!!!!!!!!!!!!!!!!!!!!!!!!!!!!!!!!!!!!!!      ",
"      !!!!!!!!!!!!!!!!!!!!!!!!!!!!!!!!!!!!!!!!!!!!!!!!!!!!!!!!!!!!!!!!!!!!!!!!!!!!!!!!!!!!!!!!!!!!!!!!!!!!!!!!!!!!!!!!!!!!      ",
"      !!!!!!!!!!!!!!!!!!!!!!!!!!!!!!!!!!!!!!!!!!!!!!!!!!!!!!!!!!!!!!!!!!!!!!!!!!!!!!!!!!!!!!!!!!!!!!!!!!!!!!!!!!!!!!!!!!!!      ",
"      !!!!!!!!!!!!!!!!!!!!!!!!!!!!!!!!!!!!!!!!!!!!!!!!!!!!!!!!!!!!!!!!!!!!!!!!!!!!!!!!!!!!!!!!!!!!!!!!!!!!!!!!!!!!!!!!!!!!      ",
"      !!!!!!!!!!!!!!!!!!!!!!!!!!!!!!!!!!!!!!!!!!!!!!!!!!!!!!!!!!!!!!!!!!!!!!!!!!!!!!!!!!!!!!!!!!!!!!!!!!!!!!!!!!!!!!!!!!!!      ",
"      !!!!!!!!!!!!!!!!!!!!!!!!!!!!!!!!!!!!!!!!!!!!!!!!!!!!!!!!!!!!!!!!!!!!!!!!!!!!!!!!!!!!!!!!!!!!!!!!!!!!!!!!!!!!!!!!!!!!      ",
"      !!!!!!!!!!!!!!!!!!!!!!!!!!!!!!!!!!!!!!!!!!!!!!!!!!!!!!!!!!!!!!!!!!!!!!!!!!!!!!!!!!!!!!!!!!!!!!!!!!!!!!!!!!!!!!!!!!!!      ",
"      !!!!!!!!!!!!!!!!!!!!!!!!!!!!!!!!!!!!!!!!!!!!!!!!!!!!!!!!!!!!!!!!!!!!!!!!!!!!!!!!!!!!!!!!!!!!!!!!!!!!!!!!!!!!!!!!!!!!      ",
"      !!!!!!!!!!!!!!!!!!!!!!!!!!!!!!!!!!!!!!!!!!!!!!!!!!!!!!!!!!!!!!!!!!!!!!!!!!!!!!!!!!!!!!!!!!!!!!!!!!!!!!!!!!!!!!!!!!!!      ",
"      !!!!!!!!!!!!!!!!!!!!!!!!!!!!!!!!!!!!!!!!!!!!!!!!!!!!!!!!!!!!!!!!!!!!!!!!!!!!!!!!!!!!!!!!!!!!!!!!!!!!!!!!!!!!!!!!!!!!      ",
"      !!!!!!!!!!!!!!!!!!!!!!!!!!!!!!!!!!!!!!!!!!!!!!!!!!!!!!!!!!!!!!!!!!!!!!!!!!!!!!!!!!!!!!!!!!!!!!!!!!!!!!!!!!!!!!!!!!!!      ",
"      !!!!!!!!!!!!!!!!!!!!!!!!!!!!!!!!!!!!!!!!!!!!!!!!!!!!!!!!!!!!!!!!!!!!!!!!!!!!!!!!!!!!!!!!!!!!!!!!!!!!!!!!!!!!!!!!!!!!      ",
"      !!!!!!!!!!!!!!!!!!!!!!!!!!!!!!!!!!!!!!!!!!!!!!!!!!!!!!!!!!!!!!!!!!!!!!!!!!!!!!!!!!!!!!!!!!!!!!!!!!!!!!!!!!!!!!!!!!!!      ",
"      !!!!!!!!!!!!!!!!!!!!!!!!!!!!!!!!!!!!!!!!!!!!!!!!!!!!!!!!!!!!!!!!!!!!!!!!!!!!!!!!!!!!!!!!!!!!!!!!!!!!!!!!!!!!!!!!!!!!      ",
"      !!!!!!!!!!!!!!!!!!!!!!!!!!!!!!!!!!!!!!!!!!!!!!!!!!!!!!!!!!!!!!!!!!!!!!!!!!!!!!!!!!!!!!!!!!!!!!!!!!!!!!!!!!!!!!!!!!!!      ",
"      !!!!!!!!!!!!!!!!!!!!!!!!!!!!!!!!!!!!!!!!!!!!!!!!!!!!!!!!!!!!!!!!!!!!!!!!!!!!!!!!!!!!!!!!!!!!!!!!!!!!!!!!!!!!!!!!!!!!      ",
"      !!!!!!!!!!!!!!!!!!!!!!!!!!!!!!!!!!!!!!!!!!!!!!!!!!!!!!!!!!!!!!!!!!!!!!!!!!!!!!!!!!!!!!!!!!!!!!!!!!!!!!!!!!!!!!!!!!!!      ",
"      !!!!!!!!!!!!!!!!!!!!!!!!!!!!!!!!!!!!!!!!!!!!!!!!!!!!!!!!!!!!!!!!!!!!!!!!!!!!!!!!!!!!!!!!!!!!!!!!!!!!!!!!!!!!!!!!!!!!      ",
"      !!!!!!!!!!!!!!!!!!!!!!!!!!!!!!!!!!!!!!!!!!!!!!!!!!!!!!!!!!!!!!!!!!!!!!!!!!!!!!!!!!!!!!!!!!!!!!!!!!!!!!!!!!!!!!!!!!!!      ",
"      !!!!!!!!!!!!!!!!!!!!!!!!!!!!!!!!!!!!!!!!!!!!!!!!!!!!!!!!!!!!!!!!!!!!!!!!!!!!!!!!!!!!!!!!!!!!!!!!!!!!!!!!!!!!!!!!!!!!      ",
"      !!!!!!!!!!!!!!!!!!!!!!!!!!!!!!!!!!!!!!!!!!!!!!!!!!!!!!!!!!!!!!!!!!!!!!!!!!!!!!!!!!!!!!!!!!!!!!!!!!!!!!!!!!!!!!!!!!!!      ",
"      !!!!!!!!!!!!!!!!!!!!!!!!!!!!!!!!!!!!!!!!!!!!!!!!!!!!!!!!!!!!!!!!!!!!!!!!!!!!!!!!!!!!!!!!!!!!!!!!!!!!!!!!!!!!!!!!!!!!      ",
"      !!!!!!!!!!!!!!!!!!!!!!!!!!!!!!!!!!!!!!!!!!!!!!!!!!!!!!!!!!!!!!!!!!!!!!!!!!!!!!!!!!!!!!!!!!!!!!!!!!!!!!!!!!!!!!!!!!!!      ",
"      !!!!!!!!!!!!!!!!!!!!!!!!!!!!!!!!!!!!!!!!!!!!!!!!!!!!!!!!!!!!!!!!!!!!!!!!!!!!!!!!!!!!!!!!!!!!!!!!!!!!!!!!!!!!!!!!!!!!      ",
"                                                                                                                                ",
"                                                                                                                                ",
"                                                                                                                                ",
"                                                                                                                                ",
"                                                                                                                                ",
"                                                                                                                                "
};