/* XPM */
static char *d2d8d0f6f7f9445da9430d408fd3311f8AwgkNBI7T1UwbNd[] = {
/* columns rows colors chars-per-pixel */
"128 128 31 1 ",
"  c #A71C21",
". c #AB1E22",
"X c #AF1F23",
"o c #B01F23",
"O c #B31F24",
"+ c #B41F24",
"@ c #B71F25",
"# c #BC1F25",
"$ c #AF2023",
"% c #B92025",
"& c #BC2025",
"* c #C11F26",
"= c #E01F26",
"- c #E41E25",
"; c #EA1C24",
": c #ED1C24",
"> c #ED1F24",
", c #C12027",
"< c #ED2024",
"1 c #E92427",
"2 c #ED2427",
"3 c #E9262A",
"4 c #ED2428",
"5 c #ED2729",
"6 c #EA282B",
"7 c #EE282B",
"8 c #EE2A2D",
"9 c #ED2C2E",
"0 c #FB8500",
"q c #FFB703",
"w c #0310FF",
/* pixels */
"00000000000000000000000000000000000000000000000000000000000000wwww00000000000000000000000000000000000000000000000000000000000000",
"00000000000000000000000000000000000000000000000000000000000000wwww00000000000000000000000000000000000000000000000000000000000000",
"00000000000000000000000000000000000000000000000000000000000000wwww00000000000000000000000000000000000000000000000000000000000000",
"00000000000000000000000000000000000000000000000000000000000000wwww00000000000000000000000000000000000000000000000000000000000000",
"00000000000000000000000000000000000000000000000000000000000000wwww00000000000000000000000000000000000000000000000000000000000000",
"00000000000000000000000000000000000000000000000000000000000000wwww00000000000000000000000000000000000000000000000000000000000000",
"000000qqqqqqqqqqqqqqqqqqqqqqqqqqqqqqqqqqqqqqqqqqqqqqqqqqqqqqqqwwwwqqqqqqqqqqqqqqqqqqqqqqqqqqqqqqqqqqqqqqqqqqqqqqqqqqqqqqqq000000",
"000000qqqqqqqqqqqqqqqqqqqqqqqqqqqqqqqqqqqqqqqqqqqqqqqqqqqqqqqqwwwwqqqqqqqqqqqqqqqqqqqqqqqqqqqqqqqqqqqqqqqqqqqqqqqqqqqqqqqq000000",
"000000qqqqqqqqqqqqqqqqqqqqqqqqqqqqqqqqqqqqqqqqqqqqqqqqqqqqqqqqwwwwqqqqqqqqqqqqqqqqqqqqqqqqqqqqqqqqqqqqqqqqqqqqqqqqqqqqqqqq000000",
"000000qqqqqqqqqqqqqqqqqqqqqqqqqqqqqqqqqqqqqqqqqqqqqqqqqqqqqqqqwwwwqqqqqqqqqqqqqqqqqqqqqqqqqqqqqqqqqqqqqqqqqqqqqqqqqqqqqqqq000000",
"000000qqqqqqqqqqqqqqqqqqqqqqqqqqqqqqqqqqqqqqqqqqqqqqqqqqqqqqqqwwwwqqqqqqqqqqqqqqqqqqqqqqqqqqqqqqqqqqqqqqqqqqqqqqqqqqqqqqqq000000",
"000000qqqqqqqqqqqqqqqqqqqqqqqqqqqqqqqqqqqqqqqqqqqqqqqqqqqqqqqqwwwwqqqqqqqqqqqqqqqqqqqqqqqqqqqqqqqqqqqqqqqqqqqqqqqqqqqqqqqq000000",
"000000qqqqqqqqqqqqqqqqqqqqqqqqqqqqqqqqqqqqqqqqqqqqqqqqqqqqqqqqwwwwqqqqqqqqqqqqqqqqqqqqqqqqqqqqqqqqqqqqqqqqqqqqqqqqqqqqqqqq000000",
"000000qqqqqqqqqqqqqqqqqqqqqqqqqqqqqqqqqqqqqqqqqqqqqqqqqqqqqqqqwwwwqqqqqqqqqqqqqqqqqqqqqqqqqqqqqqqqqqqqqqqqqqqqqqqqqqqqqqqq000000",
"000000qqqqqqqqqqqqqqqqqqqqqqqqqqqqqqqqqqqqqqqqqqqqqqqqqqqqqqqqwwwwqqqqqqqqqqqqqqqqqqqqqqqqqqqqqqqqqqqqqqqqqqqqqqqqqqqqqqqq000000",
"000000qqqqqqqqqqqqqqqqqqqqqqqqqqqqqqqqqqqqqqqqqqqqqqqqqqqqqqqqwwwwqqqqqqqqqqqqqqqqqqqqqqqqqqqqqqqqqqqqqqqqqqqqqqqqqqqqqqqq000000",
"000000qqqqqqqqqqqqqqqqqqqqqqqqqqqqqqqqqqqqqqqqqqqqqqqqqqqqqqqqwwwwqqqqqqqqqqqqqqqqqqqqqqqqqqqqqqqqqqqqqqqqqqqqqqqqqqqqqqqq000000",
"000000qqqqqqqqqqqqqqqqqqqqqqqqqqqqqqqqqqqqqqqqqqqqqqqqqqqqqqqqwwwwqqqqqqqqqqqqqqqqqqqqqqqqqqqqqqqqqqqqqqqqqqqqqqqqqqqqqqqq000000",
"000000qqqqqqqqqqqqqqqqqqqqqqqqqqqqqqqqqqqqqqqqqqqqqqqqqqqqqqqqwwwwqqqqqqqqqqqqqqqqqqqqqqqqqqqqqqqqqqqqqqqqqqqqqqqqqqqqqqqq000000",
"000000qqqqqqqqqqqqqqqqqqqqqqqqqqqqqqqqqqqqqqqqqqqqqqqqqqqqqqqqwwwwqqqqqqqqqqqqqqqqqqqqqqqqqqqqqqqqqqqqqqqqqqqqqqqqqqqqqqqq000000",
"000000qqqqqqqqqqqqqqqqqqqqqqqqqqqqqqqqqqqqqqqqqqqqqqqqqqqqqqqqwwwwqqqqqqqqqqqqqqqqqqqqqqqqqqqqqqqqqqqqqqqqqqqqqqqqqqqqqqqq000000",
"000000qqqqqqqqqqqqqqqqqqqqqqqqqqqqqqqqqqqqqqqqqqqqqqqqqqqqqqqqwwwwqqqqqqqqqqqqqqqqqqqqqqqqqqqqqqqqqqqqqqqqqqqqqqqqqqqqqqqq000000",
"000000qqqqqqqqqqqqqqqqqqqqqqqqqqqqqqqqqqqqqqqqqqqqqqqqqqqqqqqqwwwwqqqqqqqqqqqqqqqqqqqqqqqqqqqqqqqqqqqqqqqqqqqqqqqqqqqqqqqq000000",
"000000qqqqqqqqqqqqqqqqqqqqqqqqqqqqqqqqqqqqqqqqqqqqqqqqqqqqqqqqwwwwqqqqqqqqqqqqqqqqqqqqqqqqqqqqqqqqqqqqqqqqqqqqqqqqqqqqqqqq000000",
"000000qqqqqqqqqqqqqqqqqqqqqqqqqqqqqqqqqqqqqqqqqqqqqqqqqqqqqqqqwwwwqqqqqqqqqqqqqqqqqqqqqqqqqqqqqqqqqqqqqqqqqqqqqqqqqqqqqqqq000000",
"000000qqqqqqqqqqqqqqqqqqqqqqqqqqqqqqqqqqqqqqqqqqqqqqqqqqqqqqqqwwwwqqqqqqqqqqqqqqqqqqqqqqqqqqqqqqqqqqqqqqqqqqqqqqqqqqqqqqqq000000",
"000000qqqqqqqqqqqqqqqqqqqqqqqqqqqqqqqqqqqqqqqqqqqqqqqqqqqqqqqqwwwwqqqqqqqqqqqqqqqqqqqqqqqqqqqqqqqqqqqqqqqqqqqqqqqqqqqqqqqq000000",
"000000qqqqqqqqqqqqqqqqqqqqqqqqqqqqqqqqqqqqqqqqqqqqqqqqqqqqqqqqwwwwqqqqqqqqqqqqqqqqqqqqqqqqqqqqqqqqqqqqqqqqqqqqqqqqqqqqqqqq000000",
"000000qqqqqqqqqqqqqqqqqqqqqqqqqqqqqqqqqqqqqqqqqqqqqqqqqqqqqqqqwwwwqqqqqqqqqqqqqqqqqqqqqqqqqqqqqqqqqqqqqqqqqqqqqqqqqqqqqqqq000000",
"000000qqqqqqqqqqqqqqqqqqqqqqqqqqqqqqqq78qqqqqqqqqqqqqqqqqqqqqqwwwwqqqqqqqqqqqqqqqqqqqqq87qqqqqqqqqqqqqqqqqqqqqqqqqqqqqqqqq000000",
"000000qqqqqqqqqqqqqqqqqqqqqqqqqqqqqqq5><8qqqqqqqqqqqqqqqqqqqqqwwwwqqqqqqqqqqqqqqqqqqqq8<>5qqqqqqqqqqqqqqqqqqqqqqqqqqqqqqqq000000",
"000000qqqqqqqqqqqqqqqqqqqqqqqqqqqqqq5>>><9qqqqqqqqqqqqqqqqqqqqwwwwqqqqqqqqqqqqqqqqqqq9<>>>5qqqqqqqqqqqqqqqqqqqqqqqqqqqqqqq000000",
"000000qqqqqqqqqqqqqqqqqqqqqqqqqqqqq2>>>>>>8qqqqqqqqqqqqqqqqqqqwwwwqqqqqqqqqqqqqqqqqq8>>>>>><qqqqqqqqqqqqqqqqqqqqqqqqqqqqqq000000",
"000000qqqqqqqqqqqqqqqqqqqqqqqqqqqq5>>>>>>>>8qqqqqqqqqqqqqqqqqqwwwwqqqqqqqqqqqqqqqqq8<>>>>>>>5qqqqqqqqqqqqqqqqqqqqqqqqqqqqq000000",
"000000qqqqqqqqqqqqqqqqqqqqqqqqqqq5>>>>>>>>>>8qqqqqqqqqqqqqqqqqwwwwqqqqqqqqqqqqqqqq8>>>>>>>>>>5qqqqqqqqqqqqqqqqqqqqqqqqqqqq000000",
"000000qqqqqqqqqqqqqqqqqqqqqqqqqq5>>>>>>>>>>>>5qqqqqqqqqqqqqqqqwwwwqqqqqqqqqqqqqqq5>>>>>>>>>>>>5qqqqqqqqqqqqqqqqqqqqqqqqqqq000000",
"000000qqqqqqqqqqqqqqqqqqqqqqqqq<>:>>>>>>>>>>>>5qqqqqqqqqqqqqqqwwwwqqqqqqqqqqqqqq5>>>>>>>>>::>>><qqqqqqqqqqqqqqqqqqqqqqqqqq000000",
"000000qqqqqqqqqqqqqqqqqqqqqqqq2>::>>>>>>>>>>>>>8qqqqqqqqqqqqqqwwwwqqqqqqqqqqqqq8>>>>>>>>>>::>>>>2qqqqqqqqqqqqqqqqqqqqqqqqq000000",
"000000qqqqqqqqqqqqqqqqqqqqqqq<>>>>>>>:>>>>>>>>>>5qqqqqqqqqqqqqwwwwqqqqqqqqqqqq5>:>>>:>>>>>>>>>>>><qqqqqqqqqqqqqqqqqqqqqqqq000000",
"000000qqqqqqqqqqqqqqqqqqqqqqq@>>>>>>>>>>>>>>>>>>>8qqqqqqqqqqqqwwwwqqqqqqqqqqq8>>>>>>>>>>>>>>>>>>>@qqqqqqqqqqqqqqqqqqqqqqqq000000",
"000000qqqqqqqqqqqqqqqqqqqqqqqq&>>>>>::>>>::>>>>>>>8qqqqqqqqqqqwwwwqqqqqqqqqq8>>>>>>>>>>>::::>>>>&qqqqqqqqqqqqqqqqqqqqqqqqq000000",
"000000qqqqqqqqqqqqqqqqqqqqqqqqq@>>:>>>>>>>:>::>>>>>7qqqqqqqqqqwwwwqqqqqqqqq5>>>>>>>>>>>>::>>>>>@qqqqqqqqqqqqqqqqqqqqqqqqqq000000",
"000000qqqqqqqqqqqqqqqqqqqqqqqqqq@>>>>>>>>>:>::>>>>>>7qqqqqqqqqwwwwqqqqqqqq5>::>>>>>>>>>>>>>>>>@qqqqqqqqqqqqqqqqqqqqqqqqqqq000000",
"000000qqqqqqqqqqqqqqqqqqqqqqqqqqq@>:>>>>>>>>>>>>>>>>>8qqqqqqqqwwwwqqqqqqq8>>>>>:>>>>>>>>>>>>>%qqqqqqqqqqqqqqqqqqqqqqqqqqqq000000",
"000000qqqqqqqqqqqqqqqqqqqqqqqqqqqq@>>>>>>>::::>>>>>>>>5qqqqqqqwwwwqqqqqq5>>>>>>:::>>>>>>>>>>@qqqqqqqqqqqqqqqqqqqqqqqqqqqqq000000",
"000000qqqqqqqqqqqqqqqqqqqqqqqqqqqqq#>>>>>>>>>>>:>>>>>>>5qqqqqqwwwwqqqqq5>>>>;>>>::>>>>::>>>#qqqqqqqqqqqqqqqqqqqqqqqqqqqqqq000000",
"000000qqqqqqqqqqqqqqqqqqqqqqqqqqqqqq%>>>:>>>>>>:>>>>>>>>8qqqqqwwwwqqqq8>>>>>>>:>:>>>>>::>>@qqqqqqqqqqqqqqqqqqqqqqqqqqqqqqq000000",
"000000qqqqqqqqqqqqqqqqqqqqqqqqqqqqqqqO>>:>>>>>>>:::>>>>>>5qqqqwwwwqqq5>>>>>>>::>:>>>>>::>Oqqqqqqqqqqqqqqqqqqqqqqqqqqqqqqqq000000",
"000000qqqqqqqqqqqqqqqqqqqqqqqqqqqqqqqq%>>>:>:>>>:>:>>>:::>8qqqwwwwqq8>>>>>>>>>>>>>>>>>>>%qqqqqqqqqqqqqqqqqqqqqqqqqqqqqqqqq000000",
"000000qqqqqqqqqqqqqqqqqqqqqqqqqqqqqqqqqO>::>:>>>:>>>>>::>>><qqwwwwq2>>>>>>>>>>>>>>>>>>>Oqqqqqqqqqqqqqqqqqqqqqqqqqqqqqqqqqq000000",
"000000qqqqqqqqqqqqqqqqqqqqqqqqqqqqqqqqqqO>>>>>>>>>>>>>>>>>>>5qwwww5>>>>>>>>>>>>>>>>>>>Oqqqqqqqqqqqqqqqqqqqqqqqqqqqqqqqqqqq000000",
"000000qqqqqqqqqqqqqqqqqqqqqqqqqqqqqqqqqqq@>>>>>>>>>>>>>>>>>>>7wwww>>>>>>>>::>>>>:>>>>@qqqqqqqqqqqqqqqqqqqqqqqqqqqqqqqqqqqq000000",
"000000qqqqqqqqqqqqqqqqqqqqqqqqqqqqqqqqqqqqX>>>>>::>>>>>>>>>>>>wwww>>>>>>>>>>>>>>:>>>Xqqqqqqqqqqqqqqqqqqqqqqqqqqqqqqqqqqqqq000000",
"000000qqqqqqqqqqqqqqqqqqqqqqqqqqqqqqqqqqqqq$>>>>::>>>>>>>>>>>>wwww>>>>>>>>>>>>>>>>>Xqqqqqqqqqqqqqqqqqqqqqqqqqqqqqqqqqqqqqq000000",
"000000qqqqqqqqqqqqqqqqqqqqqqqqqqqqqqqqqqqqqq@>>;;;;;;;;;;;;;;;wwww;;;;;;;;;;;;;;>:@qqqqqqqqqqqqqqqqqqqqqqqqqqqqqqqqqqqqqqq000000",
"000000qqqqqqqqqqqqqqqqqqqqqqqqqqqqqqqqqqqqqqqo>>;;;;;;;;;;;;;;wwww;;;;;;;;;;;;;>>oqqqqqqqqqqqqqqqqqqqqqqqqqqqqqqqqqqqqqqqq000000",
"000000qqqqqqqqqqqqqqqqqqqqqqqqqqqqqqqqqqqqqqqqX>>;;;;;;;;;;;;;wwww;;;;;;;;;;;;>>Xqqqqqqqqqqqqqqqqqqqqqqqqqqqqqqqqqqqqqqqqq000000",
"000000qqqqqqqqqqqqqqqqqqqqqqqqqqqqqqqqqqqqqqqqqO>>;;;;;;;;;;;;wwww;;;;;;;;;;;>>Oqqqqqqqqqqqqqqqqqqqqqqqqqqqqqqqqqqqqqqqqqq000000",
"000000qqqqqqqqqqqqqqqqqqqqqqqqqqqqqqqqqqqqqqqqqqX>>;;;;;;;;;;;wwww;;;;;;;;;;>>Xqqqqqqqqqqqqqqqqqqqqqqqqqqqqqqqqqqqqqqqqqqq000000",
"000000qqqqqqqqqqqqqqqqqqqqqqqqqqqqqqqqqqqqqqqqqqq@>>;;;;;;;;;;wwww;;;;;;;;;>>@qqqqqqqqqqqqqqqqqqqqqqqqqqqqqqqqqqqqqqqqqqqq000000",
"000000qqqqqqqqqqqqqqqqqqqqqqqqqqqqqqqqqqqqqqqqqqqqO>;;;;;;;;;;wwww;;;;;;;;;>Oqqqqqqqqqqqqqqqqqqqqqqqqqqqqqqqqqqqqqqqqqqqqq000000",
"000000qqqqqqqqqqqqqqqqqqqqqqqqqqqqqqqqqqqqqqqqqqqqqX>;;;;;;;;;wwww;;;;;;;;>Xqqqqqqqqqqqqqqqqqqqqqqqqqqqqqqqqqqqqqqqqqqqqqq000000",
"000000qqqqqqqqqqqqqqqqqqqqqqqqqqqqqqqqqqqqqqqqqqqqqqX;;;;;;;;;wwww;;;;;;;;Xqqqqqqqqqqqqqqqqqqqqqqqqqqqqqqqqqqqqqqqqqqqqqqq000000",
"000000qqqqqqqqqqqqqqqqqqqqqqqqqqqqqqqqqqqqqqqqqqqqqqq=;;;;;;;;wwww;;;;;;;=qqqqqqqqqqqqqqqqqqqqqqqqqqqqqqqqqqqqqqqqqqqqqqqq000000",
"000000qqqqqqqqqqqqqqqqqqqqqqqqqqqqqqqqqqqqqqqqqqqqqq7;;;;;;;;;wwww;;;;;;;;7qqqqqqqqqqqqqqqqqqqqqqqqqqqqqqqqqqqqqqqqqqqqqqq000000",
"000000qqqqqqqqqqqqqqqqqqqqqqqqqqqqqqqqqqqqqqqqqqqqq5>;;;;;;;;;wwww;;;;;;;;>5qqqqqqqqqqqqqqqqqqqqqqqqqqqqqqqqqqqqqqqqqqqqqq000000",
"000000qqqqqqqqqqqqqqqqqqqqqqqqqqqqqqqqqqqqqqqqqqqq1;;;;;;;;;;;wwww;;;;;;;;;;1qqqqqqqqqqqqqqqqqqqqqqqqqqqqqqqqqqqqqqqqqqqqq000000",
"000000qqqqqqqqqqqqqqqqqqqqqqqqqqqqqqqqqqqqqqqqqqq1>;;;;;;;;;;;wwww;;;;;;;;;;>1qqqqqqqqqqqqqqqqqqqqqqqqqqqqqqqqqqqqqqqqqqqq000000",
"000000qqqqqqqqqqqqqqqqqqqqqqqqqqqqqqqqqqqqqqqqqq3;;;;;;;;;;;;;wwww;;;;;;;;;;;;3qqqqqqqqqqqqqqqqqqqqqqqqqqqqqqqqqqqqqqqqqqq000000",
"000000qqqqqqqqqqqqqqqqqqqqqqqqqqqqqqqqqqqqqqqqq3;;;;;;;;;;;;;;wwww;;;;;-;;;;--;3qqqqqqqqqqqqqqqqqqqqqqqqqqqqqqqqqqqqqqqqqq000000",
"000000qqqqqqqqqqqqqqqqqqqqqqqqqqqqqqqqqqqqqqqq3;;;;;-;;;;;;;;;wwww;;;;-;;;;;-;;;3qqqqqqqqqqqqqqqqqqqqqqqqqqqqqqqqqqqqqqqqq000000",
"000000qqqqqqqqqqqqqqqqqqqqqqqqqqqqqqqqqqqqqqq3;---------------wwww------------;;;3qqqqqqqqqqqqqqqqqqqqqqqqqqqqqqqqqqqqqqqq000000",
"000000qqqqqqqqqqqqqqqqqqqqqqqqqqqqqqqqqqqqqq3;;;----;;;;;-----wwww---;;;;---;;;;-;3qqqqqqqqqqqqqqqqqqqqqqqqqqqqqqqqqqqqqqq000000",
"000000qqqqqqqqqqqqqqqqqqqqqqqqqqqqqqqqqqqqq3;;;;----;;;;;----;wwww----;;;;--;;;;--;3qqqqqqqqqqqqqqqqqqqqqqqqqqqqqqqqqqqqqq000000",
"000000qqqqqqqqqqqqqqqqqqqqqqqqqqqqqqqqqqqq3;----------------;;wwww;----------------;3qqqqqqqqqqqqqqqqqqqqqqqqqqqqqqqqqqqqq000000",
"000000qqqqqqqqqqqqqqqqqqqqqqqqqqqqqqqqqqq3;----------------;;Xwwww;;----------------;3qqqqqqqqqqqqqqqqqqqqqqqqqqqqqqqqqqqq000000",
"000000qqqqqqqqqqqqqqqqqqqqqqqqqqqqqqqqqq3;----------------;;oqwwwwo;;----------------;3qqqqqqqqqqqqqqqqqqqqqqqqqqqqqqqqqqq000000",
"000000qqqqqqqqqqqqqqqqqqqqqqqqqqqqqqqqq6;----------------;;oqqwwwwqo;;----------------;6qqqqqqqqqqqqqqqqqqqqqqqqqqqqqqqqqq000000",
"000000qqqqqqqqqqqqqqqqqqqqqqqqqqqqqqqq3;----------------;;.qqqwwwwqq.;;----------------;3qqqqqqqqqqqqqqqqqqqqqqqqqqqqqqqqq000000",
"000000qqqqqqqqqqqqqqqqqqqqqqqqqqqqqqq3;----------------;;oqqqqwwwwqqqX;;----------------;3qqqqqqqqqqqqqqqqqqqqqqqqqqqqqqqq000000",
"000000qqqqqqqqqqqqqqqqqqqqqqqqqqqqqq1;----------------;;.qqqqqwwwwqqqq.;;----------------;1qqqqqqqqqqqqqqqqqqqqqqqqqqqqqqq000000",
"000000qqqqqqqqqqqqqqqqqqqqqqqqqqqqq1;----------------;;.qqqqqqwwwwqqqqq.;;----------------;1qqqqqqqqqqqqqqqqqqqqqqqqqqqqqq000000",
"000000qqqqqqqqqqqqqqqqqqqqqqqqqqqq3;-----------------;XqqqqqqqwwwwqqqqqqX;-----------------;3qqqqqqqqqqqqqqqqqqqqqqqqqqqqq000000",
"000000qqqqqqqqqqqqqqqqqqqqqqqqqqq3;-----------------;.qqqqqqqqwwwwqqqqqqq.;-----------------;3qqqqqqqqqqqqqqqqqqqqqqqqqqqq000000",
"000000qqqqqqqqqqqqqqqqqqqqqqqqqq3;----------------;;.qqqqqqqqqwwwwqqqqqqqq.;;----------------;3qqqqqqqqqqqqqqqqqqqqqqqqqqq000000",
"000000qqqqqqqqqqqqqqqqqqqqqqqqq3;-----------------;XqqqqqqqqqqwwwwqqqqqqqqqX;-----------------;3qqqqqqqqqqqqqqqqqqqqqqqqqq000000",
"000000qqqqqqqqqqqqqqqqqqqqqqqq3;----------------;-.qqqqqqqqqqqwwwwqqqqqqqqqq.-;----------------;3qqqqqqqqqqqqqqqqqqqqqqqqq000000",
"000000qqqqqqqqqqqqqqqqqqqqqqq3;-----------------; qqqqqqqqqqqqwwwwqqqqqqqqqqq ;-----------------;3qqqqqqqqqqqqqqqqqqqqqqqq000000",
"000000qqqqqqqqqqqqqqqqqqqqqqq,;----------------;XqqqqqqqqqqqqqwwwwqqqqqqqqqqqqX;----------------;,qqqqqqqqqqqqqqqqqqqqqqqq000000",
"000000qqqqqqqqqqqqqqqqqqqqqqqq,;--------------;.qqqqqqqqqqqqqqwwwwqqqqqqqqqqqqq.;--------------;,qqqqqqqqqqqqqqqqqqqqqqqqq000000",
"000000qqqqqqqqqqqqqqqqqqqqqqqqq&;-----------;;XqqqqqqqqqqqqqqqwwwwqqqqqqqqqqqqqqX;;-----------;&qqqqqqqqqqqqqqqqqqqqqqqqqq000000",
"000000qqqqqqqqqqqqqqqqqqqqqqqqqq,;----------;XqqqqqqqqqqqqqqqqwwwwqqqqqqqqqqqqqqqX;----------;,qqqqqqqqqqqqqqqqqqqqqqqqqqq000000",
"000000qqqqqqqqqqqqqqqqqqqqqqqqqqq&;-------;;.qqqqqqqqqqqqqqqqqwwwwqqqqqqqqqqqqqqqq.;;-------;&qqqqqqqqqqqqqqqqqqqqqqqqqqqq000000",
"000000qqqqqqqqqqqqqqqqqqqqqqqqqqqq,;-----;;XqqqqqqqqqqqqqqqqqqwwwwqqqqqqqqqqqqqqqqqX;;-----;,qqqqqqqqqqqqqqqqqqqqqqqqqqqqq000000",
"000000qqqqqqqqqqqqqqqqqqqqqqqqqqqqq*;-----.qqqqqqqqqqqqqqqqqqqwwwwqqqqqqqqqqqqqqqqqq.-----;*qqqqqqqqqqqqqqqqqqqqqqqqqqqqqq000000",
"000000qqqqqqqqqqqqqqqqqqqqqqqqqqqqqq&;-;;.qqqqqqqqqqqqqqqqqqqqwwwwqqqqqqqqqqqqqqqqqqq.;;-;&qqqqqqqqqqqqqqqqqqqqqqqqqqqqqqq000000",
"000000qqqqqqqqqqqqqqqqqqqqqqqqqqqqqqq&>;XqqqqqqqqqqqqqqqqqqqqqwwwwqqqqqqqqqqqqqqqqqqqqX;>&qqqqqqqqqqqqqqqqqqqqqqqqqqqqqqqq000000",
"000000qqqqqqqqqqqqqqqqqqqqqqqqqqqqqqqq&.qqqqqqqqqqqqqqqqqqqqqqwwwwqqqqqqqqqqqqqqqqqqqqq.&qqqqqqqqqqqqqqqqqqqqqqqqqqqqqqqqq000000",
"000000qqqqqqqqqqqqqqqqqqqqqqqqqqqqqqqqqqqqqqqqqqqqqqqqqqqqqqqqwwwwqqqqqqqqqqqqqqqqqqqqqqqqqqqqqqqqqqqqqqqqqqqqqqqqqqqqqqqq000000",
"000000qqqqqqqqqqqqqqqqqqqqqqqqqqqqqqqqqqqqqqqqqqqqqqqqqqqqqqqqwwwwqqqqqqqqqqqqqqqqqqqqqqqqqqqqqqqqqqqqqqqqqqqqqqqqqqqqqqqq000000",
"000000qqqqqqqqqqqqqqqqqqqqqqqqqqqqqqqqqqqqqqqqqqqqqqqqqqqqqqqqwwwwqqqqqqqqqqqqqqqqqqqqqqqqqqqqqqqqqqqqqqqqqqqqqqqqqqqqqqqq000000",
"000000qqqqqqqqqqqqqqqqqqqqqqqqqqqqqqqqqqqqqqqqqqqqqqqqqqqqqqqqwwwwqqqqqqqqqqqqqqqqqqqqqqqqqqqqqqqqqqqqqqqqqqqqqqqqqqqqqqqq000000",
"000000qqqqqqqqqqqqqqqqqqqqqqqqqqqqqqqqqqqqqqqqqqqqqqqqqqqqqqqqwwwwqqqqqqqqqqqqqqqqqqqqqqqqqqqqqqqqqqqqqqqqqqqqqqqqqqqqqqqq000000",
"000000qqqqqqqqqqqqqqqqqqqqqqqqqqqqqqqqqqqqqqqqqqqqqqqqqqqqqqqqwwwwqqqqqqqqqqqqqqqqqqqqqqqqqqqqqqqqqqqqqqqqqqqqqqqqqqqqqqqq000000",
"000000qqqqqqqqqqqqqqqqqqqqqqqqqqqqqqqqqqqqqqqqqqqqqqqqqqqqqqqqwwwwqqqqqqqqqqqqqqqqqqqqqqqqqqqqqqqqqqqqqqqqqqqqqqqqqqqqqqqq000000",
"000000qqqqqqqqqqqqqqqqqqqqqqqqqqqqqqqqqqqqqqqqqqqqqqqqqqqqqqqqwwwwqqqqqqqqqqqqqqqqqqqqqqqqqqqqqqqqqqqqqqqqqqqqqqqqqqqqqqqq000000",
"000000qqqqqqqqqqqqqqqqqqqqqqqqqqqqqqqqqqqqqqqqqqqqqqqqqqqqqqqqwwwwqqqqqqqqqqqqqqqqqqqqqqqqqqqqqqqqqqqqqqqqqqqqqqqqqqqqqqqq000000",
"000000qqqqqqqqqqqqqqqqqqqqqqqqqqqqqqqqqqqqqqqqqqqqqqqqqqqqqqqqwwwwqqqqqqqqqqqqqqqqqqqqqqqqqqqqqqqqqqqqqqqqqqqqqqqqqqqqqqqq000000",
"000000qqqqqqqqqqqqqqqqqqqqqqqqqqqqqqqqqqqqqqqqqqqqqqqqqqqqqqqqwwwwqqqqqqqqqqqqqqqqqqqqqqqqqqqqqqqqqqqqqqqqqqqqqqqqqqqqqqqq000000",
"000000qqqqqqqqqqqqqqqqqqqqqqqqqqqqqqqqqqqqqqqqqqqqqqqqqqqqqqqqwwwwqqqqqqqqqqqqqqqqqqqqqqqqqqqqqqqqqqqqqqqqqqqqqqqqqqqqqqqq000000",
"000000qqqqqqqqqqqqqqqqqqqqqqqqqqqqqqqqqqqqqqqqqqqqqqqqqqqqqqqqwwwwqqqqqqqqqqqqqqqqqqqqqqqqqqqqqqqqqqqqqqqqqqqqqqqqqqqqqqqq000000",
"000000qqqqqqqqqqqqqqqqqqqqqqqqqqqqqqqqqqqqqqqqqqqqqqqqqqqqqqqqwwwwqqqqqqqqqqqqqqqqqqqqqqqqqqqqqqqqqqqqqqqqqqqqqqqqqqqqqqqq000000",
"000000qqqqqqqqqqqqqqqqqqqqqqqqqqqqqqqqqqqqqqqqqqqqqqqqqqqqqqqqwwwwqqqqqqqqqqqqqqqqqqqqqqqqqqqqqqqqqqqqqqqqqqqqqqqqqqqqqqqq000000",
"000000qqqqqqqqqqqqqqqqqqqqqqqqqqqqqqqqqqqqqqqqqqqqqqqqqqqqqqqqwwwwqqqqqqqqqqqqqqqqqqqqqqqqqqqqqqqqqqqqqqqqqqqqqqqqqqqqqqqq000000",
"000000qqqqqqqqqqqqqqqqqqqqqqqqqqqqqqqqqqqqqqqqqqqqqqqqqqqqqqqqwwwwqqqqqqqqqqqqqqqqqqqqqqqqqqqqqqqqqqqqqqqqqqqqqqqqqqqqqqqq000000",
"000000qqqqqqqqqqqqqqqqqqqqqqqqqqqqqqqqqqqqqqqqqqqqqqqqqqqqqqqqwwwwqqqqqqqqqqqqqqqqqqqqqqqqqqqqqqqqqqqqqqqqqqqqqqqqqqqqqqqq000000",
"000000qqqqqqqqqqqqqqqqqqqqqqqqqqqqqqqqqqqqqqqqqqqqqqqqqqqqqqqqwwwwqqqqqqqqqqqqqqqqqqqqqqqqqqqqqqqqqqqqqqqqqqqqqqqqqqqqqqqq000000",
"000000qqqqqqqqqqqqqqqqqqqqqqqqqqqqqqqqqqqqqqqqqqqqqqqqqqqqqqqqwwwwqqqqqqqqqqqqqqqqqqqqqqqqqqqqqqqqqqqqqqqqqqqqqqqqqqqqqqqq000000",
"000000qqqqqqqqqqqqqqqqqqqqqqqqqqqqqqqqqqqqqqqqqqqqqqqqqqqqqqqqwwwwqqqqqqqqqqqqqqqqqqqqqqqqqqqqqqqqqqqqqqqqqqqqqqqqqqqqqqqq000000",
"000000qqqqqqqqqqqqqqqqqqqqqqqqqqqqqqqqqqqqqqqqqqqqqqqqqqqqqqqqwwwwqqqqqqqqqqqqqqqqqqqqqqqqqqqqqqqqqqqqqqqqqqqqqqqqqqqqqqqq000000",
"000000qqqqqqqqqqqqqqqqqqqqqqqqqqqqqqqqqqqqqqqqqqqqqqqqqqqqqqqqwwwwqqqqqqqqqqqqqqqqqqqqqqqqqqqqqqqqqqqqqqqqqqqqqqqqqqqqqqqq000000",
"000000qqqqqqqqqqqqqqqqqqqqqqqqqqqqqqqqqqqqqqqqqqqqqqqqqqqqqqqqwwwwqqqqqqqqqqqqqqqqqqqqqqqqqqqqqqqqqqqqqqqqqqqqqqqqqqqqqqqq000000",
"00000000000000000000000000000000000000000000000000000000000000wwww00000000000000000000000000000000000000000000000000000000000000",
"00000000000000000000000000000000000000000000000000000000000000wwww00000000000000000000000000000000000000000000000000000000000000",
"00000000000000000000000000000000000000000000000000000000000000wwww00000000000000000000000000000000000000000000000000000000000000",
"00000000000000000000000000000000000000000000000000000000000000wwww00000000000000000000000000000000000000000000000000000000000000",
"00000000000000000000000000000000000000000000000000000000000000wwww00000000000000000000000000000000000000000000000000000000000000",
"00000000000000000000000000000000000000000000000000000000000000wwww00000000000000000000000000000000000000000000000000000000000000"
};
