/* XPM */
static char *_e2f564a783643c8b935bbef86d52e0d7NV3i0k5ks76HF4d[] = {
/* columns rows colors chars-per-pixel */
"128 128 32 1 ",
"  c #A71C21",
". c #AB1E22",
"X c #AF1F23",
"o c #B01F23",
"O c #B31F24",
"+ c #B41F24",
"@ c #B71F25",
"# c #BC1F25",
"$ c #AF2023",
"% c #B92025",
"& c #BC2025",
"* c #C11F26",
"= c #E01F26",
"- c #E41E25",
"; c #EA1C24",
": c #ED1C24",
"> c #ED1F24",
", c #C12027",
"< c #C92026",
"1 c #ED2024",
"2 c #E92427",
"3 c #ED2627",
"4 c #E9262A",
"5 c #ED2428",
"6 c #ED2729",
"7 c #EA282B",
"8 c #EE282B",
"9 c #EE2A2D",
"0 c #ED2C2E",
"q c #FB8500",
"w c #FFB703",
"e c #0310FF",
/* pixels */
"eeeeqqqqqqqqqqqqqqqqqqqqqqqqqqqqqqqqqqqqqqqqqqqqqqqqqqqqqqqqqqqqqqqqqqqqqqqqqqqqqqqqqqqqqqqqqqqqqqqqqqqqqqqqqqqqqqqqqqqqqqqqqqqq",
"eeeeeqqqqqqqqqqqqqqqqqqqqqqqqqqqqqqqqqqqqqqqqqqqqqqqqqqqqqqqqqqqqqqqqqqqqqqqqqqqqqqqqqqqqqqqqqqqqqqqqqqqqqqqqqqqqqqqqqqqqqqqqqqq",
"eeeeeeqqqqqqqqqqqqqqqqqqqqqqqqqqqqqqqqqqqqqqqqqqqqqqqqqqqqqqqqqqqqqqqqqqqqqqqqqqqqqqqqqqqqqqqqqqqqqqqqqqqqqqqqqqqqqqqqqqqqqqqqqq",
"eeeeeeeqqqqqqqqqqqqqqqqqqqqqqqqqqqqqqqqqqqqqqqqqqqqqqqqqqqqqqqqqqqqqqqqqqqqqqqqqqqqqqqqqqqqqqqqqqqqqqqqqqqqqqqqqqqqqqqqqqqqqqqqq",
"qeeeeeeeqqqqqqqqqqqqqqqqqqqqqqqqqqqqqqqqqqqqqqqqqqqqqqqqqqqqqqqqqqqqqqqqqqqqqqqqqqqqqqqqqqqqqqqqqqqqqqqqqqqqqqqqqqqqqqqqqqqqqqqq",
"qqeeeeeeeqqqqqqqqqqqqqqqqqqqqqqqqqqqqqqqqqqqqqqqqqqqqqqqqqqqqqqqqqqqqqqqqqqqqqqqqqqqqqqqqqqqqqqqqqqqqqqqqqqqqqqqqqqqqqqqqqqqqqqq",
"qqqeeeeeeewwwwwwwwwwwwwwwwwwwwwwwwwwwwwwwwwwwwwwwwwwwwwwwwwwwwwwwwwwwwwwwwwwwwwwwwwwwwwwwwwwwwwwwwwwwwwwwwwwwwwwwwwwwwwwwwqqqqqq",
"qqqqeeeeeeewwwwwwwwwwwwwwwwwwwwwwwwwwwwwwwwwwwwwwwwwwwwwwwwwwwwwwwwwwwwwwwwwwwwwwwwwwwwwwwwwwwwwwwwwwwwwwwwwwwwwwwwwwwwwwwqqqqqq",
"qqqqqeeeeeeewwwwwwwwwwwwwwwwwwwwwwwwwwwwwwwwwwwwwwwwwwwwwwwwwwwwwwwwwwwwwwwwwwwwwwwwwwwwwwwwwwwwwwwwwwwwwwwwwwwwwwwwwwwwwwqqqqqq",
"qqqqqqeeeeeeewwwwwwwwwwwwwwwwwwwwwwwwwwwwwwwwwwwwwwwwwwwwwwwwwwwwwwwwwwwwwwwwwwwwwwwwwwwwwwwwwwwwwwwwwwwwwwwwwwwwwwwwwwwwwqqqqqq",
"qqqqqqweeeeeeewwwwwwwwwwwwwwwwwwwwwwwwwwwwwwwwwwwwwwwwwwwwwwwwwwwwwwwwwwwwwwwwwwwwwwwwwwwwwwwwwwwwwwwwwwwwwwwwwwwwwwwwwwwwqqqqqq",
"qqqqqqwweeeeeeewwwwwwwwwwwwwwwwwwwwwwwwwwwwwwwwwwwwwwwwwwwwwwwwwwwwwwwwwwwwwwwwwwwwwwwwwwwwwwwwwwwwwwwwwwwwwwwwwwwwwwwwwwwqqqqqq",
"qqqqqqwwweeeeeeewwwwwwwwwwwwwwwwwwwwwwwwwwwwwwwwwwwwwwwwwwwwwwwwwwwwwwwwwwwwwwwwwwwwwwwwwwwwwwwwwwwwwwwwwwwwwwwwwwwwwwwwwwqqqqqq",
"qqqqqqwwwweeeeeeewwwwwwwwwwwwwwwwwwwwwwwwwwwwwwwwwwwwwwwwwwwwwwwwwwwwwwwwwwwwwwwwwwwwwwwwwwwwwwwwwwwwwwwwwwwwwwwwwwwwwwwwwqqqqqq",
"qqqqqqwwwwweeeeeeewwwwwwwwwwwwwwwwwwwwwwwwwwwwwwwwwwwwwwwwwwwwwwwwwwwwwwwwwwwwwwwwwwwwwwwwwwwwwwwwwwwwwwwwwwwwwwwwwwwwwwwwqqqqqq",
"qqqqqqwwwwwweeeeeeewwwwwwwwwwwwwwwwwwwwwwwwwwwwwwwwwwwwwwwwwwwwwwwwwwwwwwwwwwwwwwwwwwwwwwwwwwwwwwwwwwwwwwwwwwwwwwwwwwwwwwwqqqqqq",
"qqqqqqwwwwwwweeeeeeewwwwwwwwwwwwwwwwwwwwwwwwwwwwwwwwwwwwwwwwwwwwwwwwwwwwwwwwwwwwwwwwwwwwwwwwwwwwwwwwwwwwwwwwwwwwwwwwwwwwwwqqqqqq",
"qqqqqqwwwwwwwweeeeeeewwwwwwwwwwwwwwwwwwwwwwwwwwwwwwwwwwwwwwwwwwwwwwwwwwwwwwwwwwwwwwwwwwwwwwwwwwwwwwwwwwwwwwwwwwwwwwwwwwwwwqqqqqq",
"qqqqqqwwwwwwwwweeeeeeewwwwwwwwwwwwwwwwwwwwwwwwwwwwwwwwwwwwwwwwwwwwwwwwwwwwwwwwwwwwwwwwwwwwwwwwwwwwwwwwwwwwwwwwwwwwwwwwwwwwqqqqqq",
"qqqqqqwwwwwwwwwweeeeeeewwwwwwwwwwwwwwwwwwwwwwwwwwwwwwwwwwwwwwwwwwwwwwwwwwwwwwwwwwwwwwwwwwwwwwwwwwwwwwwwwwwwwwwwwwwwwwwwwwwqqqqqq",
"qqqqqqwwwwwwwwwwweeeeeeewwwwwwwwwwwwwwwwwwwwwwwwwwwwwwwwwwwwwwwwwwwwwwwwwwwwwwwwwwwwwwwwwwwwwwwwwwwwwwwwwwwwwwwwwwwwwwwwwwqqqqqq",
"qqqqqqwwwwwwwwwwwweeeeeeewwwwwwwwwwwwwwwwwwwwwwwwwwwwwwwwwwwwwwwwwwwwwwwwwwwwwwwwwwwwwwwwwwwwwwwwwwwwwwwwwwwwwwwwwwwwwwwwwqqqqqq",
"qqqqqqwwwwwwwwwwwwweeeeeeewwwwwwwwwwwwwwwwwwwwwwwwwwwwwwwwwwwwwwwwwwwwwwwwwwwwwwwwwwwwwwwwwwwwwwwwwwwwwwwwwwwwwwwwwwwwwwwwqqqqqq",
"qqqqqqwwwwwwwwwwwwwweeeeeeewwwwwwwwwwwwwwwwwwwwwwwwwwwwwwwwwwwwwwwwwwwwwwwwwwwwwwwwwwwwwwwwwwwwwwwwwwwwwwwwwwwwwwwwwwwwwwwqqqqqq",
"qqqqqqwwwwwwwwwwwwwwweeeeeeewwwwwwwwwwwwwwwwwwwwwwwwwwwwwwwwwwwwwwwwwwwwwwwwwwwwwwwwwwwwwwwwwwwwwwwwwwwwwwwwwwwwwwwwwwwwwwqqqqqq",
"qqqqqqwwwwwwwwwwwwwwwweeeeeeewwwwwwwwwwwwwwwwwwwwwwwwwwwwwwwwwwwwwwwwwwwwwwwwwwwwwwwwwwwwwwwwwwwwwwwwwwwwwwwwwwwwwwwwwwwwwqqqqqq",
"qqqqqqwwwwwwwwwwwwwwwwweeeeeeewwwwwwwwwwwwwwwwwwwwwwwwwwwwwwwwwwwwwwwwwwwwwwwwwwwwwwwwwwwwwwwwwwwwwwwwwwwwwwwwwwwwwwwwwwwwqqqqqq",
"qqqqqqwwwwwwwwwwwwwwwwwweeeeeeewwwwwwwwwwwwwwwwwwwwwwwwwwwwwwwwwwwwwwwwwwwwwwwwwwwwwwwwwwwwwwwwwwwwwwwwwwwwwwwwwwwwwwwwwwwqqqqqq",
"qqqqqqwwwwwwwwwwwwwwwwwwweeeeeeewwwwwwwwwwwwwwwwwwwwwwwwwwwwwwwwwwwwwwwwwwwwwwwwwwwwwwwwwwwwwwwwwwwwwwwwwwwwwwwwwwwwwwwwwwqqqqqq",
"qqqqqqwwwwwwwwwwwwwwwwwwwweeeeeeewwwww89wwwwwwwwwwwwwwwwwwwwwwwwwwwwwwwwwwwwwwwwwwwwwww98wwwwwwwwwwwwwwwwwwwwwwwwwwwwwwwwwqqqqqq",
"qqqqqqwwwwwwwwwwwwwwwwwwwwweeeeeeewww6>19wwwwwwwwwwwwwwwwwwwwwwwwwwwwwwwwwwwwwwwwwwwww91>6wwwwwwwwwwwwwwwwwwwwwwwwwwwwwwwwqqqqqq",
"qqqqqqwwwwwwwwwwwwwwwwwwwwwweeeeeeew6>>>10wwwwwwwwwwwwwwwwwwwwwwwwwwwwwwwwwwwwwwwwwww01>>>6wwwwwwwwwwwwwwwwwwwwwwwwwwwwwwwqqqqqq",
"qqqqqqwwwwwwwwwwwwwwwwwwwwwwweeeeeee>>>>>>9wwwwwwwwwwwwwwwwwwwwwwwwwwwwwwwwwwwwwwwww9>>>>>>1wwwwwwwwwwwwwwwwwwwwwwwwwwwwwwqqqqqq",
"qqqqqqwwwwwwwwwwwwwwwwwwwwwwwweeeeeee>>>>>>9wwwwwwwwwwwwwwwwwwwwwwwwwwwwwwwwwwwwwww91>>>>>>>6wwwwwwwwwwwwwwwwwwwwwwwwwwwwwqqqqqq",
"qqqqqqwwwwwwwwwwwwwwwwwwwwwwwwweeeeeee>>>>>>9wwwwwwwwwwwwwwwwwwwwwwwwwwwwwwwwwwwww9>>>>>>>>>>6wwwwwwwwwwwwwwwwwwwwwwwwwwwwqqqqqq",
"qqqqqqwwwwwwwwwwwwwwwwwwwwwwwwwweeeeeee>>>>>>6wwwwwwwwwwwwwwwwwwwwwwwwwwwwwwwwwww6>>>>>>>>>>>>6wwwwwwwwwwwwwwwwwwwwwwwwwwwqqqqqq",
"qqqqqqwwwwwwwwwwwwwwwwwwwwwwwww1>eeeeeee::>>>>8wwwwwwwwwwwwwwwwwwwwwwwwwwwwwwwww6>>>>>>>>>::>>>1wwwwwwwwwwwwwwwwwwwwwwwwwwqqqqqq",
"qqqqqqwwwwwwwwwwwwwwwwwwwwwwww3>>>eeeeeee>>>>>>9wwwwwwwwwwwwwwwwwwwwwwwwwwwwwww9>>>>>>>>>>::>>>>3wwwwwwwwwwwwwwwwwwwwwwwwwqqqqqq",
"qqqqqqwwwwwwwwwwwwwwwwwwwwwww1>>>>>eeeeeee>>>>>>6wwwwwwwwwwwwwwwwwwwwwwwwwwwww6>:>>>:>>>>>>>>>>>>1wwwwwwwwwwwwwwwwwwwwwwwwqqqqqq",
"qqqqqqwwwwwwwwwwwwwwwwwwwwwww@>>>>>>eeeeeee>>>>>>9wwwwwwwwwwwwwwwwwwwwwwwwwww9>>>>>>>>>>>>>>>>>>>@wwwwwwwwwwwwwwwwwwwwwwwwqqqqqq",
"qqqqqqwwwwwwwwwwwwwwwwwwwwwwww&>>>>>:eeeeeee>>>>>>9wwwwwwwwwwwwwwwwwwwwwwwww9>>>>>>>>>>>::::>>>>&wwwwwwwwwwwwwwwwwwwwwwwwwqqqqqq",
"qqqqqqwwwwwwwwwwwwwwwwwwwwwwwww@>>>>>>eeeeeee>>>>>>8wwwwwwwwwwwwwwwwwwwwwww6>>>>>>>>>>>>::>>>>>@wwwwwwwwwwwwwwwwwwwwwwwwwwqqqqqq",
"qqqqqqwwwwwwwwwwwwwwwwwwwwwwwwww@>>>>>>eeeeeee>>>>>>8wwwwwwwwwwwwwwwwwwwww6>>:>>>>>>>>>>>>>>>>@wwwwwwwwwwwwwwwwwwwwwwwwwwwqqqqqq",
"qqqqqqwwwwwwwwwwwwwwwwwwwwwwwwwww@>>>>>>eeeeeee>>>>>>9wwwwwwwwwwwwwwwwwww9>>::>>>>>>>>>>>>>>>%wwwwwwwwwwwwwwwwwwwwwwwwwwwwqqqqqq",
"qqqqqqwwwwwwwwwwwwwwwwwwwwwwwwwwww@>>>>>>eeeeeee>>>>>>6wwwwwwwwwwwwwwwww6>>>>>>>::>>>>>>>>>>@wwwwwwwwwwwwwwwwwwwwwwwwwwwwwqqqqqq",
"qqqqqqwwwwwwwwwwwwwwwwwwwwwwwwwwwww#>>>>>>eeeeeee>>>>>>6wwwwwwwwwwwwwww6>>>>;>>>::>>>>::>>>#wwwwwwwwwwwwwwwwwwwwwwwwwwwwwwqqqqqq",
"qqqqqqwwwwwwwwwwwwwwwwwwwwwwwwwwwwww%>>>>>>eeeeeee>>>>>>9wwwwwwwwwwwww9>>>>>>>:::>>>>>::>>@wwwwwwwwwwwwwwwwwwwwwwwwwwwwwwwqqqqqq",
"qqqqqqwwwwwwwwwwwwwwwwwwwwwwwwwwwwwwwO>>>>>>eeeeeee>>>>>>6wwwwwwwwwww6>>>>>>:::::>>>>>::>Owwwwwwwwwwwwwwwwwwwwwwwwwwwwwwwwqqqqqq",
"qqqqqqwwwwwwwwwwwwwwwwwwwwwwwwwwwwwwww%>>>>>>eeeeeee>>>>>>9wwwwwwwww9>>>>>>>>>>:>>>>>>>>%wwwwwwwwwwwwwwwwwwwwwwwwwwwwwwwwwqqqqqq",
"qqqqqqwwwwwwwwwwwwwwwwwwwwwwwwwwwwwwwwwO>:>>:>eeeeeee>>>>>>3wwwwwww3>>>>>>>>>>>>>>>>>>>Owwwwwwwwwwwwwwwwwwwwwwwwwwwwwwwwwwqqqqqq",
"qqqqqqwwwwwwwwwwwwwwwwwwwwwwwwwwwwwwwwwwO>>>>>>eeeeeee>>>>>>6wwwww6>>>>>>>::>>>>>>>>>>Owwwwwwwwwwwwwwwwwwwwwwwwwwwwwwwwwwwqqqqqq",
"qqqqqqwwwwwwwwwwwwwwwwwwwwwwwwwwwwwwwwwww@>>>>>>eeeeeee>>>>>>8www8>>>>>>>>>>>>>>:>>>>@wwwwwwwwwwwwwwwwwwwwwwwwwwwwwwwwwwwwqqqqqq",
"qqqqqqwwwwwwwwwwwwwwwwwwwwwwwwwwwwwwwwwwwwX>>>>>>eeeeeee>>>>>>6w6>>>>>>>>>>>>>>>:>>>Xwwwwwwwwwwwwwwwwwwwwwwwwwwwwwwwwwwwwwqqqqqq",
"qqqqqqwwwwwwwwwwwwwwwwwwwwwwwwwwwwwwwwwwwwwX>>>>>>eeeeeee>>>>>>>>>>>>>>>:>>>>>>>>>>Xwwwwwwwwwwwwwwwwwwwwwwwwwwwwwwwwwwwwwwqqqqqq",
"qqqqqqwwwwwwwwwwwwwwwwwwwwwwwwwwwwwwwwwwwwww@>>;;;;eeeeeee;;;;;>;;;;;;;;;;;;;;;;>:@wwwwwwwwwwwwwwwwwwwwwwwwwwwwwwwwwwwwwwwqqqqqq",
"qqqqqqwwwwwwwwwwwwwwwwwwwwwwwwwwwwwwwwwwwwwwwo>>;;;;eeeeeee;;;;;;;;;;;;;;;;;;;;>>owwwwwwwwwwwwwwwwwwwwwwwwwwwwwwwwwwwwwwwwqqqqqq",
"qqqqqqwwwwwwwwwwwwwwwwwwwwwwwwwwwwwwwwwwwwwwwwX>>;;;;eeeeeee;;;;;;;;;;;;;;;;;;>>Xwwwwwwwwwwwwwwwwwwwwwwwwwwwwwwwwwwwwwwwwwqqqqqq",
"qqqqqqwwwwwwwwwwwwwwwwwwwwwwwwwwwwwwwwwwwwwwwwwO>>;;;;eeeeeee;;;;;;;;;;;;;;;;>>Owwwwwwwwwwwwwwwwwwwwwwwwwwwwwwwwwwwwwwwwwwqqqqqq",
"qqqqqqwwwwwwwwwwwwwwwwwwwwwwwwwwwwwwwwwwwwwwwwwwX>>;;;;eeeeeee;;;;;;;;;;;;;;>>Xwwwwwwwwwwwwwwwwwwwwwwwwwwwwwwwwwwwwwwwwwwwqqqqqq",
"qqqqqqwwwwwwwwwwwwwwwwwwwwwwwwwwwwwwwwwwwwwwwwwww@>>;;;;eeeeeee;;;;;;;;;;;;>>@wwwwwwwwwwwwwwwwwwwwwwwwwwwwwwwwwwwwwwwwwwwwqqqqqq",
"qqqqqqwwwwwwwwwwwwwwwwwwwwwwwwwwwwwwwwwwwwwwwwwwwwO>;;;;;eeeeeee;;;;;;;;;;;>Owwwwwwwwwwwwwwwwwwwwwwwwwwwwwwwwwwwwwwwwwwwwwqqqqqq",
"qqqqqqwwwwwwwwwwwwwwwwwwwwwwwwwwwwwwwwwwwwwwwwwwwwwX>;;;;;eeeeeee;;;;;;;;;>Xwwwwwwwwwwwwwwwwwwwwwwwwwwwwwwwwwwwwwwwwwwwwwwqqqqqq",
"qqqqqqwwwwwwwwwwwwwwwwwwwwwwwwwwwwwwwwwwwwwwwwwwwwwwX;;;;;;eeeeeee;;;;;;;;Xwwwwwwwwwwwwwwwwwwwwwwwwwwwwwwwwwwwwwwwwwwwwwwwqqqqqq",
"qqqqqqwwwwwwwwwwwwwwwwwwwwwwwwwwwwwwwwwwwwwwwwwwwwwww=;;;;;;eeeeeee;;;;;;=wwwwwwwwwwwwwwwwwwwwwwwwwwwwwwwwwwwwwwwwwwwwwwwwqqqqqq",
"qqqqqqwwwwwwwwwwwwwwwwwwwwwwwwwwwwwwwwwwwwwwwwwwwwww8;;;;;;;;eeeeeee;;;;;;8wwwwwwwwwwwwwwwwwwwwwwwwwwwwwwwwwwwwwwwwwwwwwwwqqqqqq",
"qqqqqqwwwwwwwwwwwwwwwwwwwwwwwwwwwwwwwwwwwwwwwwwwwww6>;;;;;;;;;eeeeeee;;;;;>6wwwwwwwwwwwwwwwwwwwwwwwwwwwwwwwwwwwwwwwwwwwwwwqqqqqq",
"qqqqqqwwwwwwwwwwwwwwwwwwwwwwwwwwwwwwwwwwwwwwwwwwww2;;;;;;;;;;;;eeeeeee;;;;;;2wwwwwwwwwwwwwwwwwwwwwwwwwwwwwwwwwwwwwwwwwwwwwqqqqqq",
"qqqqqqwwwwwwwwwwwwwwwwwwwwwwwwwwwwwwwwwwwwwwwwwww2>;;;;;;;;;;;;;eeeeeee;;;;;>2wwwwwwwwwwwwwwwwwwwwwwwwwwwwwwwwwwwwwwwwwwwwqqqqqq",
"qqqqqqwwwwwwwwwwwwwwwwwwwwwwwwwwwwwwwwwwwwwwwwww4;;;;;;;;;;;;;;;;eeeeeee;;;;;;6wwwwwwwwwwwwwwwwwwwwwwwwwwwwwwwwwwwwwwwwwwwqqqqqq",
"qqqqqqwwwwwwwwwwwwwwwwwwwwwwwwwwwwwwwwwwwwwwwww4;;;;;;;;;;;;;;;;;;eeeeeee;;;;;;4wwwwwwwwwwwwwwwwwwwwwwwwwwwwwwwwwwwwwwwwwwqqqqqq",
"qqqqqqwwwwwwwwwwwwwwwwwwwwwwwwwwwwwwwwwwwwwwww4;;;;;-;;;;;;;;;;;;;;eeeeeee;;;;;;4wwwwwwwwwwwwwwwwwwwwwwwwwwwwwwwwwwwwwwwwwqqqqqq",
"qqqqqqwwwwwwwwwwwwwwwwwwwwwwwwwwwwwwwwwwwwwww4;---------------------eeeeeee----;;4wwwwwwwwwwwwwwwwwwwwwwwwwwwwwwwwwwwwwwwwqqqqqq",
"qqqqqqwwwwwwwwwwwwwwwwwwwwwwwwwwwwwwwwwwwwww4;;;----;;;;;-----;;;----eeeeeee-----;4wwwwwwwwwwwwwwwwwwwwwwwwwwwwwwwwwwwwwwwqqqqqq",
"qqqqqqwwwwwwwwwwwwwwwwwwwwwwwwwwwwwwwwwwwww4;;;;----;;;;;----;-<-;----eeeeeee-----;4wwwwwwwwwwwwwwwwwwwwwwwwwwwwwwwwwwwwwwqqqqqq",
"qqqqqqwwwwwwwwwwwwwwwwwwwwwwwwwwwwwwwwwwww4;----------------;;OwO;;----eeeeeee-----;4wwwwwwwwwwwwwwwwwwwwwwwwwwwwwwwwwwwwwqqqqqq",
"qqqqqqwwwwwwwwwwwwwwwwwwwwwwwwwwwwwwwwwww4;----------------;;XwwwX;;----eeeeeee-----;4wwwwwwwwwwwwwwwwwwwwwwwwwwwwwwwwwwwwqqqqqq",
"qqqqqqwwwwwwwwwwwwwwwwwwwwwwwwwwwwwwwwww4;----------------;;owwwwwo;;----eeeeeee-----;4wwwwwwwwwwwwwwwwwwwwwwwwwwwwwwwwwwwqqqqqq",
"qqqqqqwwwwwwwwwwwwwwwwwwwwwwwwwwwwwwwww7;----------------;;owwwwwwwo;;----eeeeeee-----;7wwwwwwwwwwwwwwwwwwwwwwwwwwwwwwwwwwqqqqqq",
"qqqqqqwwwwwwwwwwwwwwwwwwwwwwwwwwwwwwww4;----------------;;.wwwwwwwww.;;----eeeeeee-----;4wwwwwwwwwwwwwwwwwwwwwwwwwwwwwwwwwqqqqqq",
"qqqqqqwwwwwwwwwwwwwwwwwwwwwwwwwwwwwww4;----------------;;owwwwwwwwwwwX;;----eeeeeee-----;4wwwwwwwwwwwwwwwwwwwwwwwwwwwwwwwwqqqqqq",
"qqqqqqwwwwwwwwwwwwwwwwwwwwwwwwwwwwww2;----------------;;.wwwwwwwwwwwww.;;----eeeeeee-----;2wwwwwwwwwwwwwwwwwwwwwwwwwwwwwwwqqqqqq",
"qqqqqqwwwwwwwwwwwwwwwwwwwwwwwwwwwww2;----------------;;.wwwwwwwwwwwwwww.;;----eeeeeee-----;2wwwwwwwwwwwwwwwwwwwwwwwwwwwwwwqqqqqq",
"qqqqqqwwwwwwwwwwwwwwwwwwwwwwwwwwww4;-----------------;XwwwwwwwwwwwwwwwwwX;-----eeeeeee-----;4wwwwwwwwwwwwwwwwwwwwwwwwwwwwwqqqqqq",
"qqqqqqwwwwwwwwwwwwwwwwwwwwwwwwwww4;-----------------;.wwwwwwwwwwwwwwwwwww.;-----eeeeeee-----;4wwwwwwwwwwwwwwwwwwwwwwwwwwwwqqqqqq",
"qqqqqqwwwwwwwwwwwwwwwwwwwwwwwwww4;----------------;;.wwwwwwwwwwwwwwwwwwwww.;;----eeeeeee-----;4wwwwwwwwwwwwwwwwwwwwwwwwwwwqqqqqq",
"qqqqqqwwwwwwwwwwwwwwwwwwwwwwwww4;-----------------;XwwwwwwwwwwwwwwwwwwwwwwwX;-----eeeeeee-----;4wwwwwwwwwwwwwwwwwwwwwwwwwwqqqqqq",
"qqqqqqwwwwwwwwwwwwwwwwwwwwwwww4;----------------;-.wwwwwwwwwwwwwwwwwwwwwwwww.-;----eeeeeee-----;4wwwwwwwwwwwwwwwwwwwwwwwwwqqqqqq",
"qqqqqqwwwwwwwwwwwwwwwwwwwwwww4;-----------------; wwwwwwwwwwwwwwwwwwwwwwwwwww ;-----eeeeeee-----;4wwwwwwwwwwwwwwwwwwwwwwwwqqqqqq",
"qqqqqqwwwwwwwwwwwwwwwwwwwwwww,;----------------;XwwwwwwwwwwwwwwwwwwwwwwwwwwwwwX;-----eeeeeee----;,wwwwwwwwwwwwwwwwwwwwwwwwqqqqqq",
"qqqqqqwwwwwwwwwwwwwwwwwwwwwwww,;--------------;.wwwwwwwwwwwwwwwwwwwwwwwwwwwwwww.;-----eeeeeee--;,wwwwwwwwwwwwwwwwwwwwwwwwwqqqqqq",
"qqqqqqwwwwwwwwwwwwwwwwwwwwwwwww&;-----------;;XwwwwwwwwwwwwwwwwwwwwwwwwwwwwwwwwwX;;----eeeeeee;&wwwwwwwwwwwwwwwwwwwwwwwwwwqqqqqq",
"qqqqqqwwwwwwwwwwwwwwwwwwwwwwwwww,;----------;XwwwwwwwwwwwwwwwwwwwwwwwwwwwwwwwwwwwX;-----eeeeeeewwwwwwwwwwwwwwwwwwwwwwwwwwwqqqqqq",
"qqqqqqwwwwwwwwwwwwwwwwwwwwwwwwwww&;-------;;.wwwwwwwwwwwwwwwwwwwwwwwwwwwwwwwwwwwww.;;----eeeeeeewwwwwwwwwwwwwwwwwwwwwwwwwwqqqqqq",
"qqqqqqwwwwwwwwwwwwwwwwwwwwwwwwwwww,;-----;;XwwwwwwwwwwwwwwwwwwwwwwwwwwwwwwwwwwwwwwwX;;----eeeeeeewwwwwwwwwwwwwwwwwwwwwwwwwqqqqqq",
"qqqqqqwwwwwwwwwwwwwwwwwwwwwwwwwwwww*;-----.wwwwwwwwwwwwwwwwwwwwwwwwwwwwwwwwwwwwwwwww.-----;eeeeeeewwwwwwwwwwwwwwwwwwwwwwwwqqqqqq",
"qqqqqqwwwwwwwwwwwwwwwwwwwwwwwwwwwwww&;-;;.wwwwwwwwwwwwwwwwwwwwwwwwwwwwwwwwwwwwwwwwwww.;;-;&weeeeeeewwwwwwwwwwwwwwwwwwwwwwwqqqqqq",
"qqqqqqwwwwwwwwwwwwwwwwwwwwwwwwwwwwwww&>;XwwwwwwwwwwwwwwwwwwwwwwwwwwwwwwwwwwwwwwwwwwwwwX;>&wwweeeeeeewwwwwwwwwwwwwwwwwwwwwwqqqqqq",
"qqqqqqwwwwwwwwwwwwwwwwwwwwwwwwwwwwwwww&.wwwwwwwwwwwwwwwwwwwwwwwwwwwwwwwwwwwwwwwwwwwwwww.&wwwwweeeeeeewwwwwwwwwwwwwwwwwwwwwqqqqqq",
"qqqqqqwwwwwwwwwwwwwwwwwwwwwwwwwwwwwwwwwwwwwwwwwwwwwwwwwwwwwwwwwwwwwwwwwwwwwwwwwwwwwwwwwwwwwwwwweeeeeeewwwwwwwwwwwwwwwwwwwwqqqqqq",
"qqqqqqwwwwwwwwwwwwwwwwwwwwwwwwwwwwwwwwwwwwwwwwwwwwwwwwwwwwwwwwwwwwwwwwwwwwwwwwwwwwwwwwwwwwwwwwwweeeeeeewwwwwwwwwwwwwwwwwwwqqqqqq",
"qqqqqqwwwwwwwwwwwwwwwwwwwwwwwwwwwwwwwwwwwwwwwwwwwwwwwwwwwwwwwwwwwwwwwwwwwwwwwwwwwwwwwwwwwwwwwwwwweeeeeeewwwwwwwwwwwwwwwwwwqqqqqq",
"qqqqqqwwwwwwwwwwwwwwwwwwwwwwwwwwwwwwwwwwwwwwwwwwwwwwwwwwwwwwwwwwwwwwwwwwwwwwwwwwwwwwwwwwwwwwwwwwwweeeeeeewwwwwwwwwwwwwwwwwqqqqqq",
"qqqqqqwwwwwwwwwwwwwwwwwwwwwwwwwwwwwwwwwwwwwwwwwwwwwwwwwwwwwwwwwwwwwwwwwwwwwwwwwwwwwwwwwwwwwwwwwwwwweeeeeeewwwwwwwwwwwwwwwwqqqqqq",
"qqqqqqwwwwwwwwwwwwwwwwwwwwwwwwwwwwwwwwwwwwwwwwwwwwwwwwwwwwwwwwwwwwwwwwwwwwwwwwwwwwwwwwwwwwwwwwwwwwwweeeeeeewwwwwwwwwwwwwwwqqqqqq",
"qqqqqqwwwwwwwwwwwwwwwwwwwwwwwwwwwwwwwwwwwwwwwwwwwwwwwwwwwwwwwwwwwwwwwwwwwwwwwwwwwwwwwwwwwwwwwwwwwwwwweeeeeeewwwwwwwwwwwwwwqqqqqq",
"qqqqqqwwwwwwwwwwwwwwwwwwwwwwwwwwwwwwwwwwwwwwwwwwwwwwwwwwwwwwwwwwwwwwwwwwwwwwwwwwwwwwwwwwwwwwwwwwwwwwwweeeeeeewwwwwwwwwwwwwqqqqqq",
"qqqqqqwwwwwwwwwwwwwwwwwwwwwwwwwwwwwwwwwwwwwwwwwwwwwwwwwwwwwwwwwwwwwwwwwwwwwwwwwwwwwwwwwwwwwwwwwwwwwwwwweeeeeeewwwwwwwwwwwwqqqqqq",
"qqqqqqwwwwwwwwwwwwwwwwwwwwwwwwwwwwwwwwwwwwwwwwwwwwwwwwwwwwwwwwwwwwwwwwwwwwwwwwwwwwwwwwwwwwwwwwwwwwwwwwwweeeeeeewwwwwwwwwwwqqqqqq",
"qqqqqqwwwwwwwwwwwwwwwwwwwwwwwwwwwwwwwwwwwwwwwwwwwwwwwwwwwwwwwwwwwwwwwwwwwwwwwwwwwwwwwwwwwwwwwwwwwwwwwwwwweeeeeeewwwwwwwwwwqqqqqq",
"qqqqqqwwwwwwwwwwwwwwwwwwwwwwwwwwwwwwwwwwwwwwwwwwwwwwwwwwwwwwwwwwwwwwwwwwwwwwwwwwwwwwwwwwwwwwwwwwwwwwwwwwwweeeeeeewwwwwwwwwqqqqqq",
"qqqqqqwwwwwwwwwwwwwwwwwwwwwwwwwwwwwwwwwwwwwwwwwwwwwwwwwwwwwwwwwwwwwwwwwwwwwwwwwwwwwwwwwwwwwwwwwwwwwwwwwwwwweeeeeeewwwwwwwwqqqqqq",
"qqqqqqwwwwwwwwwwwwwwwwwwwwwwwwwwwwwwwwwwwwwwwwwwwwwwwwwwwwwwwwwwwwwwwwwwwwwwwwwwwwwwwwwwwwwwwwwwwwwwwwwwwwwweeeeeeewwwwwwwqqqqqq",
"qqqqqqwwwwwwwwwwwwwwwwwwwwwwwwwwwwwwwwwwwwwwwwwwwwwwwwwwwwwwwwwwwwwwwwwwwwwwwwwwwwwwwwwwwwwwwwwwwwwwwwwwwwwwweeeeeeewwwwwwqqqqqq",
"qqqqqqwwwwwwwwwwwwwwwwwwwwwwwwwwwwwwwwwwwwwwwwwwwwwwwwwwwwwwwwwwwwwwwwwwwwwwwwwwwwwwwwwwwwwwwwwwwwwwwwwwwwwwwweeeeeeewwwwwqqqqqq",
"qqqqqqwwwwwwwwwwwwwwwwwwwwwwwwwwwwwwwwwwwwwwwwwwwwwwwwwwwwwwwwwwwwwwwwwwwwwwwwwwwwwwwwwwwwwwwwwwwwwwwwwwwwwwwwweeeeeeewwwwqqqqqq",
"qqqqqqwwwwwwwwwwwwwwwwwwwwwwwwwwwwwwwwwwwwwwwwwwwwwwwwwwwwwwwwwwwwwwwwwwwwwwwwwwwwwwwwwwwwwwwwwwwwwwwwwwwwwwwwwweeeeeeewwwqqqqqq",
"qqqqqqwwwwwwwwwwwwwwwwwwwwwwwwwwwwwwwwwwwwwwwwwwwwwwwwwwwwwwwwwwwwwwwwwwwwwwwwwwwwwwwwwwwwwwwwwwwwwwwwwwwwwwwwwwweeeeeeewwqqqqqq",
"qqqqqqwwwwwwwwwwwwwwwwwwwwwwwwwwwwwwwwwwwwwwwwwwwwwwwwwwwwwwwwwwwwwwwwwwwwwwwwwwwwwwwwwwwwwwwwwwwwwwwwwwwwwwwwwwwweeeeeeewqqqqqq",
"qqqqqqwwwwwwwwwwwwwwwwwwwwwwwwwwwwwwwwwwwwwwwwwwwwwwwwwwwwwwwwwwwwwwwwwwwwwwwwwwwwwwwwwwwwwwwwwwwwwwwwwwwwwwwwwwwwweeeeeeeqqqqqq",
"qqqqqqwwwwwwwwwwwwwwwwwwwwwwwwwwwwwwwwwwwwwwwwwwwwwwwwwwwwwwwwwwwwwwwwwwwwwwwwwwwwwwwwwwwwwwwwwwwwwwwwwwwwwwwwwwwwwweeeeeeeqqqqq",
"qqqqqqwwwwwwwwwwwwwwwwwwwwwwwwwwwwwwwwwwwwwwwwwwwwwwwwwwwwwwwwwwwwwwwwwwwwwwwwwwwwwwwwwwwwwwwwwwwwwwwwwwwwwwwwwwwwwwweeeeeeeqqqq",
"qqqqqqwwwwwwwwwwwwwwwwwwwwwwwwwwwwwwwwwwwwwwwwwwwwwwwwwwwwwwwwwwwwwwwwwwwwwwwwwwwwwwwwwwwwwwwwwwwwwwwwwwwwwwwwwwwwwwwweeeeeeeqqq",
"qqqqqqqqqqqqqqqqqqqqqqqqqqqqqqqqqqqqqqqqqqqqqqqqqqqqqqqqqqqqqqqqqqqqqqqqqqqqqqqqqqqqqqqqqqqqqqqqqqqqqqqqqqqqqqqqqqqqqqqeeeeeeeqq",
"qqqqqqqqqqqqqqqqqqqqqqqqqqqqqqqqqqqqqqqqqqqqqqqqqqqqqqqqqqqqqqqqqqqqqqqqqqqqqqqqqqqqqqqqqqqqqqqqqqqqqqqqqqqqqqqqqqqqqqqqeeeeeeeq",
"qqqqqqqqqqqqqqqqqqqqqqqqqqqqqqqqqqqqqqqqqqqqqqqqqqqqqqqqqqqqqqqqqqqqqqqqqqqqqqqqqqqqqqqqqqqqqqqqqqqqqqqqqqqqqqqqqqqqqqqqqeeeeeee",
"qqqqqqqqqqqqqqqqqqqqqqqqqqqqqqqqqqqqqqqqqqqqqqqqqqqqqqqqqqqqqqqqqqqqqqqqqqqqqqqqqqqqqqqqqqqqqqqqqqqqqqqqqqqqqqqqqqqqqqqqqqeeeeee",
"qqqqqqqqqqqqqqqqqqqqqqqqqqqqqqqqqqqqqqqqqqqqqqqqqqqqqqqqqqqqqqqqqqqqqqqqqqqqqqqqqqqqqqqqqqqqqqqqqqqqqqqqqqqqqqqqqqqqqqqqqqqeeeee",
"qqqqqqqqqqqqqqqqqqqqqqqqqqqqqqqqqqqqqqqqqqqqqqqqqqqqqqqqqqqqqqqqqqqqqqqqqqqqqqqqqqqqqqqqqqqqqqqqqqqqqqqqqqqqqqqqqqqqqqqqqqqqeeee"
};
