/* XPM */
static char *result[] = {
/* columns rows colors chars-per-pixel */
"128 128 90 1 ",
"  c #FB8500",
"! c #0310FF",
"# c #FFB703",
"$ c #EE282B",
"% c #EE292D",
"& c #ED2729",
"' c #ED1F24",
"( c #ED2024",
") c #EE2A2D",
"* c #ED2728",
"+ c #ED1D24",
", c #ED2C2E",
"- c #ED2427",
". c #ED2B2E",
"/ c #EE2A2C",
"0 c #ED2629",
"1 c #EE2B2E",
"2 c #ED2428",
"3 c #ED2326",
"4 c #ED1C24",
"5 c #EE2A2B",
"6 c #EE2B2D",
"7 c #ED2225",
"8 c #EE272A",
"9 c #B71F25",
": c #BC2025",
"; c #B41F24",
"< c #EF2A2B",
"= c #B92025",
"> c #EC1C24",
"? c #B61F24",
"@ c #ED272A",
"A c #BC1F25",
"B c #EF292D",
"C c #B31F24",
"D c #B01F24",
"E c #ED2627",
"F c #B11F24",
"G c #B61F25",
"H c #EC292B",
"I c #AE1E23",
"J c #AF2023",
"K c #B51E24",
"L c #EA1C24",
"M c #B01F23",
"N c #AF1F23",
"O c #B31E24",
"P c #E91D24",
"Q c #E01F26",
"R c #ED282A",
"S c #EC272B",
"T c #EA2527",
"U c #E91D25",
"V c #EB262A",
"W c #E92528",
"X c #E81D25",
"Y c #EB272A",
"Z c #EB252A",
"[ c #E71D25",
"\ c #E92529",
"] c #EA252A",
"^ c #E61D25",
"_ c #E51D25",
"` c #AC1E22",
"a c #B01E23",
"b c #EA282B",
"c c #E82528",
"d c #AA1E22",
"e c #E41E25",
"f c #AF1D23",
"g c #E82527",
"h c #A81D22",
"i c #E92427",
"j c #AB1E22",
"k c #EA2529",
"l c #AD1D23",
"m c #E82529",
"n c #E9272A",
"o c #A91F22",
"p c #E9262A",
"q c #AD1E23",
"r c #A71C21",
"s c #C12027",
"t c #C02026",
"u c #BD2025",
"v c #BF2026",
"w c #A91E22",
"x c #C02027",
"y c #C11F26",
"z c #A81E22",
/* pixels */
"                                                              !!!!                                                              ",
"                                                              !!!!                                                              ",
"                                                              !!!!                                                              ",
"                                                              !!!!                                                              ",
"                                                              !!!!                                                              ",
"                                                              !!!!                                                              ",
"      ########################################################!!!!########################################################      ",
"      ########################################################!!!!########################################################      ",
"      ########################################################!!!!########################################################      ",
"      ########################################################!!!!########################################################      ",
"      ########################################################!!!!########################################################      ",
"      ########################################################!!!!########################################################      ",
"      ########################################################!!!!########################################################      ",
"      ########################################################!!!!########################################################      ",
"      ########################################################!!!!########################################################      ",
"      ########################################################!!!!########################################################      ",
"      ########################################################!!!!########################################################      ",
"      ########################################################!!!!########################################################      ",
"      ########################################################!!!!########################################################      ",
"      ########################################################!!!!########################################################      ",
"      ########################################################!!!!########################################################      ",
"      ########################################################!!!!########################################################      ",
"      ########################################################!!!!########################################################      ",
"      ########################################################!!!!########################################################      ",
"      ########################################################!!!!########################################################      ",
"      ########################################################!!!!########################################################      ",
"      ########################################################!!!!########################################################      ",
"      ########################################################!!!!########################################################      ",
"      ########################################################!!!!########################################################      ",
"      ################################$%######################!!!!#####################%$#################################      ",
"      ###############################&'()#####################!!!!####################)('&################################      ",
"      ##############################*'++(,####################!!!!###################,(++'*###############################      ",
"      #############################-'++++'.###################!!!!##################.'++++'-##############################      ",
"      ############################*+++++++(/##################!!!!#################/(+++++++*#############################      ",
"      ###########################0'++++++++'1#################!!!!################1'++++++++'0############################      ",
"      ##########################2+++++++++++'*################!!!!###############*'+++++++++++2###########################      ",
"      #########################3+444444444444(5###############!!!!##############5(444444444444+3##########################      ",
"      ########################-+44444444444444'6##############!!!!#############6'44444444444444+-#########################      ",
"      #######################7+4444444444444444'8#############!!!!############8'4444444444444444+7########################      ",
"      #######################9++4444444444444444'6############!!!!###########6'4444444444444444++9########################      ",
"      ########################:++4444444444444444+6###########!!!!##########6+4444444444444444++:#########################      ",
"      #########################;++4444444444444444'$##########!!!!#########$'4444444444444444++;##########################      ",
"      ##########################;++4444444444444444'<#########!!!!########<'4444444444444444++;###########################      ",
"      ###########################=+4>444444444444444+/########!!!!#######/+444444444444444>4+=############################      ",
"      ############################?++4444444444444444'@#######!!!!######@'4444444444444444++?#############################      ",
"      #############################A++>>>>>>>>>>>>>>>>+$######!!!!#####$+>>>>>>>>>>>>>>>>++A##############################      ",
"      ##############################=+4>>>>>>>>>>>>>>>>+B#####!!!!####B+>>>>>>>>>>>>>>>>4+=###############################      ",
"      ###############################C+4>>>>>>>>>>>>>>>>+&####!!!!###&+>>>>>>>>>>>>>>>>4+C################################      ",
"      ################################=+4>>>>>>>>>>>>>>>>+/###!!!!##/+>>>>>>>>>>>>>>>>4+=#################################      ",
"      #################################D44>>>>>>>>>>>>>>>>4E##!!!!#E4>>>>>>>>>>>>>>>>44D##################################      ",
"      ##################################F+4>>>>>>>>>>>>>>>>+&#!!!!&+>>>>>>>>>>>>>>>>4+F###################################      ",
"      ###################################G+4>>>>>>>>>>>>>>>>4H!!!!4>>>>>>>>>>>>>>>>4+G####################################      ",
"      ####################################I>>>>>>>>>>>>>>>>>>4!!!!>>>>>>>>>>>>>>>>>>I#####################################      ",
"      #####################################J44>>>>>>>>>>>>>>>>!!!!>>>>>>>>>>>>>>>44J######################################      ",
"      ######################################K4>LLLLLLLLLLLLLLL!!!!LLLLLLLLLLLLLL>4K#######################################      ",
"      #######################################M>>LLLLLLLLLLLLLL!!!!LLLLLLLLLLLLL>>M########################################      ",
"      ########################################N4>LLLLLLLLLLLLL!!!!LLLLLLLLLLLL>4N#########################################      ",
"      #########################################O4>LLLLLLLLLLLL!!!!LLLLLLLLLLL>4O##########################################      ",
"      ##########################################N4>LLLLLLLLLLL!!!!LLLLLLLLLL>4N###########################################      ",
"      ###########################################94>LLLLLLLLLL!!!!LLLLLLLLL>49############################################      ",
"      ############################################O>LPLLLLLLLL!!!!LLLLLLLPL>O#############################################      ",
"      #############################################N>LPPPPPPPP!!!!PPPPPPPL>N##############################################      ",
"      ##############################################NPLPPPPPPP!!!!PPPPPPLPN###############################################      ",
"      ###############################################QLPPPPPPP!!!!PPPPPPLQ################################################      ",
"      ##############################################RLPPPPPPPP!!!!PPPPPPPLR###############################################      ",
"      #############################################S>PPPPPPPPP!!!!PPPPPPPP>S##############################################      ",
"      ############################################TLUUUUUUUUUU!!!!UUUUUUUUULT#############################################      ",
"      ###########################################T>UUUUUUUUUUU!!!!UUUUUUUUUU>T############################################      ",
"      ##########################################VLUUUUUUUUUUUU!!!!UUUUUUUUUUULV###########################################      ",
"      #########################################WLXXXXXXXXXXXXX!!!!XXXXXXXXXXXXLW##########################################      ",
"      ########################################YLXXXXXXXXXXXXXX!!!!XXXXXXXXXXXXXLY#########################################      ",
"      #######################################ZL[[[[[[[[[[[[[[[!!!![[[[[[[[[[[[[[LZ########################################      ",
"      ######################################\L[[[[[[[[[[[[[[[[!!!![[[[[[[[[[[[[[[L\#######################################      ",
"      #####################################ZL[[[[[[[[[[[[[[[[P!!!![[[[[[[[[[[[[[[[LZ######################################      ",
"      ####################################]P^^^^^^^^^^^^^^^_XL!!!!X_^^^^^^^^^^^^^^^P]#####################################      ",
"      ###################################WL^^^^^^^^^^^^^^^^PL`!!!!LP^^^^^^^^^^^^^^^^LW####################################      ",
"      ##################################VP^^^^^^^^^^^^^^^_PLa#!!!!aLP_^^^^^^^^^^^^^^^PV###################################      ",
"      #################################bP^^^^^^^^^^^^^^^_XPM##!!!!#MPX_^^^^^^^^^^^^^^^Pb##################################      ",
"      ################################cP________________ULd###!!!!##dLU________________Pc#################################      ",
"      ###############################VU_______________eXLf####!!!!###fLXe_______________UV################################      ",
"      ##############################gU________________XUh#####!!!!####hUX________________Ug###############################      ",
"      #############################iP_______________eULj######!!!!#####jLUe_______________Pi##############################      ",
"      ############################kXeeeeeeeeeeeeeeee[Pl#######!!!!######lP[eeeeeeeeeeeeeeeeXk#############################      ",
"      ###########################mUeeeeeeeeeeeeeeee[Xd########!!!!#######dX[eeeeeeeeeeeeeeeeUm############################      ",
"      ##########################nPeeeeeeeeeeeeeeeeXPo#########!!!!########oPXeeeeeeeeeeeeeeeePn###########################      ",
"      #########################pXeeeeeeeeeeeeeeee[Pq##########!!!!#########qP[eeeeeeeeeeeeeeeeXp##########################      ",
"      ########################mPeeeeeeeeeeeeeeeeX[d###########!!!!##########d[XeeeeeeeeeeeeeeeePm#########################      ",
"      #######################VPeeeeeeeeeeeeeeee[Pr############!!!!###########rP[eeeeeeeeeeeeeeeePV########################      ",
"      #######################sL_eeeeeeeeeeeeee[PI#############!!!!############IP[eeeeeeeeeeeeee_Ls########################      ",
"      ########################tL^eeeeeeeeeeee[Pd##############!!!!#############dP[eeeeeeeeeeee^Lt#########################      ",
"      #########################uL^eeeeeeeeeeXPI###############!!!!##############IPXeeeeeeeeee^Lu##########################      ",
"      ##########################tL^eeeeeeee^PN################!!!!###############NP^eeeeeeee^Lt###########################      ",
"      ###########################vL_eeeeeeXPw#################!!!!################wPXeeeeee_Lv############################      ",
"      ############################xL^eeeeXLl##################!!!!#################lLXeeee^Lx#############################      ",
"      #############################yL^ee[[h###################!!!!##################h[[ee^Ly##############################      ",
"      ##############################vL_XPz####################!!!!###################dPX_Lv###############################      ",
"      ###############################v>L`#####################!!!!####################`L>v################################      ",
"      ################################vj######################!!!!#####################jv#################################      ",
"      ########################################################!!!!########################################################      ",
"      ########################################################!!!!########################################################      ",
"      ########################################################!!!!########################################################      ",
"      ########################################################!!!!########################################################      ",
"      ########################################################!!!!########################################################      ",
"      ########################################################!!!!########################################################      ",
"      ########################################################!!!!########################################################      ",
"      ########################################################!!!!########################################################      ",
"      ########################################################!!!!########################################################      ",
"      ########################################################!!!!########################################################      ",
"      ########################################################!!!!########################################################      ",
"      ########################################################!!!!########################################################      ",
"      ########################################################!!!!########################################################      ",
"      ########################################################!!!!########################################################      ",
"      ########################################################!!!!########################################################      ",
"      ########################################################!!!!########################################################      ",
"      ########################################################!!!!########################################################      ",
"      ########################################################!!!!########################################################      ",
"      ########################################################!!!!########################################################      ",
"      ########################################################!!!!########################################################      ",
"      ########################################################!!!!########################################################      ",
"      ########################################################!!!!########################################################      ",
"      ########################################################!!!!########################################################      ",
"      ########################################################!!!!########################################################      ",
"                                                              !!!!                                                              ",
"                                                              !!!!                                                              ",
"                                                              !!!!                                                              ",
"                                                              !!!!                                                              ",
"                                                              !!!!                                                              ",
"                                                              !!!!                                                              "
};