/* XPM */
static char *fedd9a21ae1c4f8fb8b9a4545bbe3aeeONXF1vgHvqR6XOmz[] = {
/* columns rows colors chars-per-pixel */
"128 128 31 1 ",
"  c #A71C21",
". c #AB1E22",
"X c #AF1F23",
"o c #B01F23",
"O c #B31F24",
"+ c #B41F24",
"@ c #B71F25",
"# c #BC1F25",
"$ c #AF2023",
"% c #B92025",
"& c #BC2025",
"* c #C11F26",
"= c #E01F26",
"- c #E41E25",
"; c #EA1C24",
": c #ED1C24",
"> c #ED1F24",
", c #C12027",
"< c #C92026",
"1 c #ED2024",
"2 c #E92427",
"3 c #ED2427",
"4 c #E9262A",
"5 c #ED2729",
"6 c #EA282B",
"7 c #EE282B",
"8 c #EE2A2D",
"9 c #ED2C2E",
"0 c #FB8500",
"q c #FFB703",
"w c #0310FF",
/* pixels */
"0000000000000000000000000000000000000000000000000000000000000000000000000000000000000000000000000000000000000000000000000000wwww",
"000000000000000000000000000000000000000000000000000000000000000000000000000000000000000000000000000000000000000000000000000wwwww",
"00000000000000000000000000000000000000000000000000000000000000000000000000000000000000000000000000000000000000000000000000wwwwww",
"0000000000000000000000000000000000000000000000000000000000000000000000000000000000000000000000000000000000000000000000000wwwwwww",
"000000000000000000000000000000000000000000000000000000000000000000000000000000000000000000000000000000000000000000000000wwwwwww0",
"00000000000000000000000000000000000000000000000000000000000000000000000000000000000000000000000000000000000000000000000wwwwwww00",
"000000qqqqqqqqqqqqqqqqqqqqqqqqqqqqqqqqqqqqqqqqqqqqqqqqqqqqqqqqqqqqqqqqqqqqqqqqqqqqqqqqqqqqqqqqqqqqqqqqqqqqqqqqqqqqqqqqwwwwwww000",
"000000qqqqqqqqqqqqqqqqqqqqqqqqqqqqqqqqqqqqqqqqqqqqqqqqqqqqqqqqqqqqqqqqqqqqqqqqqqqqqqqqqqqqqqqqqqqqqqqqqqqqqqqqqqqqqqqwwwwwww0000",
"000000qqqqqqqqqqqqqqqqqqqqqqqqqqqqqqqqqqqqqqqqqqqqqqqqqqqqqqqqqqqqqqqqqqqqqqqqqqqqqqqqqqqqqqqqqqqqqqqqqqqqqqqqqqqqqqwwwwwww00000",
"000000qqqqqqqqqqqqqqqqqqqqqqqqqqqqqqqqqqqqqqqqqqqqqqqqqqqqqqqqqqqqqqqqqqqqqqqqqqqqqqqqqqqqqqqqqqqqqqqqqqqqqqqqqqqqqwwwwwww000000",
"000000qqqqqqqqqqqqqqqqqqqqqqqqqqqqqqqqqqqqqqqqqqqqqqqqqqqqqqqqqqqqqqqqqqqqqqqqqqqqqqqqqqqqqqqqqqqqqqqqqqqqqqqqqqqqwwwwwwwq000000",
"000000qqqqqqqqqqqqqqqqqqqqqqqqqqqqqqqqqqqqqqqqqqqqqqqqqqqqqqqqqqqqqqqqqqqqqqqqqqqqqqqqqqqqqqqqqqqqqqqqqqqqqqqqqqqwwwwwwwqq000000",
"000000qqqqqqqqqqqqqqqqqqqqqqqqqqqqqqqqqqqqqqqqqqqqqqqqqqqqqqqqqqqqqqqqqqqqqqqqqqqqqqqqqqqqqqqqqqqqqqqqqqqqqqqqqqwwwwwwwqqq000000",
"000000qqqqqqqqqqqqqqqqqqqqqqqqqqqqqqqqqqqqqqqqqqqqqqqqqqqqqqqqqqqqqqqqqqqqqqqqqqqqqqqqqqqqqqqqqqqqqqqqqqqqqqqqqwwwwwwwqqqq000000",
"000000qqqqqqqqqqqqqqqqqqqqqqqqqqqqqqqqqqqqqqqqqqqqqqqqqqqqqqqqqqqqqqqqqqqqqqqqqqqqqqqqqqqqqqqqqqqqqqqqqqqqqqqqwwwwwwwqqqqq000000",
"000000qqqqqqqqqqqqqqqqqqqqqqqqqqqqqqqqqqqqqqqqqqqqqqqqqqqqqqqqqqqqqqqqqqqqqqqqqqqqqqqqqqqqqqqqqqqqqqqqqqqqqqqwwwwwwwqqqqqq000000",
"000000qqqqqqqqqqqqqqqqqqqqqqqqqqqqqqqqqqqqqqqqqqqqqqqqqqqqqqqqqqqqqqqqqqqqqqqqqqqqqqqqqqqqqqqqqqqqqqqqqqqqqqwwwwwwwqqqqqqq000000",
"000000qqqqqqqqqqqqqqqqqqqqqqqqqqqqqqqqqqqqqqqqqqqqqqqqqqqqqqqqqqqqqqqqqqqqqqqqqqqqqqqqqqqqqqqqqqqqqqqqqqqqqwwwwwwwqqqqqqqq000000",
"000000qqqqqqqqqqqqqqqqqqqqqqqqqqqqqqqqqqqqqqqqqqqqqqqqqqqqqqqqqqqqqqqqqqqqqqqqqqqqqqqqqqqqqqqqqqqqqqqqqqqqwwwwwwwqqqqqqqqq000000",
"000000qqqqqqqqqqqqqqqqqqqqqqqqqqqqqqqqqqqqqqqqqqqqqqqqqqqqqqqqqqqqqqqqqqqqqqqqqqqqqqqqqqqqqqqqqqqqqqqqqqqwwwwwwwqqqqqqqqqq000000",
"000000qqqqqqqqqqqqqqqqqqqqqqqqqqqqqqqqqqqqqqqqqqqqqqqqqqqqqqqqqqqqqqqqqqqqqqqqqqqqqqqqqqqqqqqqqqqqqqqqqqwwwwwwwqqqqqqqqqqq000000",
"000000qqqqqqqqqqqqqqqqqqqqqqqqqqqqqqqqqqqqqqqqqqqqqqqqqqqqqqqqqqqqqqqqqqqqqqqqqqqqqqqqqqqqqqqqqqqqqqqqqwwwwwwwqqqqqqqqqqqq000000",
"000000qqqqqqqqqqqqqqqqqqqqqqqqqqqqqqqqqqqqqqqqqqqqqqqqqqqqqqqqqqqqqqqqqqqqqqqqqqqqqqqqqqqqqqqqqqqqqqqqwwwwwwwqqqqqqqqqqqqq000000",
"000000qqqqqqqqqqqqqqqqqqqqqqqqqqqqqqqqqqqqqqqqqqqqqqqqqqqqqqqqqqqqqqqqqqqqqqqqqqqqqqqqqqqqqqqqqqqqqqqwwwwwwwqqqqqqqqqqqqqq000000",
"000000qqqqqqqqqqqqqqqqqqqqqqqqqqqqqqqqqqqqqqqqqqqqqqqqqqqqqqqqqqqqqqqqqqqqqqqqqqqqqqqqqqqqqqqqqqqqqqwwwwwwwqqqqqqqqqqqqqqq000000",
"000000qqqqqqqqqqqqqqqqqqqqqqqqqqqqqqqqqqqqqqqqqqqqqqqqqqqqqqqqqqqqqqqqqqqqqqqqqqqqqqqqqqqqqqqqqqqqqwwwwwwwqqqqqqqqqqqqqqqq000000",
"000000qqqqqqqqqqqqqqqqqqqqqqqqqqqqqqqqqqqqqqqqqqqqqqqqqqqqqqqqqqqqqqqqqqqqqqqqqqqqqqqqqqqqqqqqqqqqwwwwwwwqqqqqqqqqqqqqqqqq000000",
"000000qqqqqqqqqqqqqqqqqqqqqqqqqqqqqqqqqqqqqqqqqqqqqqqqqqqqqqqqqqqqqqqqqqqqqqqqqqqqqqqqqqqqqqqqqqqwwwwwwwqqqqqqqqqqqqqqqqqq000000",
"000000qqqqqqqqqqqqqqqqqqqqqqqqqqqqqqqqqqqqqqqqqqqqqqqqqqqqqqqqqqqqqqqqqqqqqqqqqqqqqqqqqqqqqqqqqqwwwwwwwqqqqqqqqqqqqqqqqqqq000000",
"000000qqqqqqqqqqqqqqqqqqqqqqqqqqqqqqqq78qqqqqqqqqqqqqqqqqqqqqqqqqqqqqqqqqqqqqqqqqqqqqqq87qqqqqqwwwwwwwqqqqqqqqqqqqqqqqqqqq000000",
"000000qqqqqqqqqqqqqqqqqqqqqqqqqqqqqqq5>18qqqqqqqqqqqqqqqqqqqqqqqqqqqqqqqqqqqqqqqqqqqqq81>5qqqqwwwwwwwqqqqqqqqqqqqqqqqqqqqq000000",
"000000qqqqqqqqqqqqqqqqqqqqqqqqqqqqqq5>>>19qqqqqqqqqqqqqqqqqqqqqqqqqqqqqqqqqqqqqqqqqqq91>>>5qqwwwwwwwqqqqqqqqqqqqqqqqqqqqqq000000",
"000000qqqqqqqqqqqqqqqqqqqqqqqqqqqqq3>>>>>>8qqqqqqqqqqqqqqqqqqqqqqqqqqqqqqqqqqqqqqqqq8>>>>>>3wwwwwwwqqqqqqqqqqqqqqqqqqqqqqq000000",
"000000qqqqqqqqqqqqqqqqqqqqqqqqqqqq5>>>>>>>>8qqqqqqqqqqqqqqqqqqqqqqqqqqqqqqqqqqqqqqq81>>>>>>wwwwwwwqqqqqqqqqqqqqqqqqqqqqqqq000000",
"000000qqqqqqqqqqqqqqqqqqqqqqqqqqq5>>>>>>>>>>8qqqqqqqqqqqqqqqqqqqqqqqqqqqqqqqqqqqqq8>>>>>>>wwwwwwwqqqqqqqqqqqqqqqqqqqqqqqqq000000",
"000000qqqqqqqqqqqqqqqqqqqqqqqqqq5>>>>>>>>>>>>5qqqqqqqqqqqqqqqqqqqqqqqqqqqqqqqqqqq5>>>>>>>wwwwwwwqqqqqqqqqqqqqqqqqqqqqqqqqq000000",
"000000qqqqqqqqqqqqqqqqqqqqqqqqq1>:>>>>>>>>>>>>5qqqqqqqqqqqqqqqqqqqqqqqqqqqqqqqqq7>>>>>>>wwwwwww1qqqqqqqqqqqqqqqqqqqqqqqqqq000000",
"000000qqqqqqqqqqqqqqqqqqqqqqqq3>::>>>>>>>>>>>>>8qqqqqqqqqqqqqqqqqqqqqqqqqqqqqqq8>>>>>>>wwwwwww>>3qqqqqqqqqqqqqqqqqqqqqqqqq000000",
"000000qqqqqqqqqqqqqqqqqqqqqqq1>>>>>>>:>>>>>>>>>>5qqqqqqqqqqqqqqqqqqqqqqqqqqqqq5>>:>>>>wwwwwww>>>>1qqqqqqqqqqqqqqqqqqqqqqqq000000",
"000000qqqqqqqqqqqqqqqqqqqqqqq@>>>>>>>>>>>>>>>>>>>8qqqqqqqqqqqqqqqqqqqqqqqqqqq8>>>>>>>wwwwwww>>>>>@qqqqqqqqqqqqqqqqqqqqqqqq000000",
"000000qqqqqqqqqqqqqqqqqqqqqqqq&>>>>>::>>>::>>>>>>>8qqqqqqqqqqqqqqqqqqqqqqqqq8>>>>>>>wwwwwww>>>>>&qqqqqqqqqqqqqqqqqqqqqqqqq000000",
"000000qqqqqqqqqqqqqqqqqqqqqqqqq@>>:>>>>>>>:>::>>>>>7qqqqqqqqqqqqqqqqqqqqqqq5>>>>>>>wwwwwww>>>>>@qqqqqqqqqqqqqqqqqqqqqqqqqq000000",
"000000qqqqqqqqqqqqqqqqqqqqqqqqqq@>>>>>>>>>:>::>>>>>>7qqqqqqqqqqqqqqqqqqqqq5>>>>>>>wwwwwww>>>>>@qqqqqqqqqqqqqqqqqqqqqqqqqqq000000",
"000000qqqqqqqqqqqqqqqqqqqqqqqqqqq@>:>>>>>>>>>>>>>>>>>8qqqqqqqqqqqqqqqqqqq8>>:>>>>wwwwwww>>>>>%qqqqqqqqqqqqqqqqqqqqqqqqqqqq000000",
"000000qqqqqqqqqqqqqqqqqqqqqqqqqqqq@>>>>>>>::::>>>>>>>>5qqqqqqqqqqqqqqqqq5>>>>>>>wwwwwww>>>>>@qqqqqqqqqqqqqqqqqqqqqqqqqqqqq000000",
"000000qqqqqqqqqqqqqqqqqqqqqqqqqqqqq#>>>>>>>>>>>:>>>>>>>5qqqqqqqqqqqqqqq5>>>>>>>wwwwwww>>>>>#qqqqqqqqqqqqqqqqqqqqqqqqqqqqqq000000",
"000000qqqqqqqqqqqqqqqqqqqqqqqqqqqqqq%>>>:>>>>>>:>>>>>>>>8qqqqqqqqqqqqq8>>>>>>>wwwwwww>>>>>@qqqqqqqqqqqqqqqqqqqqqqqqqqqqqqq000000",
"000000qqqqqqqqqqqqqqqqqqqqqqqqqqqqqqqO>>:>>>>>>>:::>>>>>>5qqqqqqqqqqq5>>>>>>>wwwwwww>>>>>Oqqqqqqqqqqqqqqqqqqqqqqqqqqqqqqqq000000",
"000000qqqqqqqqqqqqqqqqqqqqqqqqqqqqqqqq%>>>:>:>>>:>:>>>:::>8qqqqqqqqq8>>>>>>>wwwwwww>>>>>%qqqqqqqqqqqqqqqqqqqqqqqqqqqqqqqqq000000",
"000000qqqqqqqqqqqqqqqqqqqqqqqqqqqqqqqqqO>::>:>>>:>>>>>::>>>1qqqqqqq3>>>>>>>wwwwwww>>>>>Oqqqqqqqqqqqqqqqqqqqqqqqqqqqqqqqqqq000000",
"000000qqqqqqqqqqqqqqqqqqqqqqqqqqqqqqqqqqO>>>>>>>>>>>>>>>>>>>5qqqqq5>>>>>>>wwwwwww>>>>>Oqqqqqqqqqqqqqqqqqqqqqqqqqqqqqqqqqqq000000",
"000000qqqqqqqqqqqqqqqqqqqqqqqqqqqqqqqqqqq@>>>>>>>>>>>>>>>>>>>7qqq7>>>>>>>wwwwwww>>>>>@qqqqqqqqqqqqqqqqqqqqqqqqqqqqqqqqqqqq000000",
"000000qqqqqqqqqqqqqqqqqqqqqqqqqqqqqqqqqqqqX>>>>>::>>>>>>>>>>>>5q5>>>>>>>wwwwwww>:>>>Xqqqqqqqqqqqqqqqqqqqqqqqqqqqqqqqqqqqqq000000",
"000000qqqqqqqqqqqqqqqqqqqqqqqqqqqqqqqqqqqqq$>>>>::>>>>>>>>>>>>>>>>>>>>>wwwwwww>>>>>$qqqqqqqqqqqqqqqqqqqqqqqqqqqqqqqqqqqqqq000000",
"000000qqqqqqqqqqqqqqqqqqqqqqqqqqqqqqqqqqqqqq@>>;;;;;;;;;;;;;;;;>;;;;;;wwwwwww;;;::@qqqqqqqqqqqqqqqqqqqqqqqqqqqqqqqqqqqqqqq000000",
"000000qqqqqqqqqqqqqqqqqqqqqqqqqqqqqqqqqqqqqqqo>>;;;;;;;;;;;;;;;;;;;;;wwwwwww;;;>>oqqqqqqqqqqqqqqqqqqqqqqqqqqqqqqqqqqqqqqqq000000",
"000000qqqqqqqqqqqqqqqqqqqqqqqqqqqqqqqqqqqqqqqqX>>;;;;;;;;;;;;;;;;;;;wwwwwww;;;>>Xqqqqqqqqqqqqqqqqqqqqqqqqqqqqqqqqqqqqqqqqq000000",
"000000qqqqqqqqqqqqqqqqqqqqqqqqqqqqqqqqqqqqqqqqqO>>;;;;;;;;;;;;;;;;;wwwwwww;;;>>Oqqqqqqqqqqqqqqqqqqqqqqqqqqqqqqqqqqqqqqqqqq000000",
"000000qqqqqqqqqqqqqqqqqqqqqqqqqqqqqqqqqqqqqqqqqqX>>;;;;;;;;;;;;;;;wwwwwww;;;>>Xqqqqqqqqqqqqqqqqqqqqqqqqqqqqqqqqqqqqqqqqqqq000000",
"000000qqqqqqqqqqqqqqqqqqqqqqqqqqqqqqqqqqqqqqqqqqq@>>;;;;;;;;;;;;;wwwwwww;;;>>@qqqqqqqqqqqqqqqqqqqqqqqqqqqqqqqqqqqqqqqqqqqq000000",
"000000qqqqqqqqqqqqqqqqqqqqqqqqqqqqqqqqqqqqqqqqqqqqO>;;;;;;;;;;;;wwwwwww;;;;>Oqqqqqqqqqqqqqqqqqqqqqqqqqqqqqqqqqqqqqqqqqqqqq000000",
"000000qqqqqqqqqqqqqqqqqqqqqqqqqqqqqqqqqqqqqqqqqqqqqX>;;;;;;;;;;wwwwwww;;;;>Xqqqqqqqqqqqqqqqqqqqqqqqqqqqqqqqqqqqqqqqqqqqqqq000000",
"000000qqqqqqqqqqqqqqqqqqqqqqqqqqqqqqqqqqqqqqqqqqqqqqX;;;;;;;;;wwwwwww;;;;;Xqqqqqqqqqqqqqqqqqqqqqqqqqqqqqqqqqqqqqqqqqqqqqqq000000",
"000000qqqqqqqqqqqqqqqqqqqqqqqqqqqqqqqqqqqqqqqqqqqqqqq=;;;;;;;wwwwwww;;;;;=qqqqqqqqqqqqqqqqqqqqqqqqqqqqqqqqqqqqqqqqqqqqqqqq000000",
"000000qqqqqqqqqqqqqqqqqqqqqqqqqqqqqqqqqqqqqqqqqqqqqq7;;;;;;;wwwwwww;;;;;;;7qqqqqqqqqqqqqqqqqqqqqqqqqqqqqqqqqqqqqqqqqqqqqqq000000",
"000000qqqqqqqqqqqqqqqqqqqqqqqqqqqqqqqqqqqqqqqqqqqqq5>;;;;;;wwwwwww;;;;;;;;>5qqqqqqqqqqqqqqqqqqqqqqqqqqqqqqqqqqqqqqqqqqqqqq000000",
"000000qqqqqqqqqqqqqqqqqqqqqqqqqqqqqqqqqqqqqqqqqqqq2;;;;;;;wwwwwww;;;;;;;;;;;2qqqqqqqqqqqqqqqqqqqqqqqqqqqqqqqqqqqqqqqqqqqqq000000",
"000000qqqqqqqqqqqqqqqqqqqqqqqqqqqqqqqqqqqqqqqqqqq2>;;;;;;wwwwwww;;;;;;;;;;;;>2qqqqqqqqqqqqqqqqqqqqqqqqqqqqqqqqqqqqqqqqqqqq000000",
"000000qqqqqqqqqqqqqqqqqqqqqqqqqqqqqqqqqqqqqqqqqq4;;;;;;;wwwwwww;;;;;;;;;;;;;;;4qqqqqqqqqqqqqqqqqqqqqqqqqqqqqqqqqqqqqqqqqqq000000",
"000000qqqqqqqqqqqqqqqqqqqqqqqqqqqqqqqqqqqqqqqqq4;;;;;;;wwwwwww;;;;;;;;;-;;;;--;4qqqqqqqqqqqqqqqqqqqqqqqqqqqqqqqqqqqqqqqqqq000000",
"000000qqqqqqqqqqqqqqqqqqqqqqqqqqqqqqqqqqqqqqqq4;;;;;;;wwwwwww;;;;;;;;;;;;;;;-;;;4qqqqqqqqqqqqqqqqqqqqqqqqqqqqqqqqqqqqqqqqq000000",
"000000qqqqqqqqqqqqqqqqqqqqqqqqqqqqqqqqqqqqqqq4;------wwwwwww------------------;;;4qqqqqqqqqqqqqqqqqqqqqqqqqqqqqqqqqqqqqqqq000000",
"000000qqqqqqqqqqqqqqqqqqqqqqqqqqqqqqqqqqqqqq4;;;----wwwwwww---;;;----;;;;---;;;;-;4qqqqqqqqqqqqqqqqqqqqqqqqqqqqqqqqqqqqqqq000000",
"000000qqqqqqqqqqqqqqqqqqqqqqqqqqqqqqqqqqqqq4;;;----wwwwwww---;-<-;----;;;;--;;;;--;4qqqqqqqqqqqqqqqqqqqqqqqqqqqqqqqqqqqqqq000000",
"000000qqqqqqqqqqqqqqqqqqqqqqqqqqqqqqqqqqqq4;------wwwwwww---;;OqO;;----------------;4qqqqqqqqqqqqqqqqqqqqqqqqqqqqqqqqqqqqq000000",
"000000qqqqqqqqqqqqqqqqqqqqqqqqqqqqqqqqqqq4;------wwwwwww---;;XqqqX;;----------------;4qqqqqqqqqqqqqqqqqqqqqqqqqqqqqqqqqqqq000000",
"000000qqqqqqqqqqqqqqqqqqqqqqqqqqqqqqqqqq4;------wwwwwww---;;oqqqqqo;;----------------;4qqqqqqqqqqqqqqqqqqqqqqqqqqqqqqqqqqq000000",
"000000qqqqqqqqqqqqqqqqqqqqqqqqqqqqqqqqq6;------wwwwwww---;;oqqqqqqqo;;----------------;6qqqqqqqqqqqqqqqqqqqqqqqqqqqqqqqqqq000000",
"000000qqqqqqqqqqqqqqqqqqqqqqqqqqqqqqqq4;------wwwwwww---;;.qqqqqqqqq.;;----------------;4qqqqqqqqqqqqqqqqqqqqqqqqqqqqqqqqq000000",
"000000qqqqqqqqqqqqqqqqqqqqqqqqqqqqqqq4;------wwwwwww---;;oqqqqqqqqqqqX;;----------------;4qqqqqqqqqqqqqqqqqqqqqqqqqqqqqqqq000000",
"000000qqqqqqqqqqqqqqqqqqqqqqqqqqqqqq2;------wwwwwww---;;.qqqqqqqqqqqqq.;;----------------;2qqqqqqqqqqqqqqqqqqqqqqqqqqqqqqq000000",
"000000qqqqqqqqqqqqqqqqqqqqqqqqqqqqq2;------wwwwwww---;;.qqqqqqqqqqqqqqq.;;----------------;2qqqqqqqqqqqqqqqqqqqqqqqqqqqqqq000000",
"000000qqqqqqqqqqqqqqqqqqqqqqqqqqqq4;------wwwwwww----;XqqqqqqqqqqqqqqqqqX;-----------------;4qqqqqqqqqqqqqqqqqqqqqqqqqqqqq000000",
"000000qqqqqqqqqqqqqqqqqqqqqqqqqqq4;------wwwwwww----;.qqqqqqqqqqqqqqqqqqq.;-----------------;4qqqqqqqqqqqqqqqqqqqqqqqqqqqq000000",
"000000qqqqqqqqqqqqqqqqqqqqqqqqqq4;------wwwwwww---;;.qqqqqqqqqqqqqqqqqqqqq.;;----------------;4qqqqqqqqqqqqqqqqqqqqqqqqqqq000000",
"000000qqqqqqqqqqqqqqqqqqqqqqqqq4;------wwwwwww----;XqqqqqqqqqqqqqqqqqqqqqqqX;-----------------;4qqqqqqqqqqqqqqqqqqqqqqqqqq000000",
"000000qqqqqqqqqqqqqqqqqqqqqqqq4;------wwwwwww---;-.qqqqqqqqqqqqqqqqqqqqqqqqq.-;----------------;4qqqqqqqqqqqqqqqqqqqqqqqqq000000",
"000000qqqqqqqqqqqqqqqqqqqqqqq4;------wwwwwww----; qqqqqqqqqqqqqqqqqqqqqqqqqqq ;-----------------;4qqqqqqqqqqqqqqqqqqqqqqqq000000",
"000000qqqqqqqqqqqqqqqqqqqqqqq,;-----wwwwwww----;XqqqqqqqqqqqqqqqqqqqqqqqqqqqqqX;----------------;,qqqqqqqqqqqqqqqqqqqqqqqq000000",
"000000qqqqqqqqqqqqqqqqqqqqqqqq,;---wwwwwww----;.qqqqqqqqqqqqqqqqqqqqqqqqqqqqqqq.;--------------;,qqqqqqqqqqqqqqqqqqqqqqqqq000000",
"000000qqqqqqqqqqqqqqqqqqqqqqqqq&;-wwwwwww---;;XqqqqqqqqqqqqqqqqqqqqqqqqqqqqqqqqqX;;-----------;&qqqqqqqqqqqqqqqqqqqqqqqqqq000000",
"000000qqqqqqqqqqqqqqqqqqqqqqqqqq,wwwwwww----;XqqqqqqqqqqqqqqqqqqqqqqqqqqqqqqqqqqqX;----------;,qqqqqqqqqqqqqqqqqqqqqqqqqqq000000",
"000000qqqqqqqqqqqqqqqqqqqqqqqqqqwwwwwww---;;.qqqqqqqqqqqqqqqqqqqqqqqqqqqqqqqqqqqqq.;;-------;&qqqqqqqqqqqqqqqqqqqqqqqqqqqq000000",
"000000qqqqqqqqqqqqqqqqqqqqqqqqqwwwwwww---;;XqqqqqqqqqqqqqqqqqqqqqqqqqqqqqqqqqqqqqqqX;;-----;,qqqqqqqqqqqqqqqqqqqqqqqqqqqqq000000",
"000000qqqqqqqqqqqqqqqqqqqqqqqqwwwwwww-----.qqqqqqqqqqqqqqqqqqqqqqqqqqqqqqqqqqqqqqqqq.-----;*qqqqqqqqqqqqqqqqqqqqqqqqqqqqqq000000",
"000000qqqqqqqqqqqqqqqqqqqqqqqwwwwwww&;-;;.qqqqqqqqqqqqqqqqqqqqqqqqqqqqqqqqqqqqqqqqqqq.;;-;&qqqqqqqqqqqqqqqqqqqqqqqqqqqqqqq000000",
"000000qqqqqqqqqqqqqqqqqqqqqqwwwwwwwqq&>;XqqqqqqqqqqqqqqqqqqqqqqqqqqqqqqqqqqqqqqqqqqqqqX;>&qqqqqqqqqqqqqqqqqqqqqqqqqqqqqqqq000000",
"000000qqqqqqqqqqqqqqqqqqqqqwwwwwwwqqqq&.qqqqqqqqqqqqqqqqqqqqqqqqqqqqqqqqqqqqqqqqqqqqqqq.&qqqqqqqqqqqqqqqqqqqqqqqqqqqqqqqqq000000",
"000000qqqqqqqqqqqqqqqqqqqqwwwwwwwqqqqqqqqqqqqqqqqqqqqqqqqqqqqqqqqqqqqqqqqqqqqqqqqqqqqqqqqqqqqqqqqqqqqqqqqqqqqqqqqqqqqqqqqq000000",
"000000qqqqqqqqqqqqqqqqqqqwwwwwwwqqqqqqqqqqqqqqqqqqqqqqqqqqqqqqqqqqqqqqqqqqqqqqqqqqqqqqqqqqqqqqqqqqqqqqqqqqqqqqqqqqqqqqqqqq000000",
"000000qqqqqqqqqqqqqqqqqqwwwwwwwqqqqqqqqqqqqqqqqqqqqqqqqqqqqqqqqqqqqqqqqqqqqqqqqqqqqqqqqqqqqqqqqqqqqqqqqqqqqqqqqqqqqqqqqqqq000000",
"000000qqqqqqqqqqqqqqqqqwwwwwwwqqqqqqqqqqqqqqqqqqqqqqqqqqqqqqqqqqqqqqqqqqqqqqqqqqqqqqqqqqqqqqqqqqqqqqqqqqqqqqqqqqqqqqqqqqqq000000",
"000000qqqqqqqqqqqqqqqqwwwwwwwqqqqqqqqqqqqqqqqqqqqqqqqqqqqqqqqqqqqqqqqqqqqqqqqqqqqqqqqqqqqqqqqqqqqqqqqqqqqqqqqqqqqqqqqqqqqq000000",
"000000qqqqqqqqqqqqqqqwwwwwwwqqqqqqqqqqqqqqqqqqqqqqqqqqqqqqqqqqqqqqqqqqqqqqqqqqqqqqqqqqqqqqqqqqqqqqqqqqqqqqqqqqqqqqqqqqqqqq000000",
"000000qqqqqqqqqqqqqqwwwwwwwqqqqqqqqqqqqqqqqqqqqqqqqqqqqqqqqqqqqqqqqqqqqqqqqqqqqqqqqqqqqqqqqqqqqqqqqqqqqqqqqqqqqqqqqqqqqqqq000000",
"000000qqqqqqqqqqqqqwwwwwwwqqqqqqqqqqqqqqqqqqqqqqqqqqqqqqqqqqqqqqqqqqqqqqqqqqqqqqqqqqqqqqqqqqqqqqqqqqqqqqqqqqqqqqqqqqqqqqqq000000",
"000000qqqqqqqqqqqqwwwwwwwqqqqqqqqqqqqqqqqqqqqqqqqqqqqqqqqqqqqqqqqqqqqqqqqqqqqqqqqqqqqqqqqqqqqqqqqqqqqqqqqqqqqqqqqqqqqqqqqq000000",
"000000qqqqqqqqqqqwwwwwwwqqqqqqqqqqqqqqqqqqqqqqqqqqqqqqqqqqqqqqqqqqqqqqqqqqqqqqqqqqqqqqqqqqqqqqqqqqqqqqqqqqqqqqqqqqqqqqqqqq000000",
"000000qqqqqqqqqqwwwwwwwqqqqqqqqqqqqqqqqqqqqqqqqqqqqqqqqqqqqqqqqqqqqqqqqqqqqqqqqqqqqqqqqqqqqqqqqqqqqqqqqqqqqqqqqqqqqqqqqqqq000000",
"000000qqqqqqqqqwwwwwwwqqqqqqqqqqqqqqqqqqqqqqqqqqqqqqqqqqqqqqqqqqqqqqqqqqqqqqqqqqqqqqqqqqqqqqqqqqqqqqqqqqqqqqqqqqqqqqqqqqqq000000",
"000000qqqqqqqqwwwwwwwqqqqqqqqqqqqqqqqqqqqqqqqqqqqqqqqqqqqqqqqqqqqqqqqqqqqqqqqqqqqqqqqqqqqqqqqqqqqqqqqqqqqqqqqqqqqqqqqqqqqq000000",
"000000qqqqqqqwwwwwwwqqqqqqqqqqqqqqqqqqqqqqqqqqqqqqqqqqqqqqqqqqqqqqqqqqqqqqqqqqqqqqqqqqqqqqqqqqqqqqqqqqqqqqqqqqqqqqqqqqqqqq000000",
"000000qqqqqqwwwwwwwqqqqqqqqqqqqqqqqqqqqqqqqqqqqqqqqqqqqqqqqqqqqqqqqqqqqqqqqqqqqqqqqqqqqqqqqqqqqqqqqqqqqqqqqqqqqqqqqqqqqqqq000000",
"000000qqqqqwwwwwwwqqqqqqqqqqqqqqqqqqqqqqqqqqqqqqqqqqqqqqqqqqqqqqqqqqqqqqqqqqqqqqqqqqqqqqqqqqqqqqqqqqqqqqqqqqqqqqqqqqqqqqqq000000",
"000000qqqqwwwwwwwqqqqqqqqqqqqqqqqqqqqqqqqqqqqqqqqqqqqqqqqqqqqqqqqqqqqqqqqqqqqqqqqqqqqqqqqqqqqqqqqqqqqqqqqqqqqqqqqqqqqqqqqq000000",
"000000qqqwwwwwwwqqqqqqqqqqqqqqqqqqqqqqqqqqqqqqqqqqqqqqqqqqqqqqqqqqqqqqqqqqqqqqqqqqqqqqqqqqqqqqqqqqqqqqqqqqqqqqqqqqqqqqqqqq000000",
"000000qqwwwwwwwqqqqqqqqqqqqqqqqqqqqqqqqqqqqqqqqqqqqqqqqqqqqqqqqqqqqqqqqqqqqqqqqqqqqqqqqqqqqqqqqqqqqqqqqqqqqqqqqqqqqqqqqqqq000000",
"000000qwwwwwwwqqqqqqqqqqqqqqqqqqqqqqqqqqqqqqqqqqqqqqqqqqqqqqqqqqqqqqqqqqqqqqqqqqqqqqqqqqqqqqqqqqqqqqqqqqqqqqqqqqqqqqqqqqqq000000",
"000000wwwwwwwqqqqqqqqqqqqqqqqqqqqqqqqqqqqqqqqqqqqqqqqqqqqqqqqqqqqqqqqqqqqqqqqqqqqqqqqqqqqqqqqqqqqqqqqqqqqqqqqqqqqqqqqqqqqq000000",
"00000wwwwwwwqqqqqqqqqqqqqqqqqqqqqqqqqqqqqqqqqqqqqqqqqqqqqqqqqqqqqqqqqqqqqqqqqqqqqqqqqqqqqqqqqqqqqqqqqqqqqqqqqqqqqqqqqqqqqq000000",
"0000wwwwwwwqqqqqqqqqqqqqqqqqqqqqqqqqqqqqqqqqqqqqqqqqqqqqqqqqqqqqqqqqqqqqqqqqqqqqqqqqqqqqqqqqqqqqqqqqqqqqqqqqqqqqqqqqqqqqqq000000",
"000wwwwwwwqqqqqqqqqqqqqqqqqqqqqqqqqqqqqqqqqqqqqqqqqqqqqqqqqqqqqqqqqqqqqqqqqqqqqqqqqqqqqqqqqqqqqqqqqqqqqqqqqqqqqqqqqqqqqqqq000000",
"00wwwwwww00000000000000000000000000000000000000000000000000000000000000000000000000000000000000000000000000000000000000000000000",
"0wwwwwww000000000000000000000000000000000000000000000000000000000000000000000000000000000000000000000000000000000000000000000000",
"wwwwwww0000000000000000000000000000000000000000000000000000000000000000000000000000000000000000000000000000000000000000000000000",
"wwwwww00000000000000000000000000000000000000000000000000000000000000000000000000000000000000000000000000000000000000000000000000",
"wwwww000000000000000000000000000000000000000000000000000000000000000000000000000000000000000000000000000000000000000000000000000",
"wwww0000000000000000000000000000000000000000000000000000000000000000000000000000000000000000000000000000000000000000000000000000"
};
