/* XPM */
static char *_c0f2dedc69d4c26dc7699f1ada55d98hlmLC0WugoDvyy2w[] = {
/* columns rows colors chars-per-pixel */
"128 128 2 1 ",
"  c #FB8500",
". c #FFB703",
/* pixels */
"                                                                                                                                ",
"                                                                                                                                ",
"                                                                                                                                ",
"                                                                                                                                ",
"                                                                                                                                ",
"                                                                                                                                ",
"      ....................................................................................................................      ",
"      ....................................................................................................................      ",
"      ....................................................................................................................      ",
"      ....................................................................................................................      ",
"      ....................................................................................................................      ",
"      ....................................................................................................................      ",
"      ....................................................................................................................      ",
"      ....................................................................................................................      ",
"      ....................................................................................................................      ",
"      ....................................................................................................................      ",
"      ....................................................................................................................      ",
"      ....................................................................................................................      ",
"      ....................................................................................................................      ",
"      ....................................................................................................................      ",
"      ....................................................................................................................      ",
"      ....................................................................................................................      ",
"      ....................................................................................................................      ",
"      ....................................................................................................................      ",
"      ....................................................................................................................      ",
"      ....................................................................................................................      ",
"      ....................................................................................................................      ",
"      ....................................................................................................................      ",
"      ....................................................................................................................      ",
"      ....................................................................................................................      ",
"      ....................................................................................................................      ",
"      ....................................................................................................................      ",
"      ....................................................................................................................      ",
"      ....................................................................................................................      ",
"      ....................................................................................................................      ",
"      ....................................................................................................................      ",
"      ....................................................................................................................      ",
"      ....................................................................................................................      ",
"      ....................................................................................................................      ",
"      ....................................................................................................................      ",
"      ....................................................................................................................      ",
"      ....................................................................................................................      ",
"      ....................................................................................................................      ",
"      ....................................................................................................................      ",
"      ....................................................................................................................      ",
"      ....................................................................................................................      ",
"      ....................................................................................................................      ",
"      ....................................................................................................................      ",
"      ....................................................................................................................      ",
"      ....................................................................................................................      ",
"      ....................................................................................................................      ",
"      ....................................................................................................................      ",
"      ....................................................................................................................      ",
"      ....................................................................................................................      ",
"      ....................................................................................................................      ",
"      ....................................................................................................................      ",
"      ....................................................................................................................      ",
"      ....................................................................................................................      ",
"      ....................................................................................................................      ",
"      ....................................................................................................................      ",
"      ....................................................................................................................      ",
"      ....................................................................................................................      ",
"      ....................................................................................................................      ",
"      ....................................................................................................................      ",
"      ....................................................................................................................      ",
"      ....................................................................................................................      ",
"      ....................................................................................................................      ",
"      ....................................................................................................................      ",
"      ....................................................................................................................      ",
"      ....................................................................................................................      ",
"      ....................................................................................................................      ",
"      ....................................................................................................................      ",
"      ....................................................................................................................      ",
"      ....................................................................................................................      ",
"      ....................................................................................................................      ",
"      ....................................................................................................................      ",
"      ....................................................................................................................      ",
"      ....................................................................................................................      ",
"      ....................................................................................................................      ",
"      ....................................................................................................................      ",
"      ....................................................................................................................      ",
"      ....................................................................................................................      ",
"      ....................................................................................................................      ",
"      ....................................................................................................................      ",
"      ....................................................................................................................      ",
"      ....................................................................................................................      ",
"      ....................................................................................................................      ",
"      ....................................................................................................................      ",
"      ....................................................................................................................      ",
"      ....................................................................................................................      ",
"      ....................................................................................................................      ",
"      ....................................................................................................................      ",
"      ....................................................................................................................      ",
"      ....................................................................................................................      ",
"      ....................................................................................................................      ",
"      ....................................................................................................................      ",
"      ....................................................................................................................      ",
"      ....................................................................................................................      ",
"      ....................................................................................................................      ",
"      ....................................................................................................................      ",
"      ....................................................................................................................      ",
"      ....................................................................................................................      ",
"      ....................................................................................................................      ",
"      ....................................................................................................................      ",
"      ....................................................................................................................      ",
"      ....................................................................................................................      ",
"      ....................................................................................................................      ",
"      ....................................................................................................................      ",
"      ....................................................................................................................      ",
"      ....................................................................................................................      ",
"      ....................................................................................................................      ",
"      ....................................................................................................................      ",
"      ....................................................................................................................      ",
"      ....................................................................................................................      ",
"      ....................................................................................................................      ",
"      ....................................................................................................................      ",
"      ....................................................................................................................      ",
"      ....................................................................................................................      ",
"      ....................................................................................................................      ",
"      ....................................................................................................................      ",
"      ....................................................................................................................      ",
"      ....................................................................................................................      ",
"                                                                                                                                ",
"                                                                                                                                ",
"                                                                                                                                ",
"                                                                                                                                ",
"                                                                                                                                ",
"                                                                                                                                "
};
