/* XPM */
static char *_08b8cec0b394f15c8cb0a4a40887688WUGZvdWtlFwyYIqb[] = {
/* columns rows colors chars-per-pixel */
"128 128 2 1 ",
"  c #FF0303",
". c #FFB703",
/* pixels */
"                                                                                                                                ",
"                                                                                                                                ",
"                                                                                                                                ",
"                                                                                                                                ",
"                                                                                                                                ",
"                                                                                                                                ",
"      ....................................................................................................................      ",
"      ....................................................................................................................      ",
"      ....................................................................................................................      ",
"      ....................................................................................................................      ",
"      ....................................................................................................................      ",
"      ....................................................................................................................      ",
"      ....................................................................................................................      ",
"      ....................................................................................................................      ",
"      ....................................................................................................................      ",
"      ....................................................................................................................      ",
"      ....................................................................................................................      ",
"      ....................................................................................................................      ",
"      ....................................................................................................................      ",
"      ....................................................................................................................      ",
"      ....................................................................................................................      ",
"      ....................................................................................................................      ",
"      ....................................................................................................................      ",
"      ....................................................................................................................      ",
"      ....................................................................................................................      ",
"      ....................................................................................................................      ",
"      ....................................................................................................................      ",
"      ....................................................................................................................      ",
"      ....................................................................................................................      ",
"      ....................................................................................................................      ",
"      ....................................................................................................................      ",
"      ....................................................................................................................      ",
"      ....................................................................................................................      ",
"      ....................................................................................................................      ",
"      ....................................................................................................................      ",
"      ....................................................................................................................      ",
"      ....................................................................................................................      ",
"      ....................................................................................................................      ",
"      ....................................................................................................................      ",
"      ....................................................................................................................      ",
"      ....................................................................................................................      ",
"      ....................................................................................................................      ",
"      ....................................................................................................................      ",
"      ....................................................................................................................      ",
"      ....................................................................................................................      ",
"      ....................................................................................................................      ",
"      ....................................................................................................................      ",
"      ....................................................................................................................      ",
"      ....................................................................................................................      ",
"      ....................................................................................................................      ",
"      ....................................................................................................................      ",
"      ....................................................................................................................      ",
"      ....................................................................................................................      ",
"      ....................................................................................................................      ",
"      ....................................................................................................................      ",
"      ....................................................................................................................      ",
"      ....................................................................................................................      ",
"      ....................................................................................................................      ",
"      ....................................................................................................................      ",
"      ....................................................................................................................      ",
"      ....................................................................................................................      ",
"      ....................................................................................................................      ",
"      ....................................................................................................................      ",
"      ....................................................................................................................      ",
"      ....................................................................................................................      ",
"      ....................................................................................................................      ",
"      ....................................................................................................................      ",
"      ....................................................................................................................      ",
"      ....................................................................................................................      ",
"      ....................................................................................................................      ",
"      ....................................................................................................................      ",
"      ....................................................................................................................      ",
"      ....................................................................................................................      ",
"      ....................................................................................................................      ",
"      ....................................................................................................................      ",
"      ....................................................................................................................      ",
"      ....................................................................................................................      ",
"      ....................................................................................................................      ",
"      ....................................................................................................................      ",
"      ....................................................................................................................      ",
"      ....................................................................................................................      ",
"      ....................................................................................................................      ",
"      ....................................................................................................................      ",
"      ....................................................................................................................      ",
"      ....................................................................................................................      ",
"      ....................................................................................................................      ",
"      ....................................................................................................................      ",
"      ....................................................................................................................      ",
"      ....................................................................................................................      ",
"      ....................................................................................................................      ",
"      ....................................................................................................................      ",
"      ....................................................................................................................      ",
"      ....................................................................................................................      ",
"      ....................................................................................................................      ",
"      ....................................................................................................................      ",
"      ....................................................................................................................      ",
"      ....................................................................................................................      ",
"      ....................................................................................................................      ",
"      ....................................................................................................................      ",
"      ....................................................................................................................      ",
"      ....................................................................................................................      ",
"      ....................................................................................................................      ",
"      ....................................................................................................................      ",
"      ....................................................................................................................      ",
"      ....................................................................................................................      ",
"      ....................................................................................................................      ",
"      ....................................................................................................................      ",
"      ....................................................................................................................      ",
"      ....................................................................................................................      ",
"      ....................................................................................................................      ",
"      ....................................................................................................................      ",
"      ....................................................................................................................      ",
"      ....................................................................................................................      ",
"      ....................................................................................................................      ",
"      ....................................................................................................................      ",
"      ....................................................................................................................      ",
"      ....................................................................................................................      ",
"      ....................................................................................................................      ",
"      ....................................................................................................................      ",
"      ....................................................................................................................      ",
"      ....................................................................................................................      ",
"      ....................................................................................................................      ",
"                                                                                                                                ",
"                                                                                                                                ",
"                                                                                                                                ",
"                                                                                                                                ",
"                                                                                                                                ",
"                                                                                                                                "
};
