/* XPM */
static char *result[] = {
/* columns rows colors chars-per-pixel */
"88 88 130 2 ",
"   c #FFFFFF",
" ! c #EF4B4C",
" # c #F04D4E",
" $ c #EF4646",
" % c #EE282B",
" & c #EE292D",
" ' c #F04F50",
" ( c #EF4647",
" ) c #ED2729",
" * c #ED1F24",
" + c #ED2024",
" , c #EE2A2D",
" - c #6ECDDD",
" . c #EF4446",
" / c #ED2628",
" 0 c #ED1D24",
" 1 c #EE2C2E",
" 2 c #F04E4F",
" 3 c #EF4A4B",
" 4 c #ED2427",
" 5 c #EE2B2E",
" 6 c #EF4849",
" 7 c #EF4748",
" 8 c #EE2A2C",
" 9 c #EF4C4C",
" : c #ED2629",
" ; c #F37D7F",
" < c #EF4345",
" = c #ED2428",
" > c #EF4445",
" ? c #ED2326",
" @ c #ED1C24",
" A c #EE2A2B",
" B c #EF484A",
" C c #ED2426",
" D c #EE2B2D",
" E c #D82B2B",
" F c #ED2225",
" G c #EE282A",
" H c #90191C",
" I c #B71F25",
" J c #6F0E10",
" K c #BC2025",
" L c #B41F24",
" M c #F04E50",
" N c #6D0E0F",
" O c #710F11",
" P c #B92025",
" Q c #EC1C24",
" R c #EF4D4D",
" S c #B61F24",
" T c #ED272A",
" U c #EF4B4B",
" V c #F04F51",
" W c #761013",
" X c #6B0D0E",
" Y c #B31F24",
" Z c #AF1F23",
" [ c #ED2627",
" \ c #EF4949",
" ] c #680D0D",
" ^ c #B11F24",
" _ c #ED282B",
" ` c #AE1E23",
" a c #ED2728",
" b c #F05455",
" c c #B01F23",
" d c #EC1F24",
" e c #EA1C24",
" f c #730F11",
" g c #E91D24",
" h c #640B0C",
" i c #B12225",
" j c #E01F26",
" k c #F05051",
" l c #ED282A",
" m c #EC4C4D",
" n c #EC272B",
" o c #ED4848",
" p c #EA2528",
" q c #E91D25",
" r c #ED4E50",
" s c #EA2527",
" t c #EB262A",
" u c #ED4D4F",
" v c #E81D25",
" w c #EB272A",
" x c #E71D25",
" y c #E92529",
" z c #C92026",
" { c #EB4B4D",
" | c #EA262A",
" } c #E61D25",
"!  c #E51D25",
"!! c #6E0E0F",
"!# c #EC4A4A",
"!$ c #E92528",
"!% c #AB1E22",
"!& c #660C0C",
"!' c #ED4B4B",
"!( c #EB494A",
"!) c #EA282B",
"!* c #EC4A4B",
"!+ c #E82528",
"!, c #AA1E22",
"!- c #E41E25",
"!. c #EB4748",
"!/ c #A81D22",
"!0 c #670C0C",
"!1 c #E82427",
"!2 c #EA2529",
"!3 c #AD1E23",
"!4 c #E82529",
"!5 c #E9272A",
"!6 c #A91E22",
"!7 c #DF3A3B",
"!8 c #A71D21",
"!9 c #A21D21",
"!: c #C12026",
"!; c #040707",
"!< c #C02026",
"!= c #761113",
"!> c #BD2025",
"!? c #7A1215",
"!@ c #751012",
"!A c #BF2026",
"!B c #781114",
"!C c #7B1315",
"!D c #7A1214",
"!E c #731012",
/* pixels */
"                                                                                                                                                                                ",
"                                                                                                                                                                                ",
"                                                                                                                                                                                ",
"                                                                                                                                                                                ",
"                                                                                                                                                                                ",
"                                                                                                                                                                                ",
"                                                                                                                                                                                ",
"                                                                                                                                                                                ",
"                                     ! #                                                                                               # !                                      ",
"                                   $ % & '                                                                                           ' & % $                                    ",
"                                 ( ) * + , #                                                                                       # , + * ) (                                  ",
"                             - . / * 0 0 + 1 2                                                                                   2 1 + 0 0 * / .                                ",
"                           - 3 4 * 0 0 0 0 * 5 #                                                                               # 5 * 0 0 0 0 * 4 6 -                            ",
"                           7 / 0 0 0 0 0 0 0 + 8 9                                                                           9 8 + 0 0 0 0 0 0 0 / 7                            ",
"                         7 : * 0 0 0 0 0 0 0 0 * 5 9                                                                       9 5 * 0 0 0 0 0 0 0 0 * : 7                          ",
"                     ; < = 0 0 0 0 0 0 0 0 0 0 0 * ) !                                                                   ! ) * 0 0 0 0 0 0 0 0 0 0 0 = < ;                      ",
"                   - > ? 0 @ @ @ @ @ @ @ @ @ @ @ @ + A 9                                                               9 A + @ @ @ @ @ @ @ @ @ @ @ @ 0 ? > -                    ",
"                 ; B C 0 @ @ @ @ @ @ @ @ @ @ @ @ @ @ * D #                                                           # D * @ @ @ @ @ @ @ @ @ @ @ @ @ @ 0 C B ;                  ",
"                 E F 0 @ @ @ @ @ @ @ @ @ @ @ @ @ @ @ @ * G 9                                                       9 G * @ @ @ @ @ @ @ @ @ @ @ @ @ @ @ @ 0 F E                  ",
"                 H I 0 0 @ @ @ @ @ @ @ @ @ @ @ @ @ @ @ @ * D 9                                                   9 D * @ @ @ @ @ @ @ @ @ @ @ @ @ @ @ @ 0 0 I H                  ",
"                   J K 0 0 @ @ @ @ @ @ @ @ @ @ @ @ @ @ @ @ 0 D '                                               ' D 0 @ @ @ @ @ @ @ @ @ @ @ @ @ @ @ @ 0 0 K J                    ",
"                     J L 0 0 @ @ @ @ @ @ @ @ @ @ @ @ @ @ @ @ * % M                                           M % * @ @ @ @ @ @ @ @ @ @ @ @ @ @ @ @ 0 0 L J                      ",
"                       N L 0 0 @ @ @ @ @ @ @ @ @ @ @ @ @ @ @ @ * 8 2                                       2 8 * @ @ @ @ @ @ @ @ @ @ @ @ @ @ @ @ 0 0 L N                        ",
"                         O P 0 @ Q @ @ @ @ @ @ @ @ @ @ @ @ @ @ @ 0 8 R                                   R 8 0 @ @ @ @ @ @ @ @ @ @ @ @ @ @ @ Q @ 0 P O                          ",
"                           J S 0 0 @ @ @ @ @ @ @ @ @ @ @ @ @ @ @ @ * T U                               U T * @ @ @ @ @ @ @ @ @ @ @ @ @ @ @ @ 0 0 S J                            ",
"                             N K 0 0 Q Q Q Q Q Q Q Q Q Q Q Q Q Q Q Q 0 % V                           V % 0 Q Q Q Q Q Q Q Q Q Q Q Q Q Q Q Q 0 0 K N                              ",
"                               W P 0 @ Q Q Q Q Q Q Q Q Q Q Q Q Q Q Q Q 0 & U                       U & 0 Q Q Q Q Q Q Q Q Q Q Q Q Q Q Q Q @ 0 P W                                ",
"                                 X Y 0 @ Q Q Q Q Q Q Q Q Q Q Q Q Q Q Q Q 0 ) #                   # ) 0 Q Q Q Q Q Q Q Q Q Q Q Q Q Q Q Q @ 0 Y X                                  ",
"                                   O P 0 @ Q Q Q Q Q Q Q Q Q Q Q Q Q Q Q Q 0 8 9               9 8 0 Q Q Q Q Q Q Q Q Q Q Q Q Q Q Q Q @ 0 P O                                    ",
"                                     O Z @ @ Q Q Q Q Q Q Q Q Q Q Q Q Q Q Q Q @ [ \           \ [ @ Q Q Q Q Q Q Q Q Q Q Q Q Q Q Q Q @ @ Z O                                      ",
"                                       ] ^ 0 @ Q Q Q Q Q Q Q Q Q Q Q Q Q Q Q Q 0 ) 9       9 ) 0 Q Q Q Q Q Q Q Q Q Q Q Q Q Q Q Q @ 0 ^ ]                                        ",
"                                         J I 0 @ Q Q Q Q Q Q Q Q Q Q Q Q Q Q Q Q @ _ M   M _ @ Q Q Q Q Q Q Q Q Q Q Q Q Q Q Q Q @ 0 I J                                          ",
"                                           X ` Q Q Q Q Q Q Q Q Q Q Q Q Q Q Q Q Q Q @ a b a @ Q Q Q Q Q Q Q Q Q Q Q Q Q Q Q Q Q Q ` X                                            ",
"                                             ] c @ @ Q Q Q Q Q Q Q Q Q Q Q Q Q Q Q Q Q d Q Q Q Q Q Q Q Q Q Q Q Q Q Q Q Q Q @ @ c ]                                              ",
"                                               X L @ Q e e e e e e e e e e e e e e e e Q e e e e e e e e e e e e e e e e Q @ L X                                                ",
"                                                 X c Q Q e e e e e e e e e e e e e e e e e e e e e e e e e e e e e e e Q Q c X                                                  ",
"                                                   ] Z @ Q e e e e e e e e e e e e e e e e e e e e e e e e e e e e e Q @ Z ]                                                    ",
"                                                     N Y @ Q e e e e e e e e e e e e e e e e e e e e e e e e e e e Q @ Y N                                                      ",
"                                                       X Z @ Q e e e e e e e e e e e e e e e e e e e e e e e e e Q @ Z X                                                        ",
"                                                         ] I @ Q e e e e e e e e e e e e e e e e e e e e e e e Q @ I ]                                                          ",
"                                                           f Y Q e g e e e e e e e e e e e e e e e e e e e g e Q Y f                                                            ",
"                                                             X Z Q e g g g g g g g g g g g g g g g g g g g e Q Z X                                                              ",
"                                                               h Z g e g g g g g g g g g g g g g g g g g e g Z h                                                                ",
"                                                                 i j e g g g g g g g g g g g g g g g g g e j i                                                                  ",
"                                                               k l e g g g g g g g g g g g g g g g g g g g e l k                                                                ",
"                                                             m n Q g g g g g g g g g g g g g g g g g g g g g Q n m                                                              ",
"                                                           o p e q q q q q q q q q q q q q q q q q q q q q q q e p o                                                            ",
"                                                         r s Q q q q q q q q q q q q q q q q q q q q q q q q q q Q s r                                                          ",
"                                                       m t e q q q q q q q q q q q q q q q q q q q q q q q q q q q e t m                                                        ",
"                                                     u p e v v v v v v v v v v v v v v v v v v v v v v v v v v v v v e p u                                                      ",
"                                                   r w e v v v v v v v v v v v v v v v v v v v v v v v v v v v v v v v e w r                                                    ",
"                                                 u t e x x x x x x x x x x x x x x x x x x x x x x x x x x x x x x x x x e t u                                                  ",
"                                               m y e x x x x x x x x x x x x x x x x q e q x x x x x x x x x x x x x x x x e y m                                                ",
"                                             m t e x x x x x x x x x x x x x x x x g x z x g x x x x x x x x x x x x x x x x e t m                                              ",
"                                           { | g } } } } } } } } } } } } } } }!  v e ^!! ^ e v!  } } } } } } } } } } } } } } } g | {                                            ",
"                                        !#!$ e } } } } } } } } } } } } } } } } g e!%!&  !&!% e g } } } } } } } } } } } } } } } } e!$!#                                          ",
"                                      !' t g } } } } } } } } } } } } } } }!  g e c ]       ] c e g!  } } } } } } } } } } } } } } } g t!'                                        ",
"                                    !(!) g } } } } } } } } } } } } } } }!  v g c f           f c g v!  } } } } } } } } } } } } } } } g!)!(                                      ",
"                                  !*!+ g! ! ! ! ! ! ! ! ! ! ! ! ! ! ! !  q e!, h               h!, e q! ! ! ! ! ! ! ! ! ! ! ! ! ! ! !  g!+!*                                    ",
"                                 m t q! ! ! ! ! ! ! ! ! ! ! ! ! ! ! !- v e `!&                  !& ` e v!-! ! ! ! ! ! ! ! ! ! ! ! ! ! !  q t m                                  ",
"                              !.!+ q! ! ! ! ! ! ! ! ! ! ! ! ! ! ! !  v q!/!0                      !0!/ q v! ! ! ! ! ! ! ! ! ! ! ! ! ! ! !  q!+!.                                ",
"                            !*!1 g! ! ! ! ! ! ! ! ! ! ! ! ! ! ! !- q e!% ]                           ]!% e q!-! ! ! ! ! ! ! ! ! ! ! ! ! ! !  g!1!*                              ",
"                           u!2 v!-!-!-!-!-!-!-!-!-!-!-!-!-!-!-!- x g!3!&                              !&!3 g x!-!-!-!-!-!-!-!-!-!-!-!-!-!-!-!- v!2 u                            ",
"                         u!4 q!-!-!-!-!-!-!-!-!-!-!-!-!-!-!-!- x v!,!&                                  !&!, v x!-!-!-!-!-!-!-!-!-!-!-!-!-!-!-!- q!4 u                          ",
"                       m!5 g!-!-!-!-!-!-!-!-!-!-!-!-!-!-!-!- v g!6 h                                       h!6 g v!-!-!-!-!-!-!-!-!-!-!-!-!-!-!-!- g!5 m                        ",
"                     {!5 v!-!-!-!-!-!-!-!-!-!-!-!-!-!-!-!- x g!3 N                                           N!3 g x!-!-!-!-!-!-!-!-!-!-!-!-!-!-!-!- v!5 {                      ",
"                   u!4 g!-!-!-!-!-!-!-!-!-!-!-!-!-!-!-!- v x!,!&                                              !&!, x v!-!-!-!-!-!-!-!-!-!-!-!-!-!-!-!- g!4 u                    ",
"                !7 t g!-!-!-!-!-!-!-!-!-!-!-!-!-!-!-!- x g!8 h                                                   h!8 g x!-!-!-!-!-!-!-!-!-!-!-!-!-!-!-!- g t!7                  ",
"                !9!: e! !-!-!-!-!-!-!-!-!-!-!-!-!-!- x g ` X                                                       X ` g x!-!-!-!-!-!-!-!-!-!-!-!-!-!-!  e!:!9                  ",
"                !; f!< e }!-!-!-!-!-!-!-!-!-!-!-!- x g!,!&                                                          !&!, g x!-!-!-!-!-!-!-!-!-!-!-!- } e!< f!;                  ",
"                    !=!> e }!-!-!-!-!-!-!-!-!-!- v g ` ]                                                               ] ` g v!-!-!-!-!-!-!-!-!-!- } e!>!=                      ",
"                    !;!?!< e }!-!-!-!-!-!-!-!- } g Z J                                                                   J Z g }!-!-!-!-!-!-!-!- } e!<!?!;                      ",
"                        !@!A e! !-!-!-!-!-!- v g!6 h                                                                       h!6 g v!-!-!-!-!-!-!  e!A!@                          ",
"                          !B!A e }!-!-!-!- v e!3!&                                                                          !&!3 e v!-!-!-!- } e!A!B                            ",
"                            !@!: e }!-!- x x!/!&                                                                              !&!/ x x!-!- } e!:!@                              ",
"                            !;!C!A e!  v g!6 h                                                                                   ]!, g v!  e!A!C!;                              ",
"                              !;!B!A Q e!% X                                                                                       X!% e Q!A!B!;                                ",
"                                  !D!A!% X                                                                                           X!%!A!D                                    ",
"                                  !;!E X                                                                                               X!E!;                                    ",
"                                                                                                                                                                                ",
"                                                                                                                                                                                ",
"                                                                                                                                                                                ",
"                                                                                                                                                                                ",
"                                                                                                                                                                                ",
"                                                                                                                                                                                ",
"                                                                                                                                                                                ",
"                                                                                                                                                                                ",
"                                                                                                                                                                                "
};