/* XPM */
static char *result[] = {
/* columns rows colors chars-per-pixel */
"88 88 129 2 ",
"   c #FFFFFF",
" ! c #E21E26",
" # c #C92026",
" $ c #D62027",
" % c #D42027",
" & c #CE2027",
" ' c #C82027",
" ( c #C42026",
" ) c #C12026",
" * c #ED1F24",
" + c #DF1F26",
" , c #CB2127",
" - c #CA2027",
" . c #C62026",
" / c #C52026",
" 0 c #C72026",
" 1 c #E01E26",
" 2 c #D12027",
" 3 c #CD2027",
" 4 c #CF2027",
" 5 c #D22027",
" 6 c #D32027",
" 7 c #D82027",
" 8 c #D91F26",
" 9 c #DD1F26",
" : c #E01F26",
" ; c #E31E25",
" < c #E31F25",
" = c #CC2027",
" > c #D92027",
" ? c #DE1F26",
" @ c #E52325",
" A c #E9292C",
" B c #EB3135",
" C c #EB383B",
" D c #EC3D3E",
" E c #EC3E40",
" F c #EC4041",
" G c #EC3F41",
" H c #EA282B",
" I c #EB3536",
" J c #EC3E3E",
" K c #ED3E3F",
" L c #EE3F40",
" M c #EE3F3F",
" N c #EE3E3E",
" O c #EF3C3F",
" P c #EF3C3E",
" Q c #EE3B3E",
" R c #E52225",
" S c #EB2E31",
" T c #EC3A3C",
" U c #ED3A3C",
" V c #EE3B3C",
" W c #EE3A3B",
" X c #EE383A",
" Y c #EE373B",
" Z c #EE383B",
" [ c #E72125",
" \ c #EB3031",
" ] c #ED3639",
" ^ c #ED3437",
" _ c #EE3435",
" ` c #EE3336",
" a c #EE3636",
" b c #EE3637",
" c c #EE3737",
" d c #E41E25",
" e c #DB1F26",
" f c #EB282A",
" g c #EC3232",
" h c #ED3231",
" i c #EE2F30",
" j c #EE3031",
" k c #EE3032",
" l c #EC3132",
" m c #E72025",
" n c #EB2A2C",
" o c #ED2B2D",
" p c #ED2B2C",
" q c #EE2C2C",
" r c #EE2C2D",
" s c #E92224",
" t c #EB292A",
" u c #ED2727",
" v c #ED2728",
" w c #EE2829",
" x c #EE282A",
" y c #EE2A2B",
" z c #EA1C24",
" { c #EA2124",
" | c #EA2525",
" } c #ED2424",
"!  c #ED2625",
"!! c #ED2626",
"!# c #ED2627",
"!$ c #ED2426",
"!% c #ED2425",
"!& c #EC1C24",
"!' c #DC1F26",
"!( c #E91F24",
"!) c #EC2225",
"!* c #EC2024",
"!+ c #ED2024",
"!, c #ED2224",
"!- c #ED2225",
"!. c #ED2325",
"!/ c #ED2025",
"!0 c #EB1C24",
"!1 c #ED1C24",
"!2 c #ED1D24",
"!3 c #ED1D25",
"!4 c #E91D24",
"!5 c #EC1E24",
"!6 c #EE3223",
"!7 c #E11E26",
"!8 c #E81D25",
"!9 c #E71D25",
"!: c #C02026",
"!; c #E61D25",
"!< c #ED2427",
"!= c #ED253B",
"!> c #E91D25",
"!? c #EC1F24",
"!@ c #F05657",
"!A c #F37D7F",
"!B c #E51D25",
"!C c #EF4345",
"!D c #C32026",
/* pixels */
"                                                                                                                                                                                ",
"                                                                                                                                                                                ",
"                                                                                                                                                                                ",
"                                                                                                                                                                                ",
"                                                                                                                                                                                ",
"                                                                                                                                                                                ",
"                                                                                                                                                                                ",
"                                                                                                                                                                                ",
"                                                                         ! # $ % & ' ( ) ( ' & % $ # !                                                                          ",
"                                                                 * + , # - . / / / 0 0 0 0 0 / / / . - # , + *                                                                  ",
"                                                             1 2 0 / / 3 & & & 4 2 5 6 6 6 5 2 4 & & & 3 / / 0 2 1                                                              ",
"                                                       * $ , / / , 2 5 % 7 8 9 + : ! ; < ; ! : + 9 8 7 % 5 2 , / / , $ *                                                        ",
"                                                     1 = . ' , 2 $ > ? ! @ A B C D E F G F E D C B A @ ! ? > $ 2 , ' . = 1                                                      ",
"                                                 ! 2 / , 4 6 > ? < H I J K L M N O P Q Q Q P O N M L K J I H < ? > 6 4 , / 4 !                                                  ",
"                                               $ # ( & 6 > : R S T U V W X X Y X Z W W W W W Z X Y X X W V U T S R : > 6 & ( # $                                                ",
"                                           * = / = 5 > + [ \ ] ^ _ ` a a a a b b c c c c c c c b b a a a a ` _ ^ ] \ [ + > 5 = / = *                                            ",
"                                         d , / 3 $ e d f g h i i j j j k k k k k k k k k k k k k k k k k j j j i i h l f d e $ 3 / , d                                          ",
"                                       ! # ' 4 $ ? m n o p q r r r r r r r r r r r r r r r r r r r r r r r r r r r q p o n m ? $ 4 ' # !                                        ",
"                                     $ . , 5 > ! s t u v w x x x x x x x x x x x y y y y y y y x x x x x x x x x x x w v u t s ! > 5 , . $                                      ",
"                                   z ' 3 5 e ! { | } }! ! !!!!!!!!!!!!!! u x y x!#! !$!%!$! !# x y x u!!!!!!!!!!!!!!! !  } } | { ! e 5 3 0 d                                    ",
"                                !& 0 = 6!' d!(!)!*!+!,!-!-!-!-!-!-!-!. v!,!-!+!.!.!/!.!.!.!/!.!.!+!-!, v!.!-!-!-!-!-!-!-!,!+!*!)!( d e 6 = '!&                                  ",
"                               * , # 5!' d z!0!&!1!1!2!2!2!2!2!2 *!/!2 *!-!3!.                  !.!3!- *!2!/ *!2!2!2!2!2!2!1!1!&!0 z d!' 5 # , *                                ",
"                               & / 5 e ;!4!0!5!2 * * * * * *!+!+!2 * *!6                              !6 *!+ *!+!+ * * * * * *!2!5!0!4 ; e 2 / &                                ",
"                             8 0 4 7!7!8 z!&!1!1!1!1!1!1!1 *!1!2 *                                           *!1!2 *!1!1!1!1!1!1!1!& z!8!7 7 4 0 8                              ",
"                           z ' 3 $ +!9 z!&!&!1!1!1!1!1!1!2!1!2 *                                              !:!2!1!2!1!1!1!1!1!1!&!& z!9 + $ 3 ' z                            ",
"                           % / 6!' d!4!&!&!&!1!1!1!1!1!1!1!2                                                      !2!1!1!1!1!1!1!1!&!&!&!4 d!' 6 / %                            ",
"                        !; / 2 8 !!8 z!&!&!&!&!&!&!1!1!&!<                                                          !<!&!1!1!&!&!&!&!&!& z!8 ! 8 2 /!;                          ",
"                       * 5 3 $ +!; z!&!&!&!&!&!&!1!1!&!=                                                              !=!&!1!1!&!&!&!&!&!& z!; + $ 3 5 *                        ",
"                       ? # 2 e d!> z!&!&!&!&!&!&!2!&!?                                                                  !?!&!2!&!&!&!&!&!& z!> d e 2 # ?                        ",
"                       5 - $ +!; z!&!&!&!&!&!&!1!&!2                                                                      !2!&!1!&!&!&!&!&!& z!; + $ - 5                        ",
"                    !& ' 3 e d!> z!&!&!&!&!&!1!&!1                                                                          !1!&!1!&!&!&!&!& z!> d e 3 '!&                      ",
"                     > / $ +!;!4 z!&!&!&!&!&!1!&!@                                                                          !A!&!1!&!&!&!&!& z!4!; ? $ / >                      ",
"                   * - 4 7 !!8 z z!&!&!&!&!&!& *                                                                               *!&!&!&!&!&!& z z!8 ! 7 4 - *                    ",
"                  !B ' %!' d!4 z!&!&!&!&!&!1!&                                                                                  !&!1!&!&!&!&!& z!4 d!' % 0!B                    ",
"                   6 # $ ?!B!4 z!&!&!&!&!&!&!2                                                                                  !2!&!&!&!&!&!& z!4!B ? $ # 6                    ",
"                 * 3 5 7 1!9!4 z z z z z!1!&!C                                                                                  !C!&!1 z z z z z!4!9 1 7 5 3 *                  ",
"                 * = 6 e !!8!4 z z z z!&!&!&                                                                                      !&!&!& z z z z!4!8 ! e 6 = *                  ",
"                 $ - 6!' d!8!4 z z z z!& z!2                                                                                      !2 z!& z z z z!4!8 d!' 6 - $                  ",
"                 & ' % ? d!8!4 z z z z!1 z!<                                                                                      !< z!1 z z z z!4!8 d ? % ' 4                  ",
"                 % ' $ ?!B!4 z z z z z!& z                                                                                           z!& z z z z z!4!B + $ ' 7                  ",
"                 5 - $ 1!B!> z z z z z z!&                                                                                           z z z z z z z!>!B 1 $ - 5                  ",
"                 , , $ 1!B!>!4!4!4!4 z!4!&                                                                                          !&!4 z!4!4!4!4!>!B 1 $ , =                  ",
"                 . = 7 1!B!>!4!4!4!4 z!4 z                                                                                          !&!4 z!4!4!4!4!>!B 1 7 = .                  ",
"                 / 3 7 1!B!>!4!4!4!4 z!4 z                                                                                           z!> z!4!4!4!4!>!B 1 7 3!D                  ",
"                 . = 7 1!B!>!4!4!4!4!4!4!&                                                                                           z!4!4!4!4!4!4!>!B 1 7 = .                  ",
"                 3 = 7 +!B!>!4!4!4!4!4!8 z                                                                                           z!8!4!4!4!4!4!>!B + 7 = =                  ",
"                 $ , $ + d!9!>!>!>!>!4!>!4                                                                                          !>!>!4!>!>!>!>!9 d + $ , $                  ",
"                 % # $ ? d!9!>!>!>!>!> z!8                                                                                          !4 z!>!>!>!>!>!9 d ? $ # 7                  ",
"                 & - $ 9 ;!;!8!8!8!8!8!&!> *                                                                                       *!>!&!8!8!8!8!8!; ; 9 $ - 4                  ",
"                 $ = $!' !!;!8!8!8!8!8 z!9!4                                                                                      !4!9 z!8!8!8!8!8!; !!' $ = $                  ",
"                 * 4 $!' !!;!8!8!8!8!8!>!>!4                                                                                      !4!>!>!8!8!8!8!8!; !!' $ 4 *                  ",
"                 * 4 % > + d!;!9!9!9!9!9!&!4 *                                                                                   *!9!&!9!9!9!9!9!; d + > % 4 *                  ",
"                   $ = $ 9 d!B!9!9!9!9!9!>!;!4                                                                                  !4!;!>!9!9!9!9!9!B d 9 $ = $                    ",
"                   z , 7!' !!B!9!9!9!9!9!9!4!4                                                                                  !4!4!9!9!9!9!9!9!B !!' 7 , z                    ",
"                   * 4 6 8 1 d!;!;!;!;!;!;!8!B!&                                                                              !&!B!8!;!;!;!;!;!; d 1 8 6 4 *                    ",
"                     e - $ ? ;!B!;!;!;!;!;!;!4!9 *                                                                           *!9!4!;!;!;!;!;!;!B ; ? $ - e                      ",
"                    !& , 6!' ! d!;!;!;!;!;!;!>!9 z                                                                           z!9!>!;!;!;!;!;!; d !!' 6 ,!&                      ",
"                       % 4 > + ;!B!;!;!;!;!;!B!4!B z                                                                       z!B!4!B!;!;!;!;!;!B ; + > 4 %                        ",
"                       ? = $!'!7 d d!B!B!B!B!B!B!4!;!&                                                                  !&!;!4!B!B!B!B!B!B d d!7!' $ = ?                        ",
"                       * % % 8 + ; d!B!B!B!B!B!B!;!9!9 *                                                               *!9!9!;!B!B!B!B!B!B d ; + 8 % % *                        ",
"                        !; = $!'!7 d d!B!B!B!B!B!B!;!;!9!&                                                          !&!9!;!;!B!B!B!B!B!B d d!7!' $ =!;                          ",
"                           > = 7 ? ! d d d d d d d d!B!;!; z                                                       z!;!;!B d d d d d d d d ! ? 7 = >                            ",
"                           z 4 $ 8 + ! d d d d d d d d!B!>!9 z *                                               * z!9!>!B d d d d d d d d ! + 8 $ 4 z                            ",
"                             ! & $!' 1 ! d d d d d d d d d!>!B!9!4                                          !4!9!B!> d d d d d d d d d ! 1!' $ & !                              ",
"                               % 3 7 ?!7 ; d d d d d d d d d!9!8 d!; z *                               * z!; d!8!9 d d d d d d d d d ;!7 ? 7 3 %                                ",
"                               * 6 6 > ? ! d d d d d d d d d d d!;!9 d!9!>!4!4                  !4!4!>!9 d!9!; d d d d d d d d d d d ! ? > 6 6 *                                ",
"                                 * 5 $ 8 ? ! ; d d d d d d d d d d d!; z d!B!B!;!B!9!;!>!;!9!B!;!B!B d z!; d d d d d d d d d d d ; ! ? 8 $ 5 *                                  ",
"                                   z 2 7 8 +!7 ; d d d d d d d d d d d d!B!>!4!8 d d d d d d d!8!4!>!B d d d d d d d d d d d d ;!7 + 8 7 2 z                                    ",
"                                     ! 2 $ 8 +!7 ; d d d d d d d d d d d d d d d!B!B!B!B!B!B!B d d d d d d d d d d d d d d d ;!7 + 8 $ 2 !                                      ",
"                                      !4 6 $ 8 9 1 ! ; d d d d d d d d d d d d d d d d d d d d d d d d d d d d d d d d d ; ! 1 9 8 $ 6!4                                        ",
"                                        !& % 6 e!' 1 ! d d d d d d d d d d d d d d d d d d d d d d d d d d d d d d d d d ! 1!' e 6 %!&                                          ",
"                                           * $ 6 8 e ?!7 ; d d d d d d d d d d d d d d d d d d d d d d d d d d d d d ;!7 ? e 8 6 $ *                                            ",
"                                               e $ 5!' 9 +!7 ; ; d d d d d d d d d d d d d d d d d d d d d d d ; ;!7 + 9!' 5 $ e                                                ",
"                                                 ! 7 5 8!'!' 1!7 ; d d d d d d d d d d d d d d d d d d d d d ;!7 1!'!' 8 5 7 !                                                  ",
"                                                    !; 7 $ $ >!' ? 1 1 ! ; ; d d d d d d d d d d d ; ; ! 1 1 ?!' > $ $ 7!;                                                      ",
"                                                       * d 7 6 6 e ? 9 9 ? + 1!7!7 ! ! ! ! !!7!7 1 + ? 9 9 ? e 6 6 7 d *                                                        ",
"                                                            !>!' $ % %!' 9!'!'!'!'!' 9 ? 9!'!'!'!'!' 9!' % % $!'!>                                                              ",
"                                                                 *!; $ > 7 $ $ % $ $ 7 7 7 $ $ % $ $ 7 > $!; *                                                                  ",
"                                                                         ! d e ?!' > 6 & 6 >!' ? e d !                                                                          ",
"                                                                                                                                                                                ",
"                                                                                                                                                                                ",
"                                                                                                                                                                                ",
"                                                                                                                                                                                ",
"                                                                                                                                                                                ",
"                                                                                                                                                                                ",
"                                                                                                                                                                                ",
"                                                                                                                                                                                ",
"                                                                                                                                                                                "
};